<svg xmlns="http://www.w3.org/2000/svg" xmlns:xlink="http://www.w3.org/1999/xlink" width="110" height="110" viewBox="0 0 110 110">
  <defs>
    <clipPath id="clip-path">
      <rect id="Rectangle_343" data-name="Rectangle 343" width="110" height="110" fill="none"/>
    </clipPath>
  </defs>
  <g id="Group_1645" data-name="Group 1645" clip-path="url(#clip-path)">
    <path id="Path_54877" data-name="Path 54877" d="M110,55A55,55,0,1,1,55,0a55,55,0,0,1,55,55" transform="translate(0 -0.001)" fill="#c2bcbc"/>
    <path id="Path_54878" data-name="Path 54878" d="M101.775,131.9l-.487-.225a42.652,42.652,0,0,1-17.4-15.609A45.964,45.964,0,0,1,76.37,91.049V89.923l1.125-.038c8.106-.276,9.431-8.633,9.483-8.988l.147-.994h29.3l.147.994c.054.354,1.416,8.714,9.483,8.988l1.124.038v1.125a45.964,45.964,0,0,1-7.521,25.017,42.656,42.656,0,0,1-17.4,15.609ZM78.712,92.126A43.729,43.729,0,0,0,85.846,114.8a40.534,40.534,0,0,0,15.929,14.531A40.539,40.539,0,0,0,117.7,114.8a43.734,43.734,0,0,0,7.133-22.673c-7.282-.859-9.686-7.371-10.349-9.9H89.061c-.663,2.524-3.067,9.036-10.349,9.9" transform="translate(-46.734 -48.896)" fill="#494545"/>
    <path id="Path_54879" data-name="Path 54879" d="M120.028,136.078l-.461-.393c-1.545-1.316-2.957-2.45-4.2-3.45l-.171-.137c-4.635-3.72-7.7-6.178-7.7-10.69,0-4.809,3.2-8.3,7.6-8.3a7.776,7.776,0,0,1,5.682,2.482,7.777,7.777,0,0,1,5.682-2.482c4.406,0,7.6,3.49,7.6,8.3,0,4.512-3.061,6.969-7.7,10.689l-.167.134c-1.25,1-2.661,2.137-4.207,3.454l-.46.392Zm-4.926-20.64c-3.106,0-5.275,2.455-5.275,5.971,0,3.4,2.424,5.341,6.825,8.874l.167.134c1.183.949,2.509,2.014,3.964,3.246,1.455-1.232,2.782-2.3,3.961-3.243l.171-.137c4.4-3.533,6.825-5.479,6.825-8.874,0-3.515-2.169-5.971-5.275-5.971a5.432,5.432,0,0,0-4.676,2.682h-2.011a5.432,5.432,0,0,0-4.676-2.682" transform="translate(-65.783 -69.217)" fill="#494545"/>
  </g>
</svg>
