<svg id="Group_1649" data-name="Group 1649" xmlns="http://www.w3.org/2000/svg" xmlns:xlink="http://www.w3.org/1999/xlink" width="110" height="110" viewBox="0 0 110 110">
  <defs>
    <clipPath id="clip-path">
      <rect id="Rectangle_347" data-name="Rectangle 347" width="110" height="110" fill="none"/>
    </clipPath>
  </defs>
  <g id="Group_1649-2" data-name="Group 1649" clip-path="url(#clip-path)">
    <path id="Path_54895" data-name="Path 54895" d="M110,55A55,55,0,1,1,55,0a55,55,0,0,1,55,55" transform="translate(0 -0.001)" fill="#c2bcbc"/>
    <path id="Path_54896" data-name="Path 54896" d="M108.118,115.12c-9.878,0-20.761-6.635-21.314-21.2a21.434,21.434,0,0,1,19.488-21.206l.7-.06V64.534h-2.032A8.073,8.073,0,0,1,96.9,56.471V52.193h4.278a8.024,8.024,0,0,1,6.336,3.085l.6.768.605-.768a8.022,8.022,0,0,1,6.335-3.085h4.278v4.278a8.072,8.072,0,0,1-8.063,8.063h-2.032v8.122l.7.06A21.44,21.44,0,0,1,129.433,93.95c-.249,6.548-2.654,12.05-6.955,15.88a21.5,21.5,0,0,1-14.359,5.29Zm-8.765-12.838a8.621,8.621,0,0,0-6.085,2.5l-.5.486.436.547a19.04,19.04,0,0,0,14.382,7.2l.7.019.085-.7a8.709,8.709,0,0,0-2.117-6.931,9.35,9.35,0,0,0-6.9-3.122m-.069-2.247a11.826,11.826,0,0,1,8.478,3.7,10.78,10.78,0,0,1,2.9,8.162l-.066.987.973-.179a19.252,19.252,0,0,0,13.361-9.767l.609-1.134h-7.914a4.874,4.874,0,0,1-2.916-8.753,2.72,2.72,0,0,0,.577-3.734,6.358,6.358,0,0,1,2.129-9.278l2.281-1.244-1.016-.712a18.025,18.025,0,0,0-10.415-3.169,18.941,18.941,0,0,0-14.514,6.513L92.7,82.688H98a5.472,5.472,0,0,1-.029,10.943H89.037l.019.789a18.844,18.844,0,0,0,1.992,8.022l.442.886.75-.647a10.65,10.65,0,0,1,7.044-2.645M118.493,82.01a4.126,4.126,0,0,0-1.366,6.017,4.951,4.951,0,0,1-1.069,6.822,2.62,2.62,0,0,0,1.568,4.709h8.72l.162-.555A19.282,19.282,0,0,0,121.9,80.785l-.407-.411ZM91.1,85.356a18.918,18.918,0,0,0-1.731,5.119l-.168.91H98a3.225,3.225,0,0,0,.029-6.451H91.314ZM115.06,54.439a5.824,5.824,0,0,0-5.818,5.818v2.032h2.032a5.824,5.824,0,0,0,5.817-5.818V54.439ZM99.146,56.471a5.824,5.824,0,0,0,5.818,5.818H107V60.256a5.824,5.824,0,0,0-5.818-5.818H99.146Z" transform="translate(-53.119 -31.939)" fill="#494545"/>
  </g>
</svg>
