<svg xmlns="http://www.w3.org/2000/svg" width="110" height="110" viewBox="0 0 110 110">
  <g id="Group_2323" data-name="Group 2323" transform="translate(-1042 -4315)">
    <path id="Path_54880" data-name="Path 54880" d="M110,55A55,55,0,1,1,55,0a55,55,0,0,1,55,55" transform="translate(1042 4315)" fill="#c2bcbc"/>
    <path id="Path_54881" data-name="Path 54881" d="M83.294,120.814V112.19h3.241V93.265H83.294V91.124h7.978V88.645a14.664,14.664,0,0,1,13.136-14.616l.492-.052V66.6h5.706v2.141h-3.565v5.236l.492.052A14.664,14.664,0,0,1,120.67,88.645v2.479h7.978v2.141h-3.241V112.19h3.241v8.623Zm2.141-2.142h41.072v-4.341H85.435Zm32.626-6.482h5.2V93.264h-5.2Zm-7.346,0h5.2V93.264h-5.2Zm-7.347,0h5.2V93.264h-5.2Zm-7.346,0h5.2V93.264h-5.2Zm-7.346,0h5.2V93.264h-5.2Zm4.854-25.257a12.654,12.654,0,0,0-.117,1.711v2.479h25.115V88.645a12.675,12.675,0,0,0-.116-1.711l-.065-.476H93.6Zm12.441-10.847A12.584,12.584,0,0,0,94.5,83.543l-.346.774h23.639l-.346-.774a12.585,12.585,0,0,0-11.474-7.456" transform="translate(991.029 4271.245)" fill="#494545"/>
  </g>
</svg>
