<svg id="Group_1651" data-name="Group 1651" xmlns="http://www.w3.org/2000/svg" xmlns:xlink="http://www.w3.org/1999/xlink" width="110" height="110" viewBox="0 0 110 110">
  <defs>
    <clipPath id="clip-path">
      <rect id="Rectangle_349" data-name="Rectangle 349" width="110" height="110" fill="none"/>
    </clipPath>
  </defs>
  <g id="Group_1651-2" data-name="Group 1651" clip-path="url(#clip-path)">
    <path id="Path_54905" data-name="Path 54905" d="M110,55A55,55,0,1,1,55,0a55,55,0,0,1,55,55" transform="translate(0 -0.001)" fill="#c2bcbc"/>
    <path id="Path_54906" data-name="Path 54906" d="M159.812,114.705a1.03,1.03,0,0,1-1.03-1.03v-3.862a1.03,1.03,0,1,1,2.06,0v3.862a1.03,1.03,0,0,1-1.03,1.03" transform="translate(-97.166 -66.57)" fill="#494545"/>
    <path id="Path_54907" data-name="Path 54907" d="M144.049,103.6a1.03,1.03,0,0,1-1.03-1.03V97.058a1.03,1.03,0,1,1,2.06,0v5.511a1.03,1.03,0,0,1-1.03,1.03" transform="translate(-87.52 -58.764)" fill="#494545"/>
    <path id="Path_54908" data-name="Path 54908" d="M131.991,128.837a8.686,8.686,0,0,1-8.676-8.676v-1.523a1.03,1.03,0,0,1,2.06,0v1.523a6.616,6.616,0,1,0,6.616-6.616l-.058,0a5.047,5.047,0,0,0-1.8.256,1.03,1.03,0,0,1-.756-1.916,7,7,0,0,1,2.641-.4,8.676,8.676,0,0,1-.027,17.352" transform="translate(-75.462 -68.219)" fill="#494545"/>
    <path id="Path_54909" data-name="Path 54909" d="M81,79.967A1.03,1.03,0,0,0,79.967,81V93.231A1.03,1.03,0,0,0,81,94.261h3.632a7.156,7.156,0,0,0,7.072,6.117h15.294a1.03,1.03,0,0,0,1.03-1.03,7.155,7.155,0,0,0-7.147-7.147H97.424a5.1,5.1,0,0,1,4.981-4.057h3.06a1.03,1.03,0,1,0,0-2.06H102.4a7.154,7.154,0,0,0-7.145,7.147,1.03,1.03,0,0,0,1.03,1.03h4.588a5.1,5.1,0,0,1,4.983,4.057H91.7a5.091,5.091,0,0,1-5.085-5.087,1.03,1.03,0,0,0-1.03-1.03H82.027V82.027h26.5a2.029,2.029,0,0,1,2.029,2.029v5.591h0v2.532a1.03,1.03,0,1,0,2.059,0v-.046l1.827,1.826a7.145,7.145,0,0,0,10.1,0,1.031,1.031,0,0,0,0-1.459l-4.359-4.359h.574A7.154,7.154,0,0,0,127.9,81a1.03,1.03,0,0,0-1.03-1.03Zm44.743,2.06a5.1,5.1,0,0,1-4.981,4.057h-2.633l-3.653-3.653c-.141-.141-.288-.275-.437-.4Zm-3.454,11.131a5.089,5.089,0,0,1-6.392-.654l-3.283-3.283V84.056a4.11,4.11,0,0,0-.04-.572Z" transform="translate(-48.935 -48.935)" fill="#494545"/>
    <path id="Path_54910" data-name="Path 54910" d="M126.874,157.018h-3.632a7.158,7.158,0,0,0-7.073-6.117H100.877a1.031,1.031,0,0,0-1.03,1.031,7.1,7.1,0,0,0,2.093,5.052,7.191,7.191,0,0,0,5.052,2.093h3.456a5.053,5.053,0,0,1-1.387,2.568,5.119,5.119,0,0,1-3.6,1.489h-1.389l-4.287-4.287a7.147,7.147,0,0,0-9.325-.675l-.088-.088a7.147,7.147,0,0,0-10.107,0,1.03,1.03,0,0,0,0,1.457l9.307,9.307a8.359,8.359,0,0,0,5.948,2.464h31.35a1.03,1.03,0,0,0,1.03-1.03V158.048A1.03,1.03,0,0,0,126.874,157.018Zm-32.136,1.8a5.051,5.051,0,0,1,3.6,1.49l2.83,2.83H95.427l-3.484-3.485a5.052,5.052,0,0,1,2.8-.835m31.106,10.437H95.524a6.312,6.312,0,0,1-4.492-1.861l-8.505-8.505a5.091,5.091,0,0,1,6.393.655l5.352,5.352a1.031,1.031,0,0,0,.728.3h10.466a7.192,7.192,0,0,0,5.052-2.093,7.1,7.1,0,0,0,2.093-5.054,1.03,1.03,0,0,0-1.03-1.03h-4.59a5.117,5.117,0,0,1-3.6-1.49,5.049,5.049,0,0,1-1.387-2.567H116.17a5.093,5.093,0,0,1,5.087,5.087,1.03,1.03,0,0,0,1.03,1.03h3.558Z" transform="translate(-48.936 -92.343)" fill="#494545"/>
  </g>
</svg>
