<svg id="Group_1652" data-name="Group 1652" xmlns="http://www.w3.org/2000/svg" xmlns:xlink="http://www.w3.org/1999/xlink" width="110" height="110" viewBox="0 0 110 110">
  <defs>
    <clipPath id="clip-path">
      <rect id="Rectangle_350" data-name="Rectangle 350" width="110" height="110" fill="none"/>
    </clipPath>
  </defs>
  <g id="Group_1652-2" data-name="Group 1652" clip-path="url(#clip-path)">
    <path id="Path_54911" data-name="Path 54911" d="M110,55A55,55,0,1,1,55,0a55,55,0,0,1,55,55" transform="translate(0 -0.001)" fill="#c2bcbc"/>
    <path id="Path_54912" data-name="Path 54912" d="M128.089,104.145l-5.41-4.509a.9.9,0,0,0-.577-.209H108.034V92.214H122.1a.9.9,0,0,0,.577-.209l5.41-4.508a.9.9,0,0,0,0-1.385l-5.41-4.509a.9.9,0,0,0-.577-.209H108.034V79.951a2.705,2.705,0,1,0-5.41,0v10.46H88.557a.9.9,0,0,0-.577.209l-5.41,4.509a.9.9,0,0,0,0,1.385l5.41,4.509a.9.9,0,0,0,.577.209h14.067V116.2H97.612a2.7,2.7,0,0,0-2.567,1.85l-1.187,3.56H90.9a.9.9,0,1,0,0,1.8h29.576a.9.9,0,1,0,0-1.8H116.8l-1.186-3.56a2.7,2.7,0,0,0-2.567-1.851h-5.012v-5.952H122.1a.9.9,0,0,0,.577-.209l5.41-4.509a.9.9,0,0,0,0-1.385M108.034,83.2h13.741L126.1,86.8l-4.328,3.607H108.034Zm-3.607-3.246a.9.9,0,0,1,1.8,0V116.2h-1.8ZM88.883,99.428l-4.328-3.607,4.328-3.607h13.741v7.214ZM113.046,118a.9.9,0,0,1,.856.617l1,2.99H95.759l1-2.99a.9.9,0,0,1,.856-.617Zm8.729-9.558H108.034v-7.214h13.741l4.328,3.607Z" transform="translate(-50.329 -47.27)" fill="#494545"/>
    <path id="Path_54913" data-name="Path 54913" d="M111.3,122.79h-9.558a.9.9,0,1,0,0,1.8H111.3a.9.9,0,1,0,0-1.8" transform="translate(-61.705 -75.141)" fill="#494545"/>
    <path id="Path_54914" data-name="Path 54914" d="M163.811,99.553h-9.558a.9.9,0,1,0,0,1.8h9.558a.9.9,0,1,0,0-1.8" transform="translate(-93.842 -60.921)" fill="#494545"/>
    <path id="Path_54915" data-name="Path 54915" d="M163.811,146.027h-9.558a.9.9,0,1,0,0,1.8h9.558a.9.9,0,1,0,0-1.8" transform="translate(-93.842 -89.36)" fill="#494545"/>
  </g>
</svg>
