<svg id="Group_1647" data-name="Group 1647" xmlns="http://www.w3.org/2000/svg" xmlns:xlink="http://www.w3.org/1999/xlink" width="110" height="110" viewBox="0 0 110 110">
  <defs>
    <clipPath id="clip-path">
      <rect id="Rectangle_345" data-name="Rectangle 345" width="110" height="110" fill="none"/>
    </clipPath>
  </defs>
  <g id="Group_1647-2" data-name="Group 1647" clip-path="url(#clip-path)">
    <path id="Path_54882" data-name="Path 54882" d="M110,55A55,55,0,1,1,55,0a55,55,0,0,1,55,55" transform="translate(0 -0.001)" fill="#c2bcbc"/>
    <path id="Path_54883" data-name="Path 54883" d="M96.09,125.514a4.365,4.365,0,0,1-4.36-4.36V84.276a4.365,4.365,0,0,1,4.36-4.36h4.833V77.59a1.018,1.018,0,0,1,1.017-1.017l4.907.012.12-.388a4.361,4.361,0,0,1,8.328-.01l.12.386h4.91a1.018,1.018,0,0,1,1.017,1.017v2.326h4.833a4.365,4.365,0,0,1,4.36,4.36v36.878a4.365,4.365,0,0,1-4.36,4.36Zm0-43.564a2.328,2.328,0,0,0-2.326,2.326v36.878a2.328,2.328,0,0,0,2.326,2.326h30.087a2.328,2.328,0,0,0,2.326-2.326V84.276a2.328,2.328,0,0,0-2.326-2.326h-4.833v2.326a1.018,1.018,0,0,1-1.017,1.017H101.941a1.018,1.018,0,0,1-1.017-1.017V81.95Zm6.867,1.309H119.31V78.607h-4.833a1.018,1.018,0,0,1-1.017-1.017v-.1a2.326,2.326,0,1,0-4.652,0V77.6a1.017,1.017,0,0,1-1.014,1.017l-4.836-.012Z" transform="translate(-56.134 -44.749)" fill="#494545"/>
    <path id="Path_54884" data-name="Path 54884" d="M158.066,175.207a1.01,1.01,0,0,1-.719-.3l-1.788-1.788-1.788,1.788a1.017,1.017,0,0,1-1.438-1.439l1.788-1.788-1.788-1.788a1.017,1.017,0,1,1,1.438-1.439l1.789,1.788,1.788-1.788a1.017,1.017,0,0,1,1.439,1.439L157,171.682l1.789,1.788a1.017,1.017,0,0,1-.719,1.737" transform="translate(-93.036 -102.903)" fill="#494545"/>
    <path id="Path_54885" data-name="Path 54885" d="M120.745,143.576a1.018,1.018,0,0,1-1.017-1.017v-.835a10.352,10.352,0,0,1,2.7-7.316,22.731,22.731,0,0,1,5.54-4.028c3.653-2.129,6.808-3.967,6.808-8.715v-1.723l-1.607,1.607a1.017,1.017,0,0,1-1.439-1.438l3.343-3.343a1.017,1.017,0,0,1,1.439,0l3.343,3.343a1.017,1.017,0,1,1-1.438,1.439l-1.607-1.607v1.723c0,5.916-3.975,8.232-7.818,10.472-3.716,2.166-7.226,4.212-7.226,9.586v.835a1.018,1.018,0,0,1-1.017,1.017" transform="translate(-73.267 -71.273)" fill="#494545"/>
    <path id="Path_54886" data-name="Path 54886" d="M115.473,127.342a4.36,4.36,0,1,1,4.36-4.36,4.365,4.365,0,0,1-4.36,4.36m0-6.686a2.326,2.326,0,1,0,2.326,2.326,2.328,2.328,0,0,0-2.326-2.326" transform="translate(-67.995 -72.59)" fill="#494545"/>
  </g>
</svg>
