<svg id="Group_1683" data-name="Group 1683" xmlns="http://www.w3.org/2000/svg" xmlns:xlink="http://www.w3.org/1999/xlink" width="118.33" height="29.998" viewBox="0 0 118.33 29.998">
  <defs>
    <clipPath id="clip-path">
      <rect id="Rectangle_377" data-name="Rectangle 377" width="118.33" height="29.997" fill="none"/>
    </clipPath>
  </defs>
  <g id="Group_1682" data-name="Group 1682" clip-path="url(#clip-path)">
    <path id="Path_55213" data-name="Path 55213" d="M15.836,29.975A15.034,15.034,0,0,1,13.558,0a.547.547,0,0,1,.591.506l.042.548a.539.539,0,0,1-.485.57,13.394,13.394,0,1,0,14.7,13.036.556.556,0,0,1,.506-.57l.548-.042a.521.521,0,0,1,.57.527,15.013,15.013,0,0,1-14.2,15.4" transform="translate(0 0)"/>
    <path id="Path_55214" data-name="Path 55214" d="M31.108,40.9v-.548a.554.554,0,0,1,.527-.548,9.1,9.1,0,1,0-9.619-9.6.554.554,0,0,1-.548.527H20.92a.555.555,0,0,1-.548-.591,10.784,10.784,0,0,1,11.18-10.167A11.064,11.064,0,0,1,41.887,30.31,10.784,10.784,0,0,1,31.72,41.49a.594.594,0,0,1-.612-.591" transform="translate(-16.073 -15.755)"/>
    <path id="Path_55215" data-name="Path 55215" d="M49.064,54.747a5.933,5.933,0,1,1,3.755-10.526.549.549,0,0,1,.042.8l-.38.38a.573.573,0,0,1-.738.042,4.311,4.311,0,1,0,0,6.771.552.552,0,0,1,.738.042l.38.38a.533.533,0,0,1-.042.8,6.023,6.023,0,0,1-3.755,1.308" transform="translate(-34.029 -33.841)"/>
    <path id="Path_55216" data-name="Path 55216" d="M283.909,43.106a3.48,3.48,0,1,1,0,6.961h-1.582a.155.155,0,0,0-.169.169v4.155a.333.333,0,0,1-.337.337h-.907a.333.333,0,0,1-.338-.337V43.444a.333.333,0,0,1,.338-.338Zm-1.561,1.582a.155.155,0,0,0-.169.169v3.48a.155.155,0,0,0,.169.169h1.582a1.9,1.9,0,1,0,0-3.8h-1.582Z" transform="translate(-221.392 -34.013)"/>
    <path id="Path_55217" data-name="Path 55217" d="M312.158,61.249a3.406,3.406,0,0,1,6.792,0,21.291,21.291,0,0,1,0,2.32,3.406,3.406,0,0,1-6.792,0,21.276,21.276,0,0,1,0-2.32m1.5,2.32a1.915,1.915,0,0,0,3.8,0,21.291,21.291,0,0,0,0-2.32,1.915,1.915,0,0,0-3.8,0,21.291,21.291,0,0,0,0,2.32" transform="translate(-246.287 -45.849)"/>
    <path id="Path_55218" data-name="Path 55218" d="M353.867,60.833h-.823a.333.333,0,0,1-.337-.337c0-.591-.443-1.076-1.54-1.076-1.034,0-1.455.506-1.455.991,0,.654.654.865,1.455,1.012,1.392.253,3.27.527,3.27,2.552,0,1.772-1.54,2.658-3.27,2.658-1.666,0-3.291-.823-3.291-2.658v-.211a.333.333,0,0,1,.338-.338h.823a.333.333,0,0,1,.337.338v.211c0,.991,1.034,1.223,1.793,1.223.886,0,1.772-.232,1.772-1.223,0-.675-.823-.865-1.772-1.055-1.371-.274-3-.633-3-2.51,0-1.5,1.5-2.4,3-2.4,1.54,0,3.037.907,3.037,2.489a.347.347,0,0,1-.338.337" transform="translate(-274.496 -45.77)"/>
    <path id="Path_55219" data-name="Path 55219" d="M384.307,47.686a.333.333,0,0,1,.337.338v.823a.333.333,0,0,1-.337.337h-1.9a.155.155,0,0,0-.169.169v3.9c0,.738.316,1.2,1.329,1.2h.907a.333.333,0,0,1,.338.337v.78a.333.333,0,0,1-.338.337h-.907c-1.73,0-2.826-.738-2.826-2.658v-3.9a.155.155,0,0,0-.169-.169h-1.16a.333.333,0,0,1-.337-.337v-.823a.333.333,0,0,1,.337-.338h1.16a.155.155,0,0,0,.169-.169V44.943a.333.333,0,0,1,.337-.338h.823a.333.333,0,0,1,.338.338v2.573a.155.155,0,0,0,.169.169Z" transform="translate(-299.115 -35.197)"/>
    <path id="Path_55220" data-name="Path 55220" d="M408.579,44.857v9.534a.333.333,0,0,1-.338.337h-.907a.333.333,0,0,1-.338-.337V44.857a.155.155,0,0,0-.169-.169h-2.215a.333.333,0,0,1-.337-.338v-.907a.333.333,0,0,1,.337-.338h6.307a.333.333,0,0,1,.338.338v.907a.333.333,0,0,1-.338.338h-2.194a.163.163,0,0,0-.148.169" transform="translate(-318.999 -34.013)"/>
    <path id="Path_55221" data-name="Path 55221" d="M439.463,60.283a2.284,2.284,0,0,0-2.489,2.51v3.987a.333.333,0,0,1-.337.337h-.823a.333.333,0,0,1-.338-.337V59.143a.333.333,0,0,1,.338-.337h.57c.19,0,.274.105.337.337.042.211.042.591.3.591.4,0,.675-.907,2.447-.907h.337a.333.333,0,0,1,.337.337v.823a.333.333,0,0,1-.337.337h-.337Z" transform="translate(-343.618 -46.402)"/>
    <path id="Path_55222" data-name="Path 55222" d="M459.332,60.39c0,.274-.232.274-.38.274h-.738c-.253,0-.337-.127-.337-.337,0-1.54,1.6-2.32,3-2.32,1.877,0,3.038.823,3.038,2.658v5.484a.333.333,0,0,1-.337.337H463a.3.3,0,0,1-.232-.105c-.105-.127-.169-.359-.337-.359-.3,0-.717.633-1.941.633-2.046,0-3.016-1.245-3.016-2.658a2.519,2.519,0,0,1,2.742-2.531h2.025a.155.155,0,0,0,.169-.169v-.633c0-.886-.612-1.329-1.54-1.329-.57,0-1.54.253-1.54,1.055m.886,2.447c-.844,0-1.245.443-1.245,1.139,0,.823.506,1.287,1.477,1.287,1.519,0,2.088-.612,2.088-1.751v-.527a.155.155,0,0,0-.169-.169h-2.152Z" transform="translate(-360.978 -45.77)"/>
    <path id="Path_55223" data-name="Path 55223" d="M492.058,51.26a21.291,21.291,0,0,1,0-2.32A3.221,3.221,0,0,1,495.2,45.8c.759,0,1.2.422,1.54.422.253,0,.359-.105.359-.422V42.843a.333.333,0,0,1,.337-.337h.823a.333.333,0,0,1,.338.337V53.918a.333.333,0,0,1-.338.337h-.57a.3.3,0,0,1-.232-.105.626.626,0,0,0-.422-.274c-.485,0-.633.548-1.856.548a3.236,3.236,0,0,1-3.122-3.164m1.413,0a1.915,1.915,0,0,0,3.8,0,21.322,21.322,0,0,0,0-2.32,1.915,1.915,0,0,0-3.8,0,14.214,14.214,0,0,0,0,2.32" transform="translate(-388.24 -33.54)"/>
    <path id="Path_55224" data-name="Path 55224" d="M530.682,62.973a.155.155,0,0,0-.169.169c0,1.519.78,2.173,1.919,2.173a1.662,1.662,0,0,0,1.709-1.055.371.371,0,0,1,.38-.274h.844a.261.261,0,0,1,.274.337,2.989,2.989,0,0,1-3.185,2.489,3.293,3.293,0,0,1-3.4-3.143,21.291,21.291,0,0,1,0-2.32,3.279,3.279,0,0,1,3.4-3.143,3.08,3.08,0,0,1,3.312,3.312v1.139a.333.333,0,0,1-.338.337h-4.746Zm-.127-1.5a.155.155,0,0,0,.169.169h3.459a.155.155,0,0,0,.169-.169,1.766,1.766,0,0,0-1.877-1.814,1.8,1.8,0,0,0-1.919,1.814" transform="translate(-417.435 -45.928)"/>
    <path id="Path_55225" data-name="Path 55225" d="M185.947,54.472a5.981,5.981,0,1,1,3.776-10.61.55.55,0,0,1,.042.8l-.4.4a.573.573,0,0,1-.738.042,4.34,4.34,0,1,0,0,6.813.552.552,0,0,1,.738.042l.4.4a.532.532,0,0,1-.042.8,6.258,6.258,0,0,1-3.776,1.308" transform="translate(-141.993 -33.546)"/>
    <path id="Path_55226" data-name="Path 55226" d="M237.262,50.864a3.936,3.936,0,0,1-1.287,2.89,4.22,4.22,0,0,1-2.595.949,3.731,3.731,0,0,1-2.616-.928,5.327,5.327,0,0,1-.865-.928c-.232-.316.148-.527.274-.633l.633-.485a.277.277,0,0,1,.253-.063.448.448,0,0,1,.211.19,3.005,3.005,0,0,0,.654.7,2.186,2.186,0,0,0,1.434.527,2.134,2.134,0,0,0,1.455-.527,2.218,2.218,0,0,0,.717-1.687,2.258,2.258,0,0,0-.675-1.687,2.158,2.158,0,0,0-1.5-.548,2.617,2.617,0,0,0-.865.169.344.344,0,0,1-.422-.148l-.506-.844a.323.323,0,0,1,.063-.422L234.33,45a.339.339,0,0,0-.232-.591h-3.734a.333.333,0,0,1-.337-.338v-.928a.333.333,0,0,1,.337-.337h6.349a.333.333,0,0,1,.337.337v1.139a.339.339,0,0,1-.105.232l-2.32,2.236a.341.341,0,0,0,.148.57,3.426,3.426,0,0,1,2.489,3.544" transform="translate(-181.348 -33.777)"/>
  </g>
</svg>
