<svg xmlns="http://www.w3.org/2000/svg" xmlns:xlink="http://www.w3.org/1999/xlink" width="81.94" height="35.412" viewBox="0 0 81.94 35.412">
  <defs>
    <clipPath id="clip-path">
      <rect id="Rectangle_374" data-name="Rectangle 374" width="81.94" height="35.412" fill="none"/>
    </clipPath>
  </defs>
  <g id="Group_1679" data-name="Group 1679" transform="translate(0)">
    <path id="Path_55183" data-name="Path 55183" d="M3.083,8.747h1.04V1.58H3.083ZM0,.925H7.206V0H0Z" transform="translate(0)"/>
    <path id="Path_55184" data-name="Path 55184" d="M44.9,8.766h1.04V0H44.9ZM50.853,0V3.622H46.6v.925h4.258V8.766h1.04V0Z" transform="translate(-36.25)"/>
    <path id="Path_55185" data-name="Path 55185" d="M95.376,4.508h2.871V3.622H95.376ZM93.7,0V8.747h5.78V7.822H94.74V.925h4.566V0Z" transform="translate(-75.648)"/>
    <g id="Group_1678" data-name="Group 1678" transform="translate(0)">
      <g id="Group_1677" data-name="Group 1677" clip-path="url(#clip-path)">
        <path id="Path_55186" data-name="Path 55186" d="M4,68.8H9.761v1.618H5.792v7.129H4Zm2.331,3.815h2.7v1.618h-2.7V72.615" transform="translate(-3.229 -55.545)"/>
        <path id="Path_55187" data-name="Path 55187" d="M39.73,72.37a2.79,2.79,0,0,0,2.832,2.967A3.279,3.279,0,0,0,44.8,74.47V76.4a4.264,4.264,0,0,1-2.235.617A4.557,4.557,0,0,1,37.9,72.466a4.182,4.182,0,0,1,1.85-3.506v3.41Zm7.475.1a4.182,4.182,0,0,1-1.85,3.506V72.543a2.79,2.79,0,0,0-2.832-2.967,3.279,3.279,0,0,0-2.235.867V68.517a4.264,4.264,0,0,1,2.235-.617,4.6,4.6,0,0,1,4.682,4.566" transform="translate(-30.598 -54.818)"/>
        <path id="Path_55188" data-name="Path 55188" d="M93.33,72.37a2.79,2.79,0,0,0,2.832,2.967A3.279,3.279,0,0,0,98.4,74.47V76.4a4.264,4.264,0,0,1-2.235.617A4.557,4.557,0,0,1,91.5,72.466a4.182,4.182,0,0,1,1.85-3.506v3.41Zm7.456.1a4.182,4.182,0,0,1-1.85,3.506V72.543A2.79,2.79,0,0,0,96.1,69.576a3.279,3.279,0,0,0-2.235.867V68.517A4.264,4.264,0,0,1,96.1,67.9a4.59,4.59,0,0,1,4.682,4.566" transform="translate(-73.871 -54.818)"/>
        <path id="Path_55189" data-name="Path 55189" d="M142.3,68.8h7.4v1.618h-7.4Zm2.794,2.177h1.792v6.57h-1.792Z" transform="translate(-114.884 -55.545)"/>
        <path id="Path_55190" data-name="Path 55190" d="M193.154,71.632a2.879,2.879,0,0,1-3.16,2.832h-.944V72.9h.944a1.264,1.264,0,1,0,0-2.524h-1.5v7.186H186.7V68.8h3.295a2.858,2.858,0,0,1,3.16,2.832" transform="translate(-150.73 -55.545)"/>
        <path id="Path_55191" data-name="Path 55191" d="M227.7,68.8h3.295a2.849,2.849,0,1,1,0,5.664h-.944v-1.58h.944a1.255,1.255,0,1,0,0-2.5h-1.5v7.167H227.7Zm3.506,6.242,1.773-.366,2.1,2.89h-2.023Z" transform="translate(-183.83 -55.545)"/>
        <rect id="Rectangle_372" data-name="Rectangle 372" width="1.792" height="8.747" transform="translate(52.347 13.255)"/>
        <path id="Path_55192" data-name="Path 55192" d="M291.4,69.911V68.1h.578l6.878,7.244v1.83h-.6Zm0,.848,1.792,1.83V77H291.4Zm5.664,1.869V68.235h1.792v6.242Z" transform="translate(-235.258 -54.98)"/>
        <path id="Path_55193" data-name="Path 55193" d="M336.2,68.8h7.4v1.618h-7.4Zm2.794,2.177h1.792v6.57h-1.792Z" transform="translate(-271.426 -55.545)"/>
        <path id="Path_55194" data-name="Path 55194" d="M377.5,75.229l1.233-.925a2.429,2.429,0,0,0,2.813,1.175v1.6a2.349,2.349,0,0,1-.616.077,3.8,3.8,0,0,1-3.429-1.927m4.643-.424c0-.79-.424-.983-1.117-1.291l-.944-.424c-1.252-.578-2.119-1.291-2.119-2.524a2.324,2.324,0,0,1,1.811-2.254v2c0,.713.385.925,1.021,1.214l1,.443c1.387.617,2.158,1.31,2.158,2.562a2.407,2.407,0,0,1-1.811,2.37Zm-1.31-5.125a1.557,1.557,0,0,0-.482.077v-1.6a2.5,2.5,0,0,1,.5-.058,3.2,3.2,0,0,1,2.909,1.657l-1.214.944a1.977,1.977,0,0,0-1.715-1.021" transform="translate(-304.769 -54.98)"/>
        <path id="Path_55195" data-name="Path 55195" d="M5,137.7h5.472v.925H6.04v7.822H5Zm1.676,3.93H9.72v.963H6.676Z" transform="translate(-4.037 -111.17)"/>
        <path id="Path_55196" data-name="Path 55196" d="M38.86,141.469a3.462,3.462,0,0,0,3.468,3.6,3.94,3.94,0,0,0,2.832-1.252v1.214a4.338,4.338,0,0,1-2.813.983A4.487,4.487,0,0,1,37.8,141.45a4.093,4.093,0,0,1,1.079-2.851v2.871Zm8.015.077a4.081,4.081,0,0,1-1.06,2.851v-2.851a3.462,3.462,0,0,0-3.468-3.6,3.825,3.825,0,0,0-2.813,1.252v-1.214A4.247,4.247,0,0,1,42.328,137a4.459,4.459,0,0,1,4.547,4.547" transform="translate(-30.517 -110.604)"/>
        <path id="Path_55197" data-name="Path 55197" d="M93.8,142.979V137.7h1.04v5.337a2.351,2.351,0,0,0,2.447,2.6,3.218,3.218,0,0,0,1.772-.539v1.04a3.391,3.391,0,0,1-1.772.443,3.329,3.329,0,0,1-3.487-3.6m5.915-5.279h1.04v5.279a3.356,3.356,0,0,1-1.04,2.678V137.7" transform="translate(-75.728 -111.17)"/>
        <path id="Path_55198" data-name="Path 55198" d="M141.8,137.979V136.9h.366l6.608,7.957v1.079h-.366Zm0,1.04,1.04,1.252V145.8H141.8Zm5.934,3.564v-5.549h1.04V143.8Z" transform="translate(-114.48 -110.524)"/>
        <path id="Path_55199" data-name="Path 55199" d="M191.54,146.447H190.5V137.7h1.04Zm6.319-4.412c0,2.524-1.792,4.412-4.759,4.412h-.925v-.925h.906a3.393,3.393,0,0,0,3.7-3.468,3.355,3.355,0,0,0-3.7-3.429h-.906V137.7h.906c2.986,0,4.778,1.811,4.778,4.335" transform="translate(-153.798 -111.17)"/>
        <path id="Path_55200" data-name="Path 55200" d="M236.063,138.576l.539,1.291-1.387,3.237h2.794l.4.925H234.83l-.751,1.772H233Zm.347-.848.366-.828h.385l3.8,8.9h-1.1Z" transform="translate(-188.109 -110.524)"/>
        <path id="Path_55201" data-name="Path 55201" d="M272.5,137.7h7.206v.925H272.5Zm3.083,1.58h1.04v7.167h-1.04Z" transform="translate(-219.999 -111.17)"/>
        <rect id="Rectangle_373" data-name="Rectangle 373" width="1.04" height="8.747" transform="translate(61.171 26.53)"/>
        <path id="Path_55202" data-name="Path 55202" d="M333.46,141.469a3.462,3.462,0,0,0,3.468,3.6,3.94,3.94,0,0,0,2.832-1.252v1.214a4.338,4.338,0,0,1-2.813.983,4.487,4.487,0,0,1-4.547-4.566,4.093,4.093,0,0,1,1.079-2.851v2.871Zm8.015.077a4.081,4.081,0,0,1-1.06,2.851v-2.851a3.462,3.462,0,0,0-3.468-3.6,3.825,3.825,0,0,0-2.813,1.252v-1.214a4.247,4.247,0,0,1,2.794-.983,4.471,4.471,0,0,1,4.547,4.547" transform="translate(-268.359 -110.604)"/>
        <path id="Path_55203" data-name="Path 55203" d="M389,137.979V136.9h.366l6.608,7.957v1.079h-.366Zm0,1.04,1.04,1.252V145.8H389Zm5.953,3.564v-5.549h1.04V143.8Z" transform="translate(-314.054 -110.524)"/>
      </g>
    </g>
  </g>
</svg>
