<svg id="Group_1662" data-name="Group 1662" xmlns="http://www.w3.org/2000/svg" xmlns:xlink="http://www.w3.org/1999/xlink" width="95.606" height="28.231" viewBox="0 0 95.606 28.231">
  <defs>
    <clipPath id="clip-path">
      <rect id="Rectangle_358" data-name="Rectangle 358" width="95.606" height="28.231" fill="none"/>
    </clipPath>
  </defs>
  <g id="Group_1661" data-name="Group 1661" clip-path="url(#clip-path)">
    <path id="Path_55008" data-name="Path 55008" d="M282.826,43.634c0,2.339-1.488,2.953-2.759,2.953-.965,0-2.566-.375-2.566-1.59a.86.86,0,0,1,.784-.852c.556,0,1.045.511,1.669.511.784,0,.784-.727.784-1.17v-6a1.046,1.046,0,1,1,2.09,0Z" transform="translate(-245.987 -32.266)"/>
    <path id="Path_55009" data-name="Path 55009" d="M336.623,59.713a1.005,1.005,0,1,1,2,0V63.3a1.295,1.295,0,0,0,2.589,0V59.713a1.005,1.005,0,1,1,2,0v3.623c0,1.783-1.181,2.93-3.3,2.93s-3.3-1.147-3.3-2.93V59.713Z" transform="translate(-298.376 -51.945)"/>
    <path id="Path_55010" data-name="Path 55010" d="M407.756,60.139c-.375,0-1.147-.591-1.794-.591-.363,0-.681.17-.681.556,0,.931,3.486.795,3.486,3.089,0,1.34-1.136,2.362-2.862,2.362-1.136,0-2.8-.647-2.8-1.544a.951.951,0,0,1,.863-.9c.784,0,1.136.681,2.078.681.613,0,.795-.193.795-.568,0-.92-3.486-.784-3.486-3.089a2.44,2.44,0,0,1,2.725-2.339c.988,0,2.51.466,2.51,1.454a.868.868,0,0,1-.829.886" transform="translate(-357.324 -51.236)"/>
    <path id="Path_55011" data-name="Path 55011" d="M457.317,42.977h-.443A.806.806,0,0,1,456,42.1a.854.854,0,0,1,.874-.874h.443V40.013a1.005,1.005,0,1,1,2,0v1.2h.568a.879.879,0,1,1,0,1.749h-.568V47.6a1.005,1.005,0,1,1-2,0Z" transform="translate(-404.217 -34.483)"/>
    <path id="Path_55012" data-name="Path 55012" d="M539.2,37.49a1.046,1.046,0,1,1,2.089,0V44.5h2.487a.936.936,0,0,1,1,1,.965.965,0,0,1-1,.92H540.29a1.036,1.036,0,0,1-1.09-1.147Z" transform="translate(-477.969 -32.266)"/>
    <path id="Path_55013" data-name="Path 55013" d="M594.571,33.1a1.151,1.151,0,0,1-1.136,1.158A1.182,1.182,0,0,1,592.3,33.1a1.164,1.164,0,0,1,1.136-1.1,1.14,1.14,0,0,1,1.136,1.1m-2.135,3.032a1.005,1.005,0,1,1,2,0v5.36a1.005,1.005,0,1,1-2,0Z" transform="translate(-525.039 -28.366)"/>
    <path id="Path_55014" data-name="Path 55014" d="M617.725,60.067a1.414,1.414,0,0,1-.125-.591.965.965,0,0,1,1.045-.977.93.93,0,0,1,.9.715l1.283,3.963h.023l1.283-3.963a.919.919,0,0,1,.9-.715.965.965,0,0,1,1.045.977,1.448,1.448,0,0,1-.125.591l-2.021,5.19c-.193.511-.409.84-1.09.84s-.9-.318-1.09-.84Z" transform="translate(-547.466 -51.857)"/>
    <path id="Path_55015" data-name="Path 55015" d="M682.071,33.1a1.151,1.151,0,0,1-1.136,1.158A1.182,1.182,0,0,1,679.8,33.1a1.164,1.164,0,0,1,1.136-1.1,1.148,1.148,0,0,1,1.136,1.1m-2.135,3.032a1.005,1.005,0,1,1,2,0v5.36a1.005,1.005,0,1,1-2,0Z" transform="translate(-602.602 -28.366)"/>
    <path id="Path_55016" data-name="Path 55016" d="M711,59.092a1.012,1.012,0,0,1,1-1.113.852.852,0,0,1,.92.738,2.161,2.161,0,0,1,1.942-.818,2.568,2.568,0,0,1,2.748,2.7v3.85a1.005,1.005,0,1,1-2,0V60.943a1.3,1.3,0,1,0-2.589,0v3.5a1.005,1.005,0,1,1-2,0V59.092Z" transform="translate(-630.259 -51.325)"/>
    <path id="Path_55017" data-name="Path 55017" d="M786.054,64.807c0,2.419-1.578,3.623-3.861,3.623-.818,0-3.168-.409-3.168-1.51a.977.977,0,0,1,.806-.874c.647,0,1.351.625,2.51.625a1.545,1.545,0,0,0,1.7-1.59V64.6h-.023a2.305,2.305,0,0,1-2.021.954c-2.112,0-3.1-1.851-3.1-3.85,0-2.021,1.283-3.906,3.3-3.906a2.185,2.185,0,0,1,1.84.92.957.957,0,0,1,1-.84,1,1,0,0,1,1,1.113v5.814Zm-3.588-5.167c-1.045,0-1.567,1.09-1.567,2.021,0,1.079.511,2.055,1.567,2.055,1.079,0,1.578-1,1.578-1.976s-.477-2.1-1.578-2.1" transform="translate(-690.448 -51.236)"/>
    <path id="Path_55018" data-name="Path 55018" d="M291.118,163.946a.41.41,0,1,1-.818,0v-5.8a.4.4,0,0,1,.443-.443h2.328a.356.356,0,0,1,.4.386.361.361,0,0,1-.4.386h-1.942v2.169h1.726a.356.356,0,0,1,.4.386.361.361,0,0,1-.4.386h-1.726v2.532Z" transform="translate(-257.334 -139.792)"/>
    <path id="Path_55019" data-name="Path 55019" d="M324.88,171.9a2.561,2.561,0,1,1-2.18,2.532,2.3,2.3,0,0,1,2.18-2.532m0,4.361c1.011,0,1.363-.988,1.363-1.828s-.352-1.828-1.363-1.828-1.363.988-1.363,1.828.363,1.828,1.363,1.828" transform="translate(-286.054 -152.379)"/>
    <path id="Path_55020" data-name="Path 55020" d="M370,172.343a.41.41,0,1,1,.818,0v2.623c0,.852.375,1.295,1.147,1.295s1.147-.443,1.147-1.295v-2.623a.41.41,0,1,1,.818,0V175A1.965,1.965,0,1,1,370,175Z" transform="translate(-327.983 -152.379)"/>
    <path id="Path_55021" data-name="Path 55021" d="M415.8,172.343a.41.41,0,1,1,.818,0v.193l.023.023a1.748,1.748,0,0,1,3.1,1.238v2.748a.41.41,0,1,1-.818,0v-2.7a1.149,1.149,0,1,0-2.294,0v2.7a.41.41,0,1,1-.818,0v-4.2Z" transform="translate(-368.582 -152.379)"/>
    <path id="Path_55022" data-name="Path 55022" d="M462.764,159.275h-.023a1.371,1.371,0,0,1-1.329.681,2.574,2.574,0,0,1,0-5.065,1.643,1.643,0,0,1,1.329.67h.023v-2.419a.41.41,0,1,1,.818,0v6.371a.41.41,0,1,1-.818,0ZM461.48,155.6c-1.011,0-1.363.988-1.363,1.828s.352,1.828,1.363,1.828,1.363-.988,1.363-1.828-.352-1.828-1.363-1.828" transform="translate(-407.142 -135.359)"/>
    <path id="Path_55023" data-name="Path 55023" d="M510.527,176.656a.383.383,0,0,1-.386.4.377.377,0,0,1-.386-.4v-.341h-.023a1.612,1.612,0,0,1-1.351.749,2.561,2.561,0,0,1,0-5.065,1.733,1.733,0,0,1,1.351.659h.023V172.4a.377.377,0,0,1,.386-.4.383.383,0,0,1,.386.4Zm-2.135-.307c1.011,0,1.363-.988,1.363-1.828s-.352-1.828-1.363-1.828-1.363.988-1.363,1.828.363,1.828,1.363,1.828" transform="translate(-448.716 -152.468)"/>
    <path id="Path_55024" data-name="Path 55024" d="M551.849,159.543a.41.41,0,1,1,.818,0v1.067h.341c.273,0,.409.125.409.352s-.136.352-.409.352h-.341v3.872a.41.41,0,1,1-.818,0v-3.872h-.341c-.273,0-.409-.125-.409-.352s.136-.352.409-.352h.341Z" transform="translate(-488.517 -141.033)"/>
    <path id="Path_55025" data-name="Path 55025" d="M578,157.2a.5.5,0,1,1-.5.5.483.483,0,0,1,.5-.5m.409,6.3a.41.41,0,1,1-.818,0v-4.19a.41.41,0,1,1,.818,0Z" transform="translate(-511.916 -139.348)"/>
    <path id="Path_55026" data-name="Path 55026" d="M596.58,171.9a2.561,2.561,0,1,1-2.18,2.532,2.3,2.3,0,0,1,2.18-2.532m0,4.361c1.011,0,1.363-.988,1.363-1.828s-.352-1.828-1.363-1.828-1.363.988-1.363,1.828.352,1.828,1.363,1.828" transform="translate(-526.9 -152.379)"/>
    <path id="Path_55027" data-name="Path 55027" d="M642,172.343a.41.41,0,1,1,.818,0v.193l.023.023a1.748,1.748,0,0,1,3.1,1.238v2.748a.41.41,0,1,1-.818,0v-2.7a1.149,1.149,0,1,0-2.294,0v2.7a.41.41,0,1,1-.818,0v-4.2Z" transform="translate(-569.095 -152.379)"/>
    <path id="Path_55028" data-name="Path 55028" d="M14.115,28.231A14.115,14.115,0,1,1,28.231,14.115,14.115,14.115,0,0,1,14.115,28.231M3.793,5.973c-.318.443.3.772.3.772,1.385.818.829,2.85.829,2.85a3.356,3.356,0,0,0,1.419,3.373c.92.636,1.431,1.079,1.431,1.079a2.282,2.282,0,0,1,.659,2.112,4.5,4.5,0,0,0,.125,2.725A2.931,2.931,0,0,1,8.7,19.7a8.908,8.908,0,0,1-.988,2.839C7.336,23.677,7.995,24,7.995,24c.466.42,1.136-.375,1.136-.375a11.913,11.913,0,0,1,2.317-2.714,5.66,5.66,0,0,0,1.919-1.862c1.2-2.691-2.828-3.906-2.828-3.906a8.8,8.8,0,0,1-2.146-.886C7.256,13.127,10.8,11.629,10.8,11.629c2.612-.9,2.135-2.4,2.135-2.4-.045-1.033-2.294-.647-2.294-.647-1.158.034-.761-.727-.761-.727.42-.852,1.987-.84,1.987-.84,1.045-.193-.193-1.578-.193-1.578-.409-.6.965-2.362.965-2.362.636-1.192-3.089-1-3.089-1-3.645.477-5.757,3.9-5.757,3.9m8.937-1.9a1.191,1.191,0,0,0,.772,1.51c.84.466.261,1.59.261,1.59-.409,1.363.409,1.613.409,1.613.92.432,1.726-.829,1.726-.829a3.106,3.106,0,0,1,1.658-1.192c1.192-.2,1.136-1.613,1.136-1.613.068-1.351-2.748-1.908-2.748-1.908-3.021-.613-3.214.829-3.214.829M18.749,8.29a.806.806,0,0,0-1.067-.261c-.466.182-.738.579-.613.908a.806.806,0,0,0,1.067.261c.466-.182.738-.591.613-.908m-.7,3.055a1.032,1.032,0,0,0,1.079-.829.5.5,0,0,0-.443-.715c-.432.125-.636,1.544-.636,1.544M25.54,9.153a6.345,6.345,0,0,0-3.123,1.306,4.659,4.659,0,0,1-1.51.772,15.08,15.08,0,0,0-3.316,1.215c-.613.341-.307.693-.307.693.193.352,1.919-.1,1.919-.1a.963.963,0,0,1,1.1.522,2.459,2.459,0,0,0,1.022.761c.522.1.454.318.454.318a.412.412,0,0,1-.227.318c-1.056.636-1.953-.784-1.953-.784a1.042,1.042,0,0,0-1.022-.477A3.714,3.714,0,0,0,16.5,15.058a1.316,1.316,0,0,0,.341,1.965c.5.341.772.568.772.568,1.306.965.534,3.123.534,3.123-.715,2.566.9,2.975.9,2.975C20.577,23.9,21.7,20.4,21.7,20.4c.715-1.4,1.113-1.476,1.113-1.476.715-.693-.67-1.749-.67-1.749a.915.915,0,0,1,.034-1.5c.545-.443.647.409.647.409.1.977,1.124.659,1.124.659,1.261-.363,1.613,1.522,1.613,1.522.182.874.625,1,.625,1s.568.159.659-.591c0,0,1.442-5.349-.011-8.437-.023-.023-.568-1.033-1.295-1.079M22.292,22.78c.273-.125.818-1.226.818-1.226.307-.693-.42-.466-.42-.466a1.18,1.18,0,0,0-1.011,1.488c.148.42.613.2.613.2"/>
  </g>
</svg>
