<svg xmlns="http://www.w3.org/2000/svg" xmlns:xlink="http://www.w3.org/1999/xlink" width="74.413" height="56.423" viewBox="0 0 74.413 56.423">
  <defs>
    <clipPath id="clip-path">
      <rect id="Rectangle_368" data-name="Rectangle 368" width="74.413" height="56.423"/>
    </clipPath>
  </defs>
  <g id="Group_1673" data-name="Group 1673" transform="translate(0)">
    <path id="Path_55111" data-name="Path 55111" d="M191.482,2.932l1.955.058-1.415-1.357h-.015L186.2,0Z" transform="translate(-159.032 0.001)"/>
    <path id="Path_55112" data-name="Path 55112" d="M290.951,0,285.13,1.634,283.7,2.991l1.97-.058Z" transform="translate(-242.306 0)"/>
    <path id="Path_55113" data-name="Path 55113" d="M283.33,31.157h0l5.807,1.634-5.267-2.933-.015-.015v.015L281.9,29.8Z" transform="translate(-240.769 -25.452)"/>
    <path id="Path_55114" data-name="Path 55114" d="M190.207,31.157h0L184.4,32.791l5.267-2.933.015-.015v.015l1.955-.058Z" transform="translate(-157.495 -25.452)"/>
    <g id="Group_1672" data-name="Group 1672" transform="translate(0 0)">
      <g id="Group_1671" data-name="Group 1671" clip-path="url(#clip-path)">
        <path id="Path_55115" data-name="Path 55115" d="M172.411,168.81c-4.071-.846-6.741-1.576-9.148-.773-.525.19-.525.175-.992.379l-.1.058s-2.32.992-.73.875h.088c1.78-.2,4.771-.117,9.718.9,9.513,1.97,14.372-1.678,16.313-3.808.015-.015.015-.029.029-.044l.044-.044c.175-.19.321-.379.452-.54.073-.117.088-.175.058-.219-2.262,2.13-7.047,5-15.729,3.21" transform="translate(-137.407 -141.438)"/>
        <path id="Path_55116" data-name="Path 55116" d="M251.29,107.294a.392.392,0,0,0-.394-.394h-.1a.392.392,0,0,0-.394.394v1.065a.224.224,0,0,0,.219.219h.438a.215.215,0,0,0,.219-.219v-1.065" transform="translate(-213.864 -91.302)"/>
        <path id="Path_55117" data-name="Path 55117" d="M231.98,33.136a3.726,3.726,0,0,1,3.006-1.109,5.457,5.457,0,0,1,.992.088s1.269.219,1.313.934c0,0,.029.365-.773.16a1.515,1.515,0,0,1-.175-.044A6.444,6.444,0,0,0,235,33.034a4.419,4.419,0,0,0-2.787.759.471.471,0,0,1-.233-.657m-.029,1.123L230.9,42.722c.35.044.715.1,1.065.16l.569-6.172a1.874,1.874,0,0,1,1.78-1.809s2.48-.365,2.685,1.269c.292,2.378.525,5.88.525,5.88a13.97,13.97,0,0,1,.233,2.086c.511.073,1.021.117,1.532.16L238.02,34.113a.579.579,0,0,0,.2-.131,1.579,1.579,0,0,0,.817-1.24c0-.642-.554-1.2-1.43-1.576l.015-.511a1.263,1.263,0,0,0,.409-.89,1.325,1.325,0,0,0-.409-.89l.029-1.2a1.317,1.317,0,0,0,.379-.861c0-.948-1.211-1.722-2.758-1.809v-.131A.277.277,0,0,0,235,24.6a.268.268,0,0,0-.277.277v.131c-1.561.088-2.772.861-2.772,1.809a1.345,1.345,0,0,0,.423.919c0-.015-.015-.029-.015-.058,0-.861,1.182-1.561,2.626-1.561a3.692,3.692,0,0,1,.817.088,1.239,1.239,0,0,1,.963,1.123s.058.73-1.284.657a.477.477,0,0,0-.2,0,1.956,1.956,0,0,0-.292-.015c-1.678,0-3.049.817-3.049,1.824a1.345,1.345,0,0,0,.423.919c0-.015-.015-.044-.015-.058,0-.861,1.182-1.576,2.626-1.576a4.151,4.151,0,0,1,.744.073c.394.1,1.08.379,1.065,1.051,0,0,.073.642-1.094.525-.233-.015-.481-.029-.715-.029-2.232,0-4.056.934-4.056,2.072a1.725,1.725,0,0,0,.978,1.357c.029.015.044.029.058.029a.12.12,0,0,1,0,.1" transform="translate(-197.21 -21.011)"/>
        <path id="Path_55118" data-name="Path 55118" d="M205.367,161.309a31.909,31.909,0,0,1-8.857-1.255,14.273,14.273,0,0,0-4-.554,8.147,8.147,0,0,0-4.129,1.109c-.146.088-.525.379.131.292a1.991,1.991,0,0,1,.277-.029,17.617,17.617,0,0,1,6.61.73,25.358,25.358,0,0,0,6.785,1.123,14.076,14.076,0,0,0,6.887-1.649,29,29,0,0,1-3.706.233" transform="translate(-160.69 -136.228)"/>
        <path id="Path_55119" data-name="Path 55119" d="M52.49,217.695h0a.872.872,0,0,0,.627-.263.863.863,0,0,0,.277-.627.888.888,0,0,0-1.532-.627.89.89,0,0,0,.627,1.517" transform="translate(-44.071 -184.398)"/>
        <path id="Path_55120" data-name="Path 55120" d="M459.8,236.4a2.519,2.519,0,0,1,.569-.613,2.928,2.928,0,0,1,.759-.409,2.76,2.76,0,0,1,.817-.146,1.629,1.629,0,0,1,.73.146,1.569,1.569,0,0,1,.554.409,1.94,1.94,0,0,1,.365.6,3.241,3.241,0,0,1,.161.569h-4.188a1.413,1.413,0,0,1,.233-.554m4.465,4.946a3.287,3.287,0,0,1-.861.467,2.671,2.671,0,0,1-.963.16,2.758,2.758,0,0,1-1.269-.292,2.8,2.8,0,0,1-.963-.788,3.808,3.808,0,0,1-.613-1.124,3.915,3.915,0,0,1-.219-1.3c0-.19.015-.365.029-.525h6.011l-.015-.19a5.108,5.108,0,0,0-.277-1.342,3.623,3.623,0,0,0-.642-1.109,2.833,2.833,0,0,0-1.007-.744,3.431,3.431,0,0,0-1.372-.263,3.923,3.923,0,0,0-1.693.365,4.363,4.363,0,0,0-1.372.978,4.591,4.591,0,0,0-1.24,3.108,3.842,3.842,0,0,0,.379,1.693,3.994,3.994,0,0,0,1.007,1.3,4.45,4.45,0,0,0,1.444.832,5.011,5.011,0,0,0,1.678.292,3.68,3.68,0,0,0,1.313-.248,4.954,4.954,0,0,0,1.153-.642l.146-.1-.511-.627Z" transform="translate(-391.003 -200.114)"/>
        <path id="Path_55121" data-name="Path 55121" d="M52.893,236.273a1.722,1.722,0,0,1,.131-.54l.1-.233H51.2l.1.233a1.532,1.532,0,0,1,.117.511c.015.19.029.379.029.569v5.6c0,.2,0,.379-.015.54a1.409,1.409,0,0,1-.131.481l-.1.233h1.926l-.1-.233a1.722,1.722,0,0,1-.131-.54c-.015-.2-.015-.409-.015-.613v-5.4a4.3,4.3,0,0,1,.015-.613" transform="translate(-43.729 -201.139)"/>
        <path id="Path_55122" data-name="Path 55122" d="M5.588,224.272a2.908,2.908,0,0,1-.715.088H1.809v-9.076c0-.175,0-.365.015-.54a1.618,1.618,0,0,1,.117-.511l.1-.233H0l.117.248a1.552,1.552,0,0,1,.131.511c.015.2.015.409.015.613v8.711c0,.19,0,.379-.015.525a1.988,1.988,0,0,1-.117.467l-.117.233H6.187l.044-.117.409-1.255-.321.117a6.925,6.925,0,0,1-.73.219" transform="translate(0 -182.776)"/>
        <path id="Path_55123" data-name="Path 55123" d="M191.217,233.936a2.505,2.505,0,0,1-1.021.2,1.48,1.48,0,0,1-.934-.277.955.955,0,0,1-.365-.846v-5.194h3.137v-.948H188.9V225.4l-1.634.423.058.16a3.548,3.548,0,0,1,.146.89H187v.948h.482v4.917a2.269,2.269,0,0,0,2.451,2.451,3.966,3.966,0,0,0,1.138-.161,2.979,2.979,0,0,0,1.065-.5l.058-.044.015-.073.248-1.5-.379.423a2.86,2.86,0,0,1-.861.6" transform="translate(-159.715 -192.512)"/>
        <path id="Path_55124" data-name="Path 55124" d="M295.308,240.005a2.723,2.723,0,0,1-.482,1.036,2.238,2.238,0,0,1-.875.657,3.787,3.787,0,0,1-1.4.233,2.388,2.388,0,0,1-1.167-.292,3.369,3.369,0,0,1-.919-.773,3.878,3.878,0,0,1-.6-1.08,3.541,3.541,0,0,1-.219-1.211,6.625,6.625,0,0,1,.146-1.386,2.487,2.487,0,0,1,.482-1.051,2.107,2.107,0,0,1,.875-.657,3.386,3.386,0,0,1,1.386-.233h.015a2.388,2.388,0,0,1,1.167.292,3.164,3.164,0,0,1,.919.773,3.409,3.409,0,0,1,.6,1.08,3.605,3.605,0,0,1,.219,1.211,5.82,5.82,0,0,1-.146,1.4m.365-4.582a5.173,5.173,0,0,0-1.43-.832,4.991,4.991,0,0,0-1.663-.292,4.363,4.363,0,0,0-1.751.35,4.487,4.487,0,0,0-2.378,2.364,4.364,4.364,0,0,0-.35,1.751,3.55,3.55,0,0,0,.379,1.678,3.939,3.939,0,0,0,1.007,1.284,4.832,4.832,0,0,0,1.43.832,4.946,4.946,0,0,0,1.678.292,4.467,4.467,0,0,0,1.751-.35,4.794,4.794,0,0,0,1.43-.948,4.507,4.507,0,0,0,.963-1.415,4.363,4.363,0,0,0,.35-1.751,3.633,3.633,0,0,0-.379-1.678,4.717,4.717,0,0,0-1.036-1.284" transform="translate(-246.064 -200.114)"/>
        <path id="Path_55125" data-name="Path 55125" d="M137.143,219.762c0-.277-.015-.54-.015-.788v-4.363a2.269,2.269,0,0,0-.233-1.08,1.886,1.886,0,0,0-.627-.686,2.525,2.525,0,0,0-.89-.35,4.709,4.709,0,0,0-1.036-.1,3.071,3.071,0,0,0-1.007.19,4.783,4.783,0,0,0-.934.5,6.029,6.029,0,0,0-.8.686c-.117.117-.2.233-.306.35V210.19a5.981,5.981,0,0,1,.029-.715,2.385,2.385,0,0,1,.131-.657l.088-.219H129.6l.1.233a1.736,1.736,0,0,1,.131.525c.015.19.015.394.015.6v9.5c0,.19-.015.365-.029.525a2.294,2.294,0,0,1-.117.481l-.1.233h1.926l-.1-.233a1.735,1.735,0,0,1-.131-.525c-.015-.19-.015-.394-.015-.6V216.3a2.179,2.179,0,0,1,.263-.963,3.661,3.661,0,0,1,.686-.948,3.9,3.9,0,0,1,.919-.715,2.084,2.084,0,0,1,.963-.263,1.583,1.583,0,0,1,1.124.409,1.53,1.53,0,0,1,.423,1.109v4.538c0,.19,0,.365-.015.525a2.293,2.293,0,0,1-.117.481l-.1.233h1.926l-.1-.233a2.819,2.819,0,0,1-.1-.715" transform="translate(-110.69 -178.163)"/>
        <path id="Path_55126" data-name="Path 55126" d="M236.8,219.677c0-.277-.015-.54-.015-.788v-4.363a2.414,2.414,0,0,0-.219-1.08,1.886,1.886,0,0,0-.627-.686,2.526,2.526,0,0,0-.89-.35,4.708,4.708,0,0,0-1.036-.1,3.07,3.07,0,0,0-1.007.19,4.673,4.673,0,0,0-.919.5,6.03,6.03,0,0,0-.8.686c-.117.117-.2.233-.306.35V210.1c0-.233.015-.467.029-.715a1.959,1.959,0,0,1,.146-.657l.088-.233H229.3l.1.233a1.736,1.736,0,0,1,.131.525c.015.2.015.394.015.6v9.5c0,.19-.015.365-.029.525a2.293,2.293,0,0,1-.117.482l-.1.233h1.926l-.1-.233a1.736,1.736,0,0,1-.131-.525c-.015-.2-.015-.394-.015-.6V216.2a2.179,2.179,0,0,1,.263-.963,3.662,3.662,0,0,1,.686-.948,3.9,3.9,0,0,1,.919-.715,2.083,2.083,0,0,1,.963-.263,1.583,1.583,0,0,1,1.123.409,1.473,1.473,0,0,1,.423,1.109v4.538c0,.19,0,.365-.015.525a1.71,1.71,0,0,1-.131.481l-.088.233h1.911l-.088-.233a1.819,1.819,0,0,1-.146-.7" transform="translate(-195.843 -178.078)"/>
        <path id="Path_55127" data-name="Path 55127" d="M75.682,239.038a2.36,2.36,0,0,1-.2.875,3.808,3.808,0,0,1-.54.9,3.369,3.369,0,0,1-.759.686,1.547,1.547,0,0,1-.832.263,1.665,1.665,0,0,1-.963-.263,2.269,2.269,0,0,1-.657-.686,3.007,3.007,0,0,1-.379-.948,4.223,4.223,0,0,1-.117-1.021,5.4,5.4,0,0,1,.161-1.313,3.144,3.144,0,0,1,.511-1.094,2.653,2.653,0,0,1,.861-.744,2.767,2.767,0,0,1,1.269-.277,2.4,2.4,0,0,1,.875.146,6.712,6.712,0,0,1,.773.321v3.152m1.5-3.794c-.5-.175-.992-.336-1.517-.5a5.5,5.5,0,0,0-1.6-.248,4.692,4.692,0,0,0-1.838.35,3.883,3.883,0,0,0-1.372.963,3.95,3.95,0,0,0-.861,1.459,5.23,5.23,0,0,0-.292,1.809,4.863,4.863,0,0,0,.19,1.372,3.629,3.629,0,0,0,.569,1.226,3.221,3.221,0,0,0,.978.9,2.68,2.68,0,0,0,1.386.35,3.02,3.02,0,0,0,1.065-.175,2.91,2.91,0,0,0,.832-.467,4.172,4.172,0,0,0,.671-.671c.1-.117.19-.248.292-.379l-.044,1.051a3.916,3.916,0,0,1-.409,1.488.512.512,0,0,1-.073.117,5.057,5.057,0,0,0,1.911-1.576c.015-.117.029-.219.044-.35.015-.263.015-.554.015-.861v-4.99a1.309,1.309,0,0,1,.16-.642l.088-.175Z" transform="translate(-59.53 -200.284)"/>
        <path id="Path_55128" data-name="Path 55128" d="M25.192,340.7c.073-.306-.117-.2-.248-.1-.73.744-2.553,1.955-6.289,1.474-5.326-.671-7.587.263-8.652,1.138l-.161.131s-1.065.963-.248.569a1.35,1.35,0,0,0,.146-.073c1.736-.832,5.515-.452,8.638-.029,5.895.817,6.712-2.889,6.712-2.889a.508.508,0,0,0,.1-.219" transform="translate(-7.932 -290.818)"/>
        <path id="Path_55129" data-name="Path 55129" d="M397.005,339.7c-.073-.306.117-.2.248-.1.729.744,2.553,1.955,6.289,1.474,5.326-.671,8.127.409,9.192,1.284l.161.131s1.065.963.248.569a1.356,1.356,0,0,1-.146-.073c-1.751-.832-6.055-.6-9.178-.175-5.895.817-6.712-2.889-6.712-2.889a1.008,1.008,0,0,1-.1-.219" transform="translate(-339.065 -289.964)"/>
        <path id="Path_55130" data-name="Path 55130" d="M358.526,241.98c0,.161.015.336.029.5.015.088.029.175.044.277,0,.365.511.788,1.2,1.051a2.182,2.182,0,0,0,1.021.146l-.423-.627a2,2,0,0,1-.336-.875,7.93,7.93,0,0,1-.073-.978V236.8c0-.219,0-.423.015-.613a1.69,1.69,0,0,1,.131-.554l.088-.233h-1.926l.1.233a1.736,1.736,0,0,1,.131.525c.015.2.015.394.015.6v3.049a2.084,2.084,0,0,1-.263.963,4.232,4.232,0,0,1-.686.948,3.9,3.9,0,0,1-.919.715,2.084,2.084,0,0,1-.963.263,1.473,1.473,0,0,1-1.109-.423,1.519,1.519,0,0,1-.423-1.109V236.8c0-.219,0-.423.015-.613a2.168,2.168,0,0,1,.131-.554l.088-.233H352.5l.1.233a1.837,1.837,0,0,1,.131.715c0,.277.015.54.015.788V241.5a2.229,2.229,0,0,0,.233,1.08,1.886,1.886,0,0,0,.627.686,2.837,2.837,0,0,0,.89.35,5.8,5.8,0,0,0,1.036.1,3.071,3.071,0,0,0,1.007-.19,4.787,4.787,0,0,0,.934-.5,5.108,5.108,0,0,0,.788-.686,1.537,1.537,0,0,1,.263-.365" transform="translate(-301.067 -201.053)"/>
        <path id="Path_55131" data-name="Path 55131" d="M415.557,239.017a3.9,3.9,0,0,0-.9-.773,7.733,7.733,0,0,0-1.153-.584c-.409-.16-.773-.336-1.124-.511a3.743,3.743,0,0,1-.832-.554.8.8,0,0,1-.292-.627.744.744,0,0,1,.117-.438.983.983,0,0,1,.321-.277,1.5,1.5,0,0,1,.452-.146,3.194,3.194,0,0,1,.525-.044,3.341,3.341,0,0,1,1.372.277,2.562,2.562,0,0,1,1.065.832l.35.467-.146-1.766-.073-.044a5.749,5.749,0,0,0-1.226-.525,4.7,4.7,0,0,0-1.357-.2,4.285,4.285,0,0,0-.948.1,2.8,2.8,0,0,0-.919.35,2.065,2.065,0,0,0-.686.642,1.674,1.674,0,0,0-.277.978,1.766,1.766,0,0,0,.394,1.167,3.576,3.576,0,0,0,.9.773,8.285,8.285,0,0,0,1.138.569c.409.16.773.336,1.109.5a3.354,3.354,0,0,1,.832.584.99.99,0,0,1,.306.744.848.848,0,0,1-.19.554,1.6,1.6,0,0,1-.525.394,2.691,2.691,0,0,1-.686.219,4.07,4.07,0,0,1-.686.073,3.309,3.309,0,0,1-.73-.088,4.867,4.867,0,0,1-.744-.233,4.384,4.384,0,0,1-.671-.379,3.435,3.435,0,0,1-.54-.482l-.336-.409.088.948a2.634,2.634,0,0,0,1.08,1.255,2.284,2.284,0,0,0,.409.146,5.636,5.636,0,0,0,1.488.2,4.645,4.645,0,0,0,1.138-.16,4.153,4.153,0,0,0,1.109-.467,3.225,3.225,0,0,0,.861-.8,1.97,1.97,0,0,0,.365-1.153,1.79,1.79,0,0,0-.379-1.109" transform="translate(-349.665 -199.943)"/>
        <path id="Path_55132" data-name="Path 55132" d="M209.558,352.448a2.349,2.349,0,0,1-.569.073h-1.517v-3.633c.015-.321.029-.321.19-.438l.54-.35h-2.758l.54.35c.161.117.175.117.175.438v3.969c-.015.306-.029.321-.175.423l-.584.35h4.494l.613-1.838-.511.423a.969.969,0,0,1-.438.233" transform="translate(-175.43 -297.309)"/>
        <path id="Path_55133" data-name="Path 55133" d="M138.885,352.161c-1.269-.015-2-.671-2-1.751a1.644,1.644,0,0,1,1.795-1.722,2.066,2.066,0,0,1,.8.146c.146.058.219.088.5.219l.306.161-.19-1.5-.131-.029a4.648,4.648,0,0,0-1.109-.1c-1.955,0-3.356,1.138-3.356,2.86a2.638,2.638,0,0,0,.948,2.072,3.776,3.776,0,0,0,2.437.773,7.539,7.539,0,0,0,1.138-.1l.1-.015.131-.015.394-1.59-.452.233a2.937,2.937,0,0,1-1.313.365" transform="translate(-115.729 -296.861)"/>
        <path id="Path_55134" data-name="Path 55134" d="M275.7,348.536c.161.117.175.117.19.438v2.5c0,.584-.073.773-.263.963a1.277,1.277,0,0,1-.861.306,1.132,1.132,0,0,1-.978-.423,1.412,1.412,0,0,1-.161-.875v-2.451c.015-.306.029-.321.19-.438l.54-.35H271.6l.54.35c.161.117.175.117.175.438v2.451a3.118,3.118,0,0,0,.175,1.167,1.849,1.849,0,0,0,.379.525,2.442,2.442,0,0,0,1.824.686h.015a2.2,2.2,0,0,0,2.159-1.24,2.408,2.408,0,0,0,.161-1.094v-2.5c.015-.306.029-.321.19-.438l.54-.35h-2.612Z" transform="translate(-231.971 -297.395)"/>
        <path id="Path_55135" data-name="Path 55135" d="M348.537,352.477a3.906,3.906,0,0,1-.73.044h-.336v-1.372h.438a1.347,1.347,0,0,1,.861.175.6.6,0,0,1,.248.525.581.581,0,0,1-.482.627m-1.065-3.268H348c.554.029.671.146.686.423a.319.319,0,0,1-.19.336,1.676,1.676,0,0,1-.773.088h-.233v-.846Zm2.2,1.284a1.064,1.064,0,0,0,.117-.131,1.288,1.288,0,0,0,.248-.773,1.357,1.357,0,0,0-.525-1.109,2.186,2.186,0,0,0-1.372-.379h-2.7l.54.35c.16.117.16.117.175.438v3.969c-.015.306-.029.321-.175.423l-.584.35h2.612a2.627,2.627,0,0,0,1.78-.467,1.658,1.658,0,0,0,.6-1.328,1.405,1.405,0,0,0-.715-1.342" transform="translate(-295.003 -297.309)"/>
        <path id="Path_55136" data-name="Path 55136" d="M33.184,308.792c-.015.1-.015.19-.029.277h-.642v2.393h-.657v-2.393H31.2V308.5h2c0,.1-.015.19-.015.292" transform="translate(-26.648 -263.487)"/>
        <path id="Path_55137" data-name="Path 55137" d="M48.728,309.683v-1.561a.216.216,0,0,0-.015-.1.126.126,0,0,0-.044-.088.235.235,0,0,0-.1-.058.547.547,0,0,0-.16-.015,1.126,1.126,0,0,0-.219.029,1.1,1.1,0,0,0-.19.088v1.707h-.6v-3.239c.088-.015.175-.015.292-.029s.2-.015.306-.015v1.2h.029a1.069,1.069,0,0,1,.292-.2.676.676,0,0,1,.306-.058.711.711,0,0,1,.5.175.731.731,0,0,1,.19.54v1.634Z" transform="translate(-40.484 -261.694)"/>
        <path id="Path_55138" data-name="Path 55138" d="M65.911,313.821V314c0,.073-.015.117-.015.175H64.642v.044a.74.74,0,0,0,.029.19.282.282,0,0,0,.073.131.455.455,0,0,0,.146.073,1.048,1.048,0,0,0,.248.029.654.654,0,0,0,.16-.015.733.733,0,0,0,.175-.029c.058-.015.1-.029.161-.044a.519.519,0,0,0,.131-.058c.029.073.044.161.073.263a2.575,2.575,0,0,1,.058.292.494.494,0,0,1-.175.058c-.073.015-.131.029-.2.044s-.131.015-.2.029-.131.015-.175.015A1.027,1.027,0,0,1,64,314.026a2.012,2.012,0,0,1,.073-.54,1.053,1.053,0,0,1,.2-.379.869.869,0,0,1,.321-.233.967.967,0,0,1,.409-.073,1.076,1.076,0,0,1,.409.073.657.657,0,0,1,.277.2.833.833,0,0,1,.16.321,1.349,1.349,0,0,1,.058.423m-.6-.1v-.058a.556.556,0,0,0-.073-.306.283.283,0,0,0-.248-.1.3.3,0,0,0-.263.131.739.739,0,0,0-.088.409h.671Z" transform="translate(-54.662 -267.16)"/>
        <path id="Path_55139" data-name="Path 55139" d="M87.645,310.889a1.159,1.159,0,0,1-.394.146,2.313,2.313,0,0,1-.423.044,1.244,1.244,0,0,1-.992-.394,1.752,1.752,0,0,1-.336-1.153,1.94,1.94,0,0,1,.1-.686,1.545,1.545,0,0,1,.277-.482.972.972,0,0,1,.409-.277,1.42,1.42,0,0,1,.5-.088,1.1,1.1,0,0,1,.219.015c.073.015.146.015.219.029s.146.029.2.044.117.044.16.058a1.994,1.994,0,0,1-.029.277,1.722,1.722,0,0,1-.058.292,2.269,2.269,0,0,0-.336-.117,1.439,1.439,0,0,0-.35-.044.6.6,0,0,0-.233.044.374.374,0,0,0-.19.146.771.771,0,0,0-.131.292,2.026,2.026,0,0,0-.044.467,1.976,1.976,0,0,0,.044.452,1.1,1.1,0,0,0,.117.292.439.439,0,0,0,.2.161.85.85,0,0,0,.277.044.83.83,0,0,0,.19-.015c.058-.015.131-.029.19-.044a.891.891,0,0,0,.175-.073,1.278,1.278,0,0,0,.146-.088,1.551,1.551,0,0,1,.058.277,2.209,2.209,0,0,0,.029.379" transform="translate(-73.025 -263.06)"/>
        <path id="Path_55140" data-name="Path 55140" d="M104.416,313.911a1.388,1.388,0,0,1-.088.511,1.363,1.363,0,0,1-.219.379,1.069,1.069,0,0,1-.336.233.994.994,0,0,1-.423.073,1.355,1.355,0,0,1-.423-.073.837.837,0,0,1-.336-.219,1.181,1.181,0,0,1-.219-.379,1.465,1.465,0,0,1-.073-.54,1.691,1.691,0,0,1,.073-.5,1.362,1.362,0,0,1,.219-.379.926.926,0,0,1,.336-.233,1.047,1.047,0,0,1,.423-.088,1.356,1.356,0,0,1,.423.073.838.838,0,0,1,.336.219,1.181,1.181,0,0,1,.219.379,1.5,1.5,0,0,1,.088.54m-.642,0a.948.948,0,0,0-.1-.525.369.369,0,0,0-.321-.161.361.361,0,0,0-.306.161.948.948,0,0,0-.1.525,1.249,1.249,0,0,0,.088.54.328.328,0,0,0,.306.16.369.369,0,0,0,.321-.16.872.872,0,0,0,.117-.54" transform="translate(-87.374 -267.074)"/>
        <path id="Path_55141" data-name="Path 55141" d="M121.413,315.149v-1.561a.285.285,0,0,0-.058-.2.365.365,0,0,0-.248-.058.826.826,0,0,0-.409.117v1.707h-.6v-2.276c.088-.015.175-.015.292-.029a2.26,2.26,0,0,1,.306-.015v.233h.029a1.065,1.065,0,0,1,.16-.131,1.35,1.35,0,0,1,.146-.073c.044-.015.1-.029.146-.044s.1-.015.146-.015a.827.827,0,0,1,.263.044,1.046,1.046,0,0,1,.219.117.577.577,0,0,1,.146.219.769.769,0,0,1,.058.336v1.634Z" transform="translate(-102.576 -267.16)"/>
        <path id="Path_55142" data-name="Path 55142" d="M138.234,314.534a.761.761,0,0,1-.073.336.785.785,0,0,1-.2.233,1.051,1.051,0,0,1-.292.131,1.325,1.325,0,0,1-.336.044,1.812,1.812,0,0,1-.394-.044,1.492,1.492,0,0,1-.336-.117,2.373,2.373,0,0,0,.058-.277,1.765,1.765,0,0,1,.073-.263,1.488,1.488,0,0,0,.336.117,1.655,1.655,0,0,0,.365.044.235.235,0,0,0,.161-.044.178.178,0,0,0,.044-.131.13.13,0,0,0-.073-.117.571.571,0,0,0-.19-.073c-.073-.029-.16-.044-.248-.073a.774.774,0,0,1-.248-.117.515.515,0,0,1-.19-.2.7.7,0,0,1-.073-.321.6.6,0,0,1,.088-.336.675.675,0,0,1,.219-.233.992.992,0,0,1,.306-.146,1.47,1.47,0,0,1,.365-.044,1.961,1.961,0,0,1,.277.015,1.722,1.722,0,0,1,.292.058,1.609,1.609,0,0,1-.029.263l-.044.263a.432.432,0,0,0-.146-.029c-.058-.015-.1-.015-.16-.029a.71.71,0,0,0-.175-.015h-.16c-.146,0-.219.058-.219.19a.13.13,0,0,0,.073.117.572.572,0,0,0,.19.073c.073.029.16.044.248.073a1.293,1.293,0,0,1,.248.117.71.71,0,0,1,.19.219.782.782,0,0,1,.058.321" transform="translate(-116.669 -267.245)"/>
        <path id="Path_55143" data-name="Path 55143" d="M151.161,311.931a1.011,1.011,0,0,1-.117.044.432.432,0,0,1-.146.029c-.044.015-.088.015-.131.029s-.088.015-.117.015a.8.8,0,0,1-.6-.2.851.851,0,0,1-.19-.627v-1.007H149.6v-.525h.263V309.2c.088-.015.19-.044.292-.058l.306-.044v.569h.6v.263a1.606,1.606,0,0,1-.029.263h-.569v1.036a.244.244,0,0,0,.073.2.41.41,0,0,0,.219.044.733.733,0,0,0,.175-.029.906.906,0,0,0,.146-.044c.015.073.029.161.044.248a2.158,2.158,0,0,1,.044.277" transform="translate(-127.772 -264)"/>
        <path id="Path_55144" data-name="Path 55144" d="M164.113,312.658a2.156,2.156,0,0,1-.015.306l-.044.306c-.029,0-.058-.015-.1-.015s-.073-.015-.117-.015a1.036,1.036,0,0,0-.438.1v1.62h-.6v-2.276c.088-.015.175-.015.292-.029s.2-.015.306-.015v.292h.029c.058-.073.1-.131.146-.175a.8.8,0,0,1,.131-.1.381.381,0,0,1,.117-.044c.044,0,.073-.015.1-.015H164a.415.415,0,0,0,.117.058" transform="translate(-139.046 -266.989)"/>
        <path id="Path_55145" data-name="Path 55145" d="M175.713,315.32v-.2h-.029a.985.985,0,0,1-.292.19,1.038,1.038,0,0,1-.306.058.826.826,0,0,1-.263-.044.772.772,0,0,1-.219-.117.577.577,0,0,1-.146-.219.769.769,0,0,1-.058-.336v-1.605c.088-.015.19-.015.292-.029s.2-.015.306-.015v1.561a.358.358,0,0,0,.073.219.421.421,0,0,0,.277.073.791.791,0,0,0,.365-.088v-1.722c.088-.015.19-.015.292-.029s.2-.015.306-.015v2.32Z" transform="translate(-148.954 -267.331)"/>
        <path id="Path_55146" data-name="Path 55146" d="M192.578,315.247a1.021,1.021,0,0,1-.117.044c-.044.015-.1.029-.16.044s-.1.015-.16.029-.1.015-.146.015a1.075,1.075,0,0,1-.8-.277,1.194,1.194,0,0,1-.292-.875,1.523,1.523,0,0,1,.088-.554.986.986,0,0,1,.233-.379.837.837,0,0,1,.336-.219,1.179,1.179,0,0,1,.394-.073,2.583,2.583,0,0,1,.336.015,1.469,1.469,0,0,1,.292.058,2.373,2.373,0,0,1-.058.277c-.029.1-.044.2-.073.292a1.216,1.216,0,0,0-.219-.058,1.335,1.335,0,0,0-.233-.015.419.419,0,0,0-.336.131.786.786,0,0,0-.1.482,1.858,1.858,0,0,0,.029.321.33.33,0,0,0,.088.19.334.334,0,0,0,.146.1.883.883,0,0,0,.219.029,1.276,1.276,0,0,0,.233-.029.668.668,0,0,0,.2-.073c.029.087.044.175.073.277a2.179,2.179,0,0,0,.029.248" transform="translate(-163.046 -267.331)"/>
        <path id="Path_55147" data-name="Path 55147" d="M205.661,311.931a1.012,1.012,0,0,1-.117.044.432.432,0,0,1-.146.029c-.044.015-.088.015-.131.029s-.088.015-.117.015a.8.8,0,0,1-.6-.2.851.851,0,0,1-.19-.627v-1.007H204.1v-.525h.263V309.2c.088-.015.19-.044.292-.058l.306-.044v.569h.6v.263a1.608,1.608,0,0,1-.029.263h-.569v1.036a.243.243,0,0,0,.073.2.41.41,0,0,0,.219.044.733.733,0,0,0,.175-.029.906.906,0,0,0,.146-.044c.015.073.029.161.044.248a.991.991,0,0,1,.044.277" transform="translate(-174.32 -264)"/>
        <path id="Path_55148" data-name="Path 55148" d="M217.871,307.036a.332.332,0,0,1-.088.233.3.3,0,0,1-.248.1.283.283,0,0,1-.248-.1.358.358,0,0,1-.088-.233.331.331,0,0,1,.088-.233.3.3,0,0,1,.248-.1.283.283,0,0,1,.248.1.358.358,0,0,1,.088.233m-.627.6h.6v2.305h-.6Z" transform="translate(-185.509 -261.95)"/>
        <path id="Path_55149" data-name="Path 55149" d="M227.016,313.911a1.388,1.388,0,0,1-.088.511,1.363,1.363,0,0,1-.219.379,1.069,1.069,0,0,1-.336.233.994.994,0,0,1-.423.073,1.355,1.355,0,0,1-.423-.073.837.837,0,0,1-.336-.219,1.181,1.181,0,0,1-.219-.379,1.465,1.465,0,0,1-.073-.54,1.691,1.691,0,0,1,.073-.5,1.362,1.362,0,0,1,.219-.379.926.926,0,0,1,.336-.233,1.047,1.047,0,0,1,.423-.088,1.356,1.356,0,0,1,.423.073.838.838,0,0,1,.336.219,1.181,1.181,0,0,1,.219.379,1.5,1.5,0,0,1,.088.54m-.642,0a.948.948,0,0,0-.1-.525.369.369,0,0,0-.321-.161.361.361,0,0,0-.306.161.948.948,0,0,0-.1.525,1.249,1.249,0,0,0,.088.54.328.328,0,0,0,.306.16.369.369,0,0,0,.321-.16.872.872,0,0,0,.117-.54" transform="translate(-192.085 -267.074)"/>
        <path id="Path_55150" data-name="Path 55150" d="M244.013,315.149v-1.561a.285.285,0,0,0-.058-.2.365.365,0,0,0-.248-.058.825.825,0,0,0-.409.117v1.707h-.6v-2.276c.088-.015.175-.015.292-.029a2.26,2.26,0,0,1,.306-.015v.233h.029a1.065,1.065,0,0,1,.16-.131,1.352,1.352,0,0,1,.146-.073c.044-.015.1-.029.146-.044s.1-.015.146-.015a.827.827,0,0,1,.263.044,1.045,1.045,0,0,1,.219.117.577.577,0,0,1,.146.219.769.769,0,0,1,.058.336v1.634Z" transform="translate(-207.288 -267.16)"/>
        <rect id="Rectangle_367" data-name="Rectangle 367" width="0.657" height="2.977" transform="translate(38.812 45.013)"/>
        <path id="Path_55151" data-name="Path 55151" d="M276.313,315.149v-1.561a.285.285,0,0,0-.058-.2.365.365,0,0,0-.248-.058.825.825,0,0,0-.409.117v1.707H275v-2.276c.088-.015.19-.015.292-.029s.2-.015.306-.015v.233h.029a1.066,1.066,0,0,1,.161-.131,1.347,1.347,0,0,1,.146-.073c.044-.015.1-.029.146-.044s.1-.015.146-.015a.827.827,0,0,1,.263.044,1.044,1.044,0,0,1,.219.117.578.578,0,0,1,.146.219.769.769,0,0,1,.058.336v1.634Z" transform="translate(-234.875 -267.16)"/>
        <path id="Path_55152" data-name="Path 55152" d="M292.8,309.768v-.19h-.029a.743.743,0,0,1-.263.19.94.94,0,0,1-.292.044.723.723,0,0,1-.613-.277,1.369,1.369,0,0,1-.2-.846,2.157,2.157,0,0,1,.073-.569,1.008,1.008,0,0,1,.2-.394.7.7,0,0,1,.321-.219,1.2,1.2,0,0,1,.409-.073,1.034,1.034,0,0,1,.2.015c.073.015.131.029.19.044v-.948c.088-.015.19-.015.292-.029s.2-.015.306-.015v3.283h-.6Zm0-1.751a.437.437,0,0,0-.146-.058.679.679,0,0,0-.394,0,.258.258,0,0,0-.131.117.77.77,0,0,0-.073.219,2.05,2.05,0,0,0-.029.336,1.046,1.046,0,0,0,.029.321.667.667,0,0,0,.073.2.26.26,0,0,0,.117.1.544.544,0,0,0,.175.029.883.883,0,0,0,.219-.029.411.411,0,0,0,.161-.058Z" transform="translate(-248.882 -261.779)"/>
        <path id="Path_55153" data-name="Path 55153" d="M310.628,315.32v-.2h-.044a.984.984,0,0,1-.292.19,1.038,1.038,0,0,1-.306.058.826.826,0,0,1-.263-.044.772.772,0,0,1-.219-.117.483.483,0,0,1-.146-.219.769.769,0,0,1-.058-.336v-1.605c.088-.015.19-.015.292-.029s.2-.015.306-.015v1.561a.358.358,0,0,0,.073.219.421.421,0,0,0,.277.073.791.791,0,0,0,.365-.088v-1.722c.087-.015.19-.015.292-.029s.2-.015.306-.015v2.32Z" transform="translate(-264.17 -267.331)"/>
        <path id="Path_55154" data-name="Path 55154" d="M327.534,314.534a.76.76,0,0,1-.073.336.785.785,0,0,1-.2.233,1.052,1.052,0,0,1-.292.131,1.325,1.325,0,0,1-.336.044,1.812,1.812,0,0,1-.394-.044,1.491,1.491,0,0,1-.336-.117,2.361,2.361,0,0,0,.058-.277,1.765,1.765,0,0,1,.073-.263,1.487,1.487,0,0,0,.336.117,1.655,1.655,0,0,0,.365.044.235.235,0,0,0,.161-.044.178.178,0,0,0,.044-.131.13.13,0,0,0-.073-.117.571.571,0,0,0-.19-.073c-.073-.029-.16-.044-.248-.073a.774.774,0,0,1-.248-.117.515.515,0,0,1-.19-.2.7.7,0,0,1-.073-.321.6.6,0,0,1,.088-.336.676.676,0,0,1,.219-.233.992.992,0,0,1,.306-.146,1.47,1.47,0,0,1,.365-.044,1.96,1.96,0,0,1,.277.015,1.721,1.721,0,0,1,.292.058,1.606,1.606,0,0,1-.029.263l-.044.263a.432.432,0,0,0-.146-.029c-.058-.015-.1-.015-.161-.029a.71.71,0,0,0-.175-.015h-.16c-.146,0-.219.058-.219.19a.13.13,0,0,0,.073.117.572.572,0,0,0,.19.073c.073.029.16.044.248.073a1.293,1.293,0,0,1,.248.117.709.709,0,0,1,.19.219.6.6,0,0,1,.058.321" transform="translate(-278.348 -267.245)"/>
        <path id="Path_55155" data-name="Path 55155" d="M340.461,311.931a1.013,1.013,0,0,1-.117.044.432.432,0,0,1-.146.029c-.044.015-.088.015-.131.029s-.088.015-.117.015a.8.8,0,0,1-.6-.2.851.851,0,0,1-.19-.627v-1.007H338.9v-.525h.263V309.2c.088-.015.19-.044.292-.058l.306-.044v.569h.6v.263a1.608,1.608,0,0,1-.029.263h-.569v1.036a.244.244,0,0,0,.073.2.41.41,0,0,0,.219.044.732.732,0,0,0,.175-.029.9.9,0,0,0,.146-.044c.015.073.029.161.044.248a.99.99,0,0,1,.044.277" transform="translate(-289.452 -264)"/>
        <path id="Path_55156" data-name="Path 55156" d="M353.413,312.658a2.156,2.156,0,0,1-.015.306l-.044.306c-.029,0-.058-.015-.1-.015s-.073-.015-.117-.015a1.036,1.036,0,0,0-.438.1v1.62h-.6v-2.276c.088-.015.175-.015.292-.029s.2-.015.306-.015v.292h.029c.058-.073.1-.131.146-.175a.8.8,0,0,1,.131-.1.381.381,0,0,1,.117-.044c.044,0,.073-.015.1-.015h.073a.416.416,0,0,0,.117.058" transform="translate(-300.726 -266.989)"/>
        <path id="Path_55157" data-name="Path 55157" d="M363.1,315.274a4.793,4.793,0,0,1-.219.525,1.543,1.543,0,0,1-.248.336.637.637,0,0,1-.277.175,1.137,1.137,0,0,1-.306.058,1.258,1.258,0,0,1-.219-.015.625.625,0,0,1-.233-.073c.015-.088.029-.19.044-.277s.044-.175.058-.263a1.506,1.506,0,0,0,.175.044,1.034,1.034,0,0,0,.2.015.4.4,0,0,0,.19-.044.451.451,0,0,0,.131-.175l.073-.146c-.058-.146-.131-.306-.2-.482a5.177,5.177,0,0,1-.2-.569c-.073-.2-.131-.409-.19-.613a5.51,5.51,0,0,1-.146-.627c.088-.015.19-.015.292-.029s.2-.015.292-.015l.394,1.386a.674.674,0,0,1,.044.131.741.741,0,0,1,.029.131h.029a.427.427,0,0,1,.029-.131.676.676,0,0,1,.044-.131l.409-1.386h.277a1.8,1.8,0,0,1,.292.029Z" transform="translate(-308.839 -267.416)"/>
        <path id="Path_55158" data-name="Path 55158" d="M386.245,310.889a1.159,1.159,0,0,1-.394.146,2.313,2.313,0,0,1-.423.044,1.244,1.244,0,0,1-.992-.394,1.752,1.752,0,0,1-.336-1.153,1.939,1.939,0,0,1,.1-.686,1.545,1.545,0,0,1,.277-.482.972.972,0,0,1,.409-.277,1.42,1.42,0,0,1,.5-.088,1.1,1.1,0,0,1,.219.015c.073.015.146.015.219.029s.146.029.2.044.117.044.16.058a2,2,0,0,1-.029.277,1.716,1.716,0,0,1-.058.292,2.269,2.269,0,0,0-.336-.117,1.44,1.44,0,0,0-.35-.044.605.605,0,0,0-.234.044.374.374,0,0,0-.19.146.772.772,0,0,0-.131.292,2.026,2.026,0,0,0-.044.467,1.976,1.976,0,0,0,.044.452,1.1,1.1,0,0,0,.117.292.439.439,0,0,0,.2.161.878.878,0,0,0,.292.044.83.83,0,0,0,.19-.015c.073-.015.131-.029.19-.044a.889.889,0,0,0,.175-.073,1.273,1.273,0,0,0,.146-.088,1.55,1.55,0,0,1,.058.277c0,.19.015.277.015.379" transform="translate(-328.056 -263.06)"/>
        <path id="Path_55159" data-name="Path 55159" d="M403.228,309.683v-1.561a.216.216,0,0,0-.015-.1.126.126,0,0,0-.044-.088.235.235,0,0,0-.1-.058.547.547,0,0,0-.161-.015,1.126,1.126,0,0,0-.219.029,1.1,1.1,0,0,0-.19.088v1.707h-.6v-3.239c.088-.015.175-.015.292-.029s.2-.015.306-.015v1.2h.029a1.07,1.07,0,0,1,.292-.2.677.677,0,0,1,.306-.058.711.711,0,0,1,.5.175.731.731,0,0,1,.19.54v1.634Z" transform="translate(-343.259 -261.694)"/>
        <path id="Path_55160" data-name="Path 55160" d="M420.445,315.074a.8.8,0,0,1-.088.117.456.456,0,0,1-.146.073.893.893,0,0,1-.438-.029.374.374,0,0,1-.175-.19h-.015a.862.862,0,0,1-.6.233.849.849,0,0,1-.277-.044.773.773,0,0,1-.219-.117.523.523,0,0,1-.146-.2.941.941,0,0,1-.044-.292.7.7,0,0,1,.058-.321.608.608,0,0,1,.161-.219.692.692,0,0,1,.277-.117,1.389,1.389,0,0,1,.365-.044l.365-.015v-.394a.734.734,0,0,0-.19-.073,1.18,1.18,0,0,0-.233-.015,1.787,1.787,0,0,0-.277.029.882.882,0,0,0-.233.073c-.015-.073-.029-.16-.044-.248a1.789,1.789,0,0,1-.029-.277,2.071,2.071,0,0,1,.321-.073,2.4,2.4,0,0,1,.336-.029,1.585,1.585,0,0,1,.263.015l.263.044a1.1,1.1,0,0,1,.233.088,1.077,1.077,0,0,1,.19.117v1.372a.188.188,0,0,0,.029.117c.015.029.058.029.1.029h.263v.2c-.029.073-.044.131-.073.19m-.919-.788-.365.015a.34.34,0,0,0-.2.058c-.044.029-.058.1-.058.2a.212.212,0,0,0,.248.248,1.145,1.145,0,0,0,.2-.029.454.454,0,0,0,.19-.088v-.409Z" transform="translate(-357.266 -267.245)"/>
        <path id="Path_55161" data-name="Path 55161" d="M436.413,312.658a2.156,2.156,0,0,1-.015.306l-.044.306c-.029,0-.058-.015-.1-.015s-.073-.015-.117-.015a1.036,1.036,0,0,0-.438.1v1.62h-.6v-2.276c.088-.015.19-.015.292-.029a2.155,2.155,0,0,1,.306-.015v.292h.029c.058-.073.1-.131.146-.175a.8.8,0,0,1,.131-.1.6.6,0,0,1,.117-.044c.044,0,.073-.015.1-.015h.073a.416.416,0,0,0,.117.058" transform="translate(-371.615 -266.989)"/>
        <path id="Path_55162" data-name="Path 55162" d="M447.171,307.036a.331.331,0,0,1-.088.233.3.3,0,0,1-.248.1.283.283,0,0,1-.248-.1.358.358,0,0,1-.088-.233.331.331,0,0,1,.088-.233.3.3,0,0,1,.248-.1.283.283,0,0,1,.248.1.358.358,0,0,1,.088.233m-.627.6h.6v2.305h-.6Z" transform="translate(-381.352 -261.95)"/>
        <path id="Path_55163" data-name="Path 55163" d="M455.461,311.931a1.011,1.011,0,0,1-.117.044.432.432,0,0,1-.146.029c-.044.015-.088.015-.131.029s-.088.015-.117.015a.8.8,0,0,1-.6-.2.851.851,0,0,1-.19-.627v-1.007H453.9v-.525h.263V309.2c.088-.015.19-.044.292-.058l.306-.044v.569h.6v.263a1.608,1.608,0,0,1-.029.263h-.569v1.036a.243.243,0,0,0,.073.2.41.41,0,0,0,.219.044.733.733,0,0,0,.175-.029.907.907,0,0,0,.146-.044c.015.073.029.161.044.248a2.183,2.183,0,0,1,.044.277" transform="translate(-387.672 -264)"/>
        <path id="Path_55164" data-name="Path 55164" d="M466.5,315.274a4.787,4.787,0,0,1-.219.525,1.541,1.541,0,0,1-.248.336.637.637,0,0,1-.277.175,1.137,1.137,0,0,1-.306.058,1.258,1.258,0,0,1-.219-.015.625.625,0,0,1-.233-.073c.015-.088.029-.19.044-.277s.044-.175.058-.263a1.5,1.5,0,0,0,.175.044,1.034,1.034,0,0,0,.2.015.4.4,0,0,0,.19-.044c.058-.029.088-.088.131-.175l.073-.146c-.058-.146-.131-.306-.2-.482a5.183,5.183,0,0,1-.2-.569c-.073-.2-.131-.409-.19-.613a5.5,5.5,0,0,1-.146-.627c.088-.015.19-.015.292-.029s.2-.015.292-.015l.394,1.386a.676.676,0,0,1,.044.131.745.745,0,0,1,.029.131h.029a.427.427,0,0,1,.029-.131.678.678,0,0,1,.044-.131l.409-1.386h.292a1.8,1.8,0,0,1,.292.029Z" transform="translate(-397.152 -267.416)"/>
      </g>
    </g>
  </g>
</svg>
