<svg id="Stef_PhilipsFoundation-SOLID-BLACK-RGB" data-name="Stef&amp;PhilipsFoundation-SOLID-BLACK-RGB" xmlns="http://www.w3.org/2000/svg" width="86.646" height="32.492" viewBox="0 0 86.646 32.492">
  <path id="Path_55699" data-name="Path 55699" d="M190.808,6.087a3.532,3.532,0,0,0-1.039.993,2.7,2.7,0,0,0-.521,1.578,2.252,2.252,0,0,0,.747,1.782,2.946,2.946,0,0,0,2.056.679,3.968,3.968,0,0,0,2.48-.777l.171-.129-.149-.153c-.1-.106-.208-.218-.311-.332L191.2,6.3l-.257-.3Zm1.243,6.375a5.022,5.022,0,0,1-2.218-.473,3.7,3.7,0,0,1-1.536-1.346,3.634,3.634,0,0,1-.553-1.985,3.971,3.971,0,0,1,.728-2.268,4.839,4.839,0,0,1,1.475-1.4l.159-.1-.1-.16a6.287,6.287,0,0,1-.378-.741,3.216,3.216,0,0,1-.265-1.273,2.449,2.449,0,0,1,.419-1.4A2.926,2.926,0,0,1,190.89.354,3.365,3.365,0,0,1,192.44,0a3.048,3.048,0,0,1,1.439.331,2.61,2.61,0,0,1,1,.921,2.462,2.462,0,0,1,.374,1.335,2.656,2.656,0,0,1-.279,1.18,2.26,2.26,0,0,1-.746.89l-.2.137-.856-1.057.169-.169a1.54,1.54,0,0,0,.281-.429,1.265,1.265,0,0,0,.128-.552,1.193,1.193,0,0,0-.351-.9,1.3,1.3,0,0,0-.958-.346,1.632,1.632,0,0,0-1.138.4,1.226,1.226,0,0,0-.431.979,2.233,2.233,0,0,0,.455,1.308c.328.466.695.941,1.09,1.41l2.852,3.209c.071.075.14.146.208.215l.189.192.116-.242a6.024,6.024,0,0,0,.349-.93,6.741,6.741,0,0,0,.192-.928l.031-.223-1.013.041-.012-1.393,3.5-.141.012,1.393-1.013.041-.016.163a7.884,7.884,0,0,1-.31,1.58,6.321,6.321,0,0,1-.66,1.462l-.092.147.139.1a5.432,5.432,0,0,0,1.027.628,2.557,2.557,0,0,0,1,.253c.06,0,.113,0,.163-.007a1.267,1.267,0,0,0,.143-.02l.311-.062.026,1.343-.189.06a2.416,2.416,0,0,1-.729.11,3.458,3.458,0,0,1-1.547-.393,7.787,7.787,0,0,1-1.229-.778l-.118-.09-.115.094a5.173,5.173,0,0,1-1.441.825,6.008,6.008,0,0,1-2.139.374" transform="translate(-159.049 0)"/>
  <g id="Group_2317" data-name="Group 2317" transform="translate(41.576 0.257)">
    <path id="Path_55700" data-name="Path 55700" d="M276.231,7.222h-1.739V3.746h1.772a1.639,1.639,0,0,1,1.869,1.721,1.673,1.673,0,0,1-1.9,1.754m.229-5.541h-4.428V13.4h2.459V9.156h2.165c2.459,0,3.918-1.492,3.918-3.7a3.751,3.751,0,0,0-1.049-2.672,4.107,4.107,0,0,0-3.065-1.1" transform="translate(-272.032 -1.68)"/>
    <path id="Path_55701" data-name="Path 55701" d="M338.524,4.763A2.558,2.558,0,0,0,336.16,6.09h-.049V1.681h-2.23V13.4h2.23V8.631c0-1.147.643-1.934,1.626-1.934A1.4,1.4,0,0,1,339.2,8.238V13.4h2.229V7.91a2.894,2.894,0,0,0-2.9-3.147" transform="translate(-324.428 -1.681)"/>
    <rect id="Rectangle_590" data-name="Rectangle 590" width="2.229" height="2" transform="translate(18.128 0)"/>
    <rect id="Rectangle_591" data-name="Rectangle 591" width="2.229" height="8.41" transform="translate(18.128 3.312)"/>
    <rect id="Rectangle_592" data-name="Rectangle 592" width="2.23" height="11.721" transform="translate(21.743)"/>
    <rect id="Rectangle_593" data-name="Rectangle 593" width="2.23" height="2" transform="translate(25.448 0)"/>
    <rect id="Rectangle_594" data-name="Rectangle 594" width="2.23" height="8.41" transform="translate(25.448 3.312)"/>
    <path id="Path_55702" data-name="Path 55702" d="M465.49,28.878c-1.328,0-2.033-1-2.033-2.525,0-1.508.557-2.7,1.951-2.7,1.377,0,1.934,1.115,1.934,2.7s-.721,2.525-1.852,2.525m.459-7.033a2.939,2.939,0,0,0-2.475,1.279h-.049V22.075h-2.148V33.239h2.23v-3.7h.033a2.708,2.708,0,0,0,2.426,1.2c2.164,0,3.639-1.721,3.639-4.443,0-2.623-1.426-4.442-3.656-4.442" transform="translate(-432.354 -18.763)"/>
    <path id="Path_55703" data-name="Path 55703" d="M522.558,25.37c-1.2-.246-2.312-.311-2.312-1.033,0-.606.574-.934,1.443-.934.95,0,1.524.328,1.623,1.228l2.01-.056c-.187-1.656-1.412-2.73-3.6-2.73-1.918,0-3.426.869-3.426,2.688,0,1.836,1.475,2.246,2.984,2.541,1.147.23,2.213.311,2.213,1.115,0,.59-.557.967-1.541.967a1.617,1.617,0,0,1-1.836-1.393l-2.06.058c.157,1.754,1.513,2.909,3.929,2.909,2.1,0,3.541-1.016,3.541-2.7,0-1.967-1.557-2.361-2.967-2.656" transform="translate(-480.455 -18.764)"/>
  </g>
  <g id="Group_2318" data-name="Group 2318" transform="translate(0 0.041)">
    <path id="Path_55704" data-name="Path 55704" d="M68.147,14.724V10.448l1.443-.04V8.844l-1.443.04V6.167h-2.18V8.945L64.8,8.978v1.563l1.164-.033V15.2c0,1.59,1.2,2.016,2.279,2.016.885,0,1.393-.033,1.393-.033V15.544s-.377.016-.656.016a.738.738,0,0,1-.836-.836" transform="translate(-54.899 -5.265)"/>
    <path id="Path_55705" data-name="Path 55705" d="M5.242,5.136C3.5,4.759,2.684,4.481,2.684,3.53c0-.836.836-1.377,2.115-1.377A2.022,2.022,0,0,1,7.06,3.91l2.273-.064C9.121,1.535,7.426.268,4.816.268S.324,1.464.324,3.776c0,2.443,1.918,3,4.016,3.475,1.787.41,2.9.64,2.9,1.787,0,1.082-1.066,1.508-2.279,1.508-1.67,0-2.473-.556-2.639-1.962L0,8.649c.114,2.431,1.912,3.815,5.061,3.815,2.639,0,4.557-1.328,4.557-3.7,0-2.525-1.967-3.1-4.377-3.623" transform="translate(0 -0.268)"/>
    <path id="Path_55706" data-name="Path 55706" d="M98.652,25.351a1.872,1.872,0,0,1,1.95-1.8,1.774,1.774,0,0,1,1.787,1.8Zm1.918-3.525a4.161,4.161,0,0,0-4.147,4.426,4.162,4.162,0,0,0,4.36,4.459,3.611,3.611,0,0,0,3.8-2.734l-2.226.062a1.57,1.57,0,0,1-1.589.951,2.09,2.09,0,0,1-2.147-2.1h6.1c0-3-1.443-5.066-4.147-5.066" transform="translate(-81.686 -18.532)"/>
    <path id="Path_55707" data-name="Path 55707" d="M155.7,3.264V1.543c-2.147-.23-3.738.492-3.738,2.541v.809l-1.1.03V6.486l1.1-.03v6.792h2.23V6.393l1.459-.041V4.789l-1.459.041V4.215c0-.869.459-1,1.508-.951" transform="translate(-127.806 -1.313)"/>
  </g>
  <path id="Path_55708" data-name="Path 55708" d="M434.468,101.5c-.292.786.517,1.8.921.921.067-.652-.36-1.528-.921-.921" transform="translate(-368.014 -85.811)"/>
  <path id="Path_55709" data-name="Path 55709" d="M435.389,102.418c-.4.876-1.213-.135-.921-.921.562-.606.989.27.921.921" transform="translate(-368.013 -85.812)"/>
  <g id="Group_2319" data-name="Group 2319" transform="translate(5.651 14.765)">
    <path id="Path_55710" data-name="Path 55710" d="M63.184,130.548c.058.1.233.1.369.039.311-.389.311-1.068.6-1.515-.643.129-1.263.262-1.573.311a54.145,54.145,0,0,0-1.942,5.341c.427-.073.589-.137,1.146-.194.408-1.4.874-2.661,1.4-3.982" transform="translate(-57.023 -124.11)"/>
    <path id="Path_55711" data-name="Path 55711" d="M55.429,175.066c0,.5,0,1.418.563,1.515.33-.155.408-.5.466-.952-.058-.155-.252-.1-.311-.233a20.513,20.513,0,0,1,.991-5.147c-.377.065-.707.127-1.107.194a25.632,25.632,0,0,0-.6,4.623" transform="translate(-52.608 -158.994)"/>
    <path id="Path_55712" data-name="Path 55712" d="M77.182,114.671c-.622.1-.855,1.146-1.165,1.515.6-.11.993-.172,1.631-.253.35-.466.253-1.36-.466-1.262" transform="translate(-70.05 -111.904)"/>
    <path id="Path_55713" data-name="Path 55713" d="M97.649,139.843a4.885,4.885,0,0,1-1.011-.36,6.1,6.1,0,0,1,.831-1.258,3.7,3.7,0,0,1,.18,1.618m5.123-.966a7.778,7.778,0,0,1-4.561,1.011,6.444,6.444,0,0,0-.517-2.9.789.789,0,0,0-.584-.135,2.1,2.1,0,0,0-1.663,2.022c-.236.449-.529,1-.811,1.62.419-.061.965-.156,1.257.094.117-.211.232-.4.341-.568a5.78,5.78,0,0,0,1.371.427c-.292,2.224-.9,4.381-2.629,4.988-.382-.292-.292-.876-.27-1.258a9.2,9.2,0,0,1,1-3.233,3.466,3.466,0,0,1-.414.017q-.454.055-.911.123a8.132,8.132,0,0,0-.73,3.656,1.784,1.784,0,0,0,.876,1.573c1.573.18,2.269-1.191,2.764-2.224a12.74,12.74,0,0,0,.921-3.55,8.939,8.939,0,0,0,4.943-1.326,1.228,1.228,0,0,1,.354-.245,5.373,5.373,0,0,1,.273-.665c-.388.041-.682.438-1.009.573" transform="translate(-84.974 -130.699)"/>
    <path id="Path_55714" data-name="Path 55714" d="M99.848,160.779q.094-.186.188-.356c-.293-.25-.838-.155-1.257-.094-.087.191-.173.387-.256.589.3-.045.608-.086.911-.122a3.523,3.523,0,0,0,.414-.017" transform="translate(-89.116 -150.531)"/>
    <path id="Path_55715" data-name="Path 55715" d="M166.812,144.968c-.989-1.168-.719-3.572-.786-5.685-.112-.921-.876-1.079-1.528-.539a20.354,20.354,0,0,0-2.247,3.033v-.135c.112-.786.944-2.314.09-2.853-.764.112-.719,1.011-1.168,1.46a19.219,19.219,0,0,1-2.2,3.617c-.27.337-.741.831-1.191.764-.472-.067-.652-1.034-.652-1.64a16.776,16.776,0,0,1,.7-4.247c.112-.427.315-.944-.2-1.123-.809.225-1.011,1.168-1.37,1.842-.36.7-.719,1.348-1.1,2.045a9.61,9.61,0,0,1-2.741,3.55,13.453,13.453,0,0,1,1.034-5.123c.135-.629.584-.854.584-1.573a.822.822,0,0,0-.494-.359,1.687,1.687,0,0,0-.991.955.606.606,0,0,1,.2.011c.075.358-.207.508-.478.654-.149.431-.27.894-.4,1.323-.472,1.528-1.281,4.112.045,5.078a1.707,1.707,0,0,0,1.281-.427c1.505-1.326,2.18-3.55,3.325-5.055-.292,1.618-.4,4.067.921,4.606H158c1.73-.719,2.4-2.808,3.415-4.067-.247.786-.517,1.573-.786,2.359a7.54,7.54,0,0,0-.607,2.449c.9.652,1.3-.719,1.618-1.348.517-.876,1.034-1.842,1.573-2.719a7.391,7.391,0,0,1,1.842-2.337,26.51,26.51,0,0,0,.27,3.595c.18,1.079.337,2.247,1.3,2.539a2.109,2.109,0,0,0,.363-.03c0-.2.009-.414.028-.625a.3.3,0,0,1-.211,0" transform="translate(-133.734 -131.352)"/>
    <path id="Path_55716" data-name="Path 55716" d="M158.724,146.359a.608.608,0,0,0-.2-.011,5.334,5.334,0,0,0-.273.665c.27-.146.552-.3.478-.654" transform="translate(-139.712 -138.742)"/>
    <path id="Path_55717" data-name="Path 55717" d="M259.472,107.727c-1.011,1.505-1.82,3.123-3.55,3.932-.359-1.348.2-3.1.786-4.651.539-1.3,1.393-3.213,2.4-3.505.337-.067.562.629.562,1.056.067,1.079-.382,2.179-.2,3.168m4.4-11.122c-.539,0-.854,1.685-.966,2.157-.247.9-.157.921-.337,1.685a28.658,28.658,0,0,1-1.707,4.516c0,.067-.067.022,0,0,.09-1.438-.315-2.382-1.326-2.719h-.607c-2.067.652-3.325,3.662-3.977,6.179a11.136,11.136,0,0,0-.328,1.794c.21-.074.392-.312.665-.176.089.482-.247.722-.693.8.005.987.28,1.837,1.187,1.873.674.067,1.011-.4,1.483-.7,2.224-2.225,3.6-5.415,4.853-8.583a47.052,47.052,0,0,0-.023,8.718c.067.831.135,1.843.831,2.18.315-.112.449-.382.427-.831-.067-.247-.427-.023-.427-.27a44.1,44.1,0,0,1,1.079-14.919c.067-.382.606-1.708-.135-1.708" transform="translate(-221.339 -96.605)"/>
    <path id="Path_55718" data-name="Path 55718" d="M255.292,184.289c-.273-.136-.455.1-.665.176-.019.21-.029.42-.028.625.446-.079.782-.319.693-.8" transform="translate(-221.339 -170.853)"/>
    <path id="Path_55719" data-name="Path 55719" d="M319.451,146.458a11.788,11.788,0,0,1,3.326-6.2c-.427,2.561-1.528,5.011-3.326,6.2m9.909-7.707a54.838,54.838,0,0,1-2.719,6.269c-.427.607-.629,1.393-1.393,1.618-.786-1.146-.562-3.438-.449-5.078.067-.606.247-1.236-.09-1.663-.27-.18-.517.135-.607.135-.18-1.955-2.337-.966-2.9-.045a16.862,16.862,0,0,0-1.8,2.853,7.609,7.609,0,0,0-1.056,3.573,1.228,1.228,0,0,0,.629,1.056,1.526,1.526,0,0,0,1.348-.562c1.618-1.618,2.764-4.179,3.955-5.909a23.773,23.773,0,0,0-.225,3.932c.067.9.247,2.292,1.146,2.359.854.067,1.416-.966,1.8-1.528a17.208,17.208,0,0,0,1.123-2.224c.786-1.461,1.348-3.123,2.067-4.651a48.244,48.244,0,0,0-.562,7.415c.067.719,0,1.8.9,1.8a.535.535,0,0,0,.4-.629c0-.225-.36-.067-.427-.247a34.078,34.078,0,0,1,.876-8.718,6.964,6.964,0,0,1-2.022.247" transform="translate(-275.342 -132.1)"/>
    <path id="Path_55720" data-name="Path 55720" d="M395.135,98.806c-1.191-1.281-1.3,1.663-1.8,2.359a13.88,13.88,0,0,1-1.011,2.719c.785-.058,1.08-.1,1.842-.157.247-1.707.854-3.3.966-4.921" transform="translate(-338.017 -98.2)"/>
    <path id="Path_55721" data-name="Path 55721" d="M416.208,152.348c-.719-2.09-.157-3.865.494-5.595.18-.472.764-1.236.225-1.708a.787.787,0,0,0-.764.337,1.23,1.23,0,0,0-.247.4c-.27.652-1.55,4.584-.719,6.516a1.209,1.209,0,0,0,1.056.831c.472,0,1.191-.539.831-1.011-.449-.2-.472.292-.876.225" transform="translate(-357.157 -137.631)"/>
    <path id="Path_55722" data-name="Path 55722" d="M442.422,141.11c-.112.113-.539.629-.876.562s-.449-.584-.517-1.011a8.5,8.5,0,0,1,.921-4.067c.112.292-.067.988.4.921.27,0,.2-.315.382-.539a5.613,5.613,0,0,1-.315,4.134m11.189,2.674c-.472-.292-.562.36-1.1.247-.786-.359-.966-1.46-1.146-2.494a21.067,21.067,0,0,1-.2-3.37c0-.921.382-3.573-.629-3.64-.449,0-.876.652-1.1,1.056-.831,1.348-1.483,2.741-2.18,4.112,0,.09-.045.112-.045,0h.045v-.112c.36-1.55.809-3.191,1.236-4.741.112-.472.4-1.056.045-1.483-.652.067-.719.741-1.056,1.078a5.719,5.719,0,0,1-4.179,2.157c-.472-.539-.135-1.685-.988-1.753-1.011-.067-1.618,1.528-1.843,2.225-.539,1.505-1.258,4.763.427,5.482a1.562,1.562,0,0,0,1.416-.135c1.393-.854,1.528-3.325,1.168-5.347,2-.18,3.146-1.348,4.247-2.269-.562,1.887-1.191,3.842-1.663,6-.112.517-.539,1.663.225,1.887.741-.18.9-1.1,1.191-1.708a25.714,25.714,0,0,1,2.921-5.527c.067,1.505-.157,3.483.045,5.3.18,1.55.651,3.46,1.663,3.82.652.247,1.573-.112,1.505-.786" transform="translate(-378.271 -127.741)"/>
    <path id="Path_55723" data-name="Path 55723" d="M60.708,164.784c-.556.057-.719.121-1.146.194l-.194.835c.4-.067.73-.129,1.107-.194Z" transform="translate(-55.946 -154.364)"/>
    <path id="Path_55724" data-name="Path 55724" d="M392.438,133.646l.112-.876c-.763.06-1.058.1-1.842.157l-.292.966a6.956,6.956,0,0,0,2.022-.247" transform="translate(-336.397 -127.243)"/>
    <path id="Path_55725" data-name="Path 55725" d="M75.387,122.972c-.638.08-1.028.142-1.632.253l-.408.991" transform="translate(-67.789 -118.942)"/>
    <path id="Path_55726" data-name="Path 55726" d="M75.387,122.972c-.638.08-1.028.142-1.632.253l-.408.991" transform="translate(-67.789 -118.942)"/>
    <path id="Path_55727" data-name="Path 55727" d="M75.387,122.972c-.638.08-1.028.142-1.632.253l-.408.991c.311-.049.93-.182,1.573-.311Z" transform="translate(-67.789 -118.942)"/>
    <path id="Path_55728" data-name="Path 55728" d="M38.048,122.2c1.476-.291,3.069-.622,4.487-.835.311-.049.93-.182,1.573-.311,1.4-.252,3.05-.5,4.506-.719.447-.058,1.185.02,1.34-.447-.117-.486-.777-.194-1.146-.194-1.476.136-3.05.291-4.234.427-.638.08-1.028.142-1.631.253-.991.136-2.1.33-3.185.5-1.049.155-2.195.175-2.758.893-.194.874.893,1.146,1.049.427" transform="translate(-36.976 -116.093)"/>
    <path id="Path_55729" data-name="Path 55729" d="M49.194,161.305c.083-.2.169-.4.256-.589l-.141.02c-1.651.136-3.3.466-4.759.6-.556.057-.719.121-1.146.194a15.909,15.909,0,0,1-2.875.194c-.1.136-.253.194-.233.447.408.874,2.039.253,2.913.194.4-.067.73-.129,1.107-.194,1.574-.279,3.231-.626,4.877-.868" transform="translate(-39.787 -150.918)"/>
    <path id="Path_55730" data-name="Path 55730" d="M107.46,161.412a.522.522,0,0,0-.078-.081q-.094.17-.188.356a.3.3,0,0,0,.266-.275" transform="translate(-96.463 -151.438)"/>
    <path id="Path_55731" data-name="Path 55731" d="M98.1,160.641a3.979,3.979,0,0,1,1.257.094c-.019.178-.055.186-.055.186l-.133.17-1.325.139-.122-.262Z" transform="translate(-88.439 -150.843)"/>
    <path id="Path_55732" data-name="Path 55732" d="M373.424,131.124a13.062,13.062,0,0,1-1.8.135c-.763.06-1.058.1-1.842.157a12.235,12.235,0,0,1-3.663-.135c-.2.157-.382.247-.4.584.247,1.461,2.651.27,3.775.517a6.964,6.964,0,0,0,2.022-.247c.562-.112,1.281-.18,1.91-.27.562-.067,1.438-.112,1.6-.606-.292-.472-.988-.2-1.6-.135" transform="translate(-315.474 -125.732)"/>
  </g>
</svg>
