<svg xmlns="http://www.w3.org/2000/svg" xmlns:xlink="http://www.w3.org/1999/xlink" width="111.655" height="20.299" viewBox="0 0 111.655 20.299">
  <defs>
    <clipPath id="clip-path">
      <rect id="Rectangle_357" data-name="Rectangle 357" width="111.655" height="20.299" fill="none"/>
    </clipPath>
  </defs>
  <g id="Group_1660" data-name="Group 1660" transform="translate(0)">
    <g id="Group_1659" data-name="Group 1659" transform="translate(0 0)" clip-path="url(#clip-path)">
      <path id="Path_54990" data-name="Path 54990" d="M53.1,14.987a3.061,3.061,0,0,0-2.227-1.065c-.872,0-1.259.484-1.259.92s.339.678,1.065.775l.92.145c2.179.291,3.1.968,3.1,2.421,0,1.792-1.4,2.954-3.825,2.954A4.668,4.668,0,0,1,47,19.442l1.6-1.017a3.3,3.3,0,0,0,2.421,1.065c.629,0,1.549-.291,1.549-.968,0-.581-.726-.775-1.453-.872l-.968-.145c-1.5-.194-2.711-.92-2.711-2.373,0-1.646,1.21-2.808,3.389-2.808a5.166,5.166,0,0,1,3.728,1.6Z" transform="translate(-24.243 -6.357)"/>
      <path id="Path_54991" data-name="Path 54991" d="M69.225,23.37v-.581a2.233,2.233,0,0,1-1.84.775c-1.356,0-1.985-.678-1.985-2.227V17.124h1.84v4.019c0,.436.145.92.872.92a.955.955,0,0,0,1.065-1.017V17.124h1.84V23.37Z" transform="translate(-33.734 -8.833)"/>
      <path id="Path_54992" data-name="Path 54992" d="M82.24,17.021v.629a2.617,2.617,0,0,1,.726-.484,3.061,3.061,0,0,1,1.065-.242V18.57l-.629.1c-.968.145-1.162.387-1.162,1.065v3.535H80.4V17.021Z" transform="translate(-41.471 -8.729)"/>
      <path id="Path_54993" data-name="Path 54993" d="M93.406,19.29a1.183,1.183,0,0,0-1.259-1.21,1.356,1.356,0,0,0-1.307,1.21ZM90.84,20.452V20.5a1.428,1.428,0,0,0,1.4,1.5,1.676,1.676,0,0,0,1.6-1.114l1.4.726a3.593,3.593,0,0,1-3.1,1.792A2.976,2.976,0,0,1,89,20.162c0-1.549.775-3.438,3.2-3.438,2.324,0,3.147,1.888,3.147,3.631v.1h-4.5" transform="translate(-45.907 -8.626)"/>
      <path id="Path_54994" data-name="Path 54994" d="M107.094,18.761a2.616,2.616,0,0,0-1.6-.629c-.387,0-.872.145-.872.484,0,.291.291.387,1.017.533l.436.1c1.356.242,2.227.823,2.227,1.985,0,1.549-1.646,2.179-2.954,2.179a4.281,4.281,0,0,1-3.05-1.21l1.162-1.065A2.654,2.654,0,0,0,105.3,22c.629,0,1.114-.194,1.114-.629,0-.339-.339-.436-1.017-.533l-.581-.1c-1.5-.242-2.082-.92-2.082-1.84,0-1.065.872-2.082,2.663-2.082a4.4,4.4,0,0,1,2.76.92Z" transform="translate(-52.767 -8.678)"/>
      <path id="Path_54995" data-name="Path 54995" d="M120.658,19.29a1.183,1.183,0,0,0-1.259-1.21,1.356,1.356,0,0,0-1.307,1.21Zm-2.518,1.162V20.5a1.428,1.428,0,0,0,1.4,1.5,1.676,1.676,0,0,0,1.6-1.114l1.4.726a3.593,3.593,0,0,1-3.1,1.792,2.976,2.976,0,0,1-3.147-3.244c0-1.549.775-3.438,3.2-3.438,2.324,0,3.147,1.888,3.147,3.631v.1h-4.5" transform="translate(-59.988 -8.626)"/>
      <path id="Path_54996" data-name="Path 54996" d="M133.14,17.021v.629a2.617,2.617,0,0,1,.726-.484,3.061,3.061,0,0,1,1.065-.242V18.57l-.629.1c-.968.145-1.162.387-1.162,1.065v3.535H131.3V17.021Z" transform="translate(-67.725 -8.729)"/>
      <path id="Path_54997" data-name="Path 54997" d="M142.97,23.37h-1.937L139,17.124h1.985l1.114,4.261,1.017-4.261H145Z" transform="translate(-71.697 -8.832)"/>
      <path id="Path_54998" data-name="Path 54998" d="M156.706,19.29a1.183,1.183,0,0,0-1.259-1.21,1.356,1.356,0,0,0-1.307,1.21Zm-2.566,1.162V20.5a1.428,1.428,0,0,0,1.4,1.5,1.676,1.676,0,0,0,1.6-1.114l1.4.726a3.593,3.593,0,0,1-3.1,1.792,2.976,2.976,0,0,1-3.147-3.244c0-1.549.775-3.438,3.2-3.438,2.324,0,3.147,1.888,3.147,3.631v.1h-4.5" transform="translate(-78.557 -8.626)"/>
      <path id="Path_54999" data-name="Path 54999" d="M174.311,20.843V19.681a3.574,3.574,0,0,1-3.1,1.4A4.067,4.067,0,0,1,167,16.775a4.221,4.221,0,0,1,4.358-4.551,4.1,4.1,0,0,1,3.922,2.469l-1.162.291a2.619,2.619,0,0,0-2.711-1.84c-2.179,0-3.147,1.743-3.147,3.486,0,2.421,1.5,3.486,3.147,3.486a2.677,2.677,0,0,0,2.905-2.615v-.1h-2.954v-.968h3.922v4.406Z" transform="translate(-86.14 -6.305)"/>
      <path id="Path_55000" data-name="Path 55000" d="M188.468,18.372v1.017A1.686,1.686,0,0,1,189,18.76a2.167,2.167,0,0,1,1.4-.436v1.017c-.1,0-.242-.048-.387-.048a1.455,1.455,0,0,0-1.453,1.065,4.93,4.93,0,0,0-.1,1.065v2.566H187.5V18.372Z" transform="translate(-96.714 -9.452)"/>
      <path id="Path_55001" data-name="Path 55001" d="M196.66,23.253c1.162,0,1.743-.92,1.743-2.373,0-.968-.387-2.13-1.646-2.13-1.792,0-1.792,1.937-1.792,2.276-.048.726.145,2.227,1.695,2.227m.1-5.229a2.676,2.676,0,0,1,2.663,2.954,2.729,2.729,0,0,1-2.76,3.05,2.689,2.689,0,0,1-2.76-3,2.783,2.783,0,0,1,2.857-3" transform="translate(-100.015 -9.297)"/>
      <path id="Path_55002" data-name="Path 55002" d="M210.828,23.989v-.872a2.365,2.365,0,0,1-1.937,1.017,1.843,1.843,0,0,1-1.5-.726A2.822,2.822,0,0,1,207.1,22V18.372h.968v3.2a2.176,2.176,0,0,0,.145,1.114,1.047,1.047,0,0,0,1.017.533,1.745,1.745,0,0,0,1.356-.629,2.162,2.162,0,0,0,.291-1.356V18.324h.92v5.665Z" transform="translate(-106.824 -9.452)"/>
      <path id="Path_55003" data-name="Path 55003" d="M222.011,23.256c1.162,0,1.792-.872,1.792-2.179,0-1.5-.92-2.082-1.743-2.082-1.065,0-1.84.823-1.84,2.179,0,1.307.678,2.082,1.792,2.082m-1.792-4.987v.823a2.617,2.617,0,0,1,2.034-.968c1.162,0,2.518.92,2.518,3,0,1.307-.629,3-2.663,3a2.241,2.241,0,0,1-1.888-.823v3.341h-.92V18.269Z" transform="translate(-113.116 -9.348)"/>
      <path id="Path_55004" data-name="Path 55004" d="M.1,11.424v2.324A3.394,3.394,0,0,0,1.795,16.7l.1.048,12.2,7.069,3.728-2.13Z" transform="translate(-0.052 -5.892)"/>
      <path id="Path_55005" data-name="Path 55005" d="M5.028,4.924,1.3,7.054,19.021,17.319V15a3.394,3.394,0,0,0-1.695-2.954Z" transform="translate(-0.671 -2.54)"/>
      <path id="Path_55006" data-name="Path 55006" d="M0,22.924v4.309l7.844,4.5a3.612,3.612,0,0,0,1.549.387h.048a3.948,3.948,0,0,0,1.307-.484l2.13-1.259Z" transform="translate(0 -11.824)"/>
      <path id="Path_55007" data-name="Path 55007" d="M24.231,4.9,16.532.448A2.831,2.831,0,0,0,14.838.012h-.048a4.181,4.181,0,0,0-1.4.533l-.968.581-.387.242-.629.387L24.28,9.211Z" transform="translate(-5.88 0)"/>
    </g>
  </g>
</svg>
