<svg id="Group_1656" data-name="Group 1656" xmlns="http://www.w3.org/2000/svg" xmlns:xlink="http://www.w3.org/1999/xlink" width="75.952" height="45.444" viewBox="0 0 75.952 45.444">
  <defs>
    <clipPath id="clip-path">
      <rect id="Rectangle_355" data-name="Rectangle 355" width="75.952" height="45.443"/>
    </clipPath>
  </defs>
  <g id="Group_1655" data-name="Group 1655" clip-path="url(#clip-path)">
    <path id="Path_54924" data-name="Path 54924" d="M81.993,68.877v-.016A1.375,1.375,0,0,0,80.614,67.5H80.6a1.41,1.41,0,0,0-1.074.513A1.438,1.438,0,0,0,78.45,67.5a1.375,1.375,0,0,0-1.395,1.347v.112a.6.6,0,0,0,.016.16,1.529,1.529,0,0,0,.144.481.7.7,0,0,0,.064.112,7.114,7.114,0,0,0,2.244,2.02,7.114,7.114,0,0,0,2.244-2.02.4.4,0,0,0,.064-.112,1.379,1.379,0,0,0,.144-.481c0-.048.016-.1.016-.16v-.08" transform="translate(-64.702 -56.677)"/>
    <path id="Path_54925" data-name="Path 54925" d="M33.211,8.609l-5.627,5.226a1.655,1.655,0,0,1-1.138.433H20.866V12.3h5.579a3.277,3.277,0,0,0,2.2-.85l3.046-2.838Zm0,3.543-5.627,5.226a1.655,1.655,0,0,1-1.138.433H20.866V15.823h5.579a3.277,3.277,0,0,0,2.2-.85l3.046-2.838ZM10.35,17.811V7.872L17.1,1.555h8.353L19.327,7.679V17.827Zm-7.984,0L4.5,15.823h4.3v1.988ZM8.794,12.3v1.988H2.366L4.5,12.3Zm0-3.527v1.972H2.366L4.5,8.753h4.3ZM8.3,1.7a.616.616,0,0,1,.4-.144h6.14L8.794,7.2v.016H2.366Zm24.914-.144L27.584,6.781a1.655,1.655,0,0,1-1.138.433H21.957l5.675-5.659Zm0,3.527-5.627,5.226a1.655,1.655,0,0,1-1.138.433H20.866V8.769h5.579a3.277,3.277,0,0,0,2.2-.85l3.046-2.838Zm2.373-.93a.976.976,0,0,0-.93-.625H33.339l1.988-1.844A.975.975,0,0,0,34.638,0H8.666A2.131,2.131,0,0,0,7.207.561L.33,6.974A1.02,1.02,0,0,0,.073,8.1a1.029,1.029,0,0,0,.994.657H2.205L.362,10.5a1.02,1.02,0,0,0-.257,1.122,1.029,1.029,0,0,0,.994.657H2.237L.362,14.028A1.02,1.02,0,0,0,.105,15.15a1.029,1.029,0,0,0,.994.657H2.237L.362,17.571a1.02,1.02,0,0,0-.257,1.122,1.029,1.029,0,0,0,.994.657H26.462a3.277,3.277,0,0,0,2.2-.85l6.7-6.236a.975.975,0,0,0-.689-1.683h-1.3l1.988-1.844a.975.975,0,0,0-.689-1.683H33.355L35.343,5.21a.962.962,0,0,0,.24-1.058" transform="translate(0)"/>
    <path id="Path_54926" data-name="Path 54926" d="M1.05,153.716v-3.367H.521V149.8H2.188v.545H1.643v3.367Z" transform="translate(-0.437 -125.788)"/>
    <path id="Path_54927" data-name="Path 54927" d="M13.591,151.539V149.9h.593v3.9h-.593v-1.715h-.577V153.8h-.593v-3.9h.593v1.651h.577Z" transform="translate(-10.43 -125.872)"/>
    <path id="Path_54928" data-name="Path 54928" d="M26.951,149.9v.545h-.737v1.106h.705v.545h-.705v1.17h.737v.545H25.621V149.9Z" transform="translate(-21.513 -125.872)"/>
    <path id="Path_54929" data-name="Path 54929" d="M40.911,153.078a.636.636,0,0,1-.545.721.328.328,0,0,1-.176,0h-.369v-.545h.257a.188.188,0,0,0,.224-.16V149.9H40.9v3.174Z" transform="translate(-33.437 -125.872)"/>
    <path id="Path_54930" data-name="Path 54930" d="M49.845,153.716h-.593l-.08-.609h-.625l-.08.609h-.545l.561-3.912h.786Zm-1.218-1.138h.481l-.24-1.956Z" transform="translate(-40.238 -125.788)"/>
    <path id="Path_54931" data-name="Path 54931" d="M62.989,151.982v.914a.636.636,0,0,1-.545.721.328.328,0,0,1-.176,0h-.289a.636.636,0,0,1-.721-.545.328.328,0,0,1,0-.176v-2.533a.636.636,0,0,1,.545-.721.328.328,0,0,1,.176,0h.289a.636.636,0,0,1,.721.529.391.391,0,0,1,0,.192v.8H62.4v-.77a.2.2,0,0,0-.224-.224h-.1a.2.2,0,0,0-.224.16v2.533a.188.188,0,0,0,.16.224h.176a.2.2,0,0,0,.224-.224v-.882Z" transform="translate(-51.427 -125.641)"/>
    <path id="Path_54932" data-name="Path 54932" d="M75.491,153.8l-.577-1.908V153.8h-.593v-3.9h.593V151.8l.625-1.892h.625l-.673,1.924.641,1.988h-.641Z" transform="translate(-62.406 -125.872)"/>
    <path id="Path_54933" data-name="Path 54933" d="M92.445,153.716h-.593l-.08-.609h-.625l-.08.609h-.545l.561-3.912h.786Zm-1.218-1.138h.481l-.24-1.956Z" transform="translate(-76.009 -125.788)"/>
    <path id="Path_54934" data-name="Path 54934" d="M105.371,149.9h.529v3.9h-.641l-.609-2.629V153.8h-.529v-3.9h.689l.561,2.421Z" transform="translate(-87.428 -125.872)"/>
    <path id="Path_54935" data-name="Path 54935" d="M117.421,149.855h.9a.742.742,0,0,1,.85.625.528.528,0,0,1,0,.224v2.2a.742.742,0,0,1-.625.85.529.529,0,0,1-.224,0h-.9Zm.593,3.383h.224c.24,0,.337-.112.337-.353v-2.164c0-.24-.112-.353-.337-.353h-.224Z" transform="translate(-98.596 -125.823)"/>
    <path id="Path_54936" data-name="Path 54936" d="M136.145,153.716h-.593l-.08-.609h-.625l-.08.609h-.545l.561-3.912h.786Zm-1.234-1.138h.481l-.24-1.956Z" transform="translate(-112.703 -125.788)"/>
    <path id="Path_54937" data-name="Path 54937" d="M147.721,149.855h.9a.742.742,0,0,1,.85.625.529.529,0,0,1,0,.224v2.2a.742.742,0,0,1-.625.85.529.529,0,0,1-.224,0h-.9Zm.593,3.383h.224c.24,0,.337-.112.337-.353v-2.164c0-.24-.112-.353-.337-.353h-.224Z" transform="translate(-124.039 -125.823)"/>
    <path id="Path_54938" data-name="Path 54938" d="M161.829,153.716h-.593l-.08-.609h-.625l-.064.609h-.545l.561-3.912h.786Zm-1.234-1.138h.481l-.24-1.956Z" transform="translate(-134.283 -125.788)"/>
    <path id="Path_54939" data-name="Path 54939" d="M179.42,152.325v.721a.636.636,0,0,1-.545.721.328.328,0,0,1-.176,0h-.978v-3.9h.962a.636.636,0,0,1,.721.545.328.328,0,0,1,0,.176v.577c0,.353-.112.513-.337.593a.5.5,0,0,1,.353.561M178.6,150.4h-.289v1.138h.257a.215.215,0,0,0,.24-.176v-.737a.2.2,0,0,0-.16-.224.03.03,0,0,0-.048,0m-.289,2.854h.289a.2.2,0,0,0,.224-.16v-.8a.215.215,0,0,0-.176-.24h-.337Z" transform="translate(-149.229 -125.84)"/>
    <path id="Path_54940" data-name="Path 54940" d="M191.751,149.9v.545h-.737v1.106h.705v.545h-.705v1.17h.737v.545h-1.331V149.9Z" transform="translate(-159.893 -125.872)"/>
    <path id="Path_54941" data-name="Path 54941" d="M201.845,153.716h-.593l-.08-.609h-.625l-.08.609h-.545l.561-3.912h.786Zm-1.218-1.138h.481l-.24-1.956Z" transform="translate(-167.87 -125.788)"/>
    <path id="Path_54942" data-name="Path 54942" d="M211.866,153.716v-3.367h-.545V149.8h1.667v.545h-.529v3.367Z" transform="translate(-177.442 -125.788)"/>
    <path id="Path_54943" data-name="Path 54943" d="M223.05,153.716v-3.367h-.529V149.8h1.667v.545h-.529v3.367Z" transform="translate(-186.846 -125.788)"/>
    <rect id="Rectangle_352" data-name="Rectangle 352" width="0.593" height="3.896" transform="translate(37.566 24.032)"/>
    <path id="Path_54944" data-name="Path 54944" d="M241.651,149.9v.545h-.737v1.106h.705v.545h-.705v1.17h.737v.545h-1.331V149.9Z" transform="translate(-201.793 -125.872)"/>
    <path id="Path_54945" data-name="Path 54945" d="M256.419,149.9v.545h-.705v1.122h.673v.545h-.673V153.8h-.593v-3.9Z" transform="translate(-214.22 -125.872)"/>
    <path id="Path_54946" data-name="Path 54946" d="M265.9,153.6h-.321a.636.636,0,0,1-.721-.545.327.327,0,0,1,0-.176v-2.517a.636.636,0,0,1,.545-.721.328.328,0,0,1,.176,0h.321a.636.636,0,0,1,.721.545.328.328,0,0,1,0,.176v2.517a.636.636,0,0,1-.545.721.328.328,0,0,1-.176,0m-.08-3.447h-.128a.188.188,0,0,0-.224.16v2.533a.188.188,0,0,0,.16.224h.192a.2.2,0,0,0,.224-.224v-2.453c-.016-.16-.08-.24-.224-.24" transform="translate(-222.386 -125.641)"/>
    <path id="Path_54947" data-name="Path 54947" d="M279.789,153.11a.636.636,0,0,1-.545.721.328.328,0,0,1-.176,0h-.289a.636.636,0,0,1-.721-.545.327.327,0,0,1,0-.176V149.9h.593v3.19a.188.188,0,0,0,.16.224h.16a.2.2,0,0,0,.224-.224V149.9h.593Z" transform="translate(-233.47 -125.872)"/>
    <path id="Path_54948" data-name="Path 54948" d="M292.371,149.9h.529v3.9h-.641l-.609-2.629V153.8h-.529v-3.9h.689l.561,2.421Z" transform="translate(-244.449 -125.872)"/>
    <path id="Path_54949" data-name="Path 54949" d="M304.521,149.857h.9a.754.754,0,0,1,.85.625.527.527,0,0,1,0,.224v2.2a.742.742,0,0,1-.625.85.528.528,0,0,1-.224,0h-.9Zm.593,3.383h.224c.24,0,.337-.112.337-.353v-2.164c0-.24-.112-.353-.337-.353h-.224Z" transform="translate(-255.701 -125.825)"/>
    <path id="Path_54950" data-name="Path 54950" d="M318.545,153.716h-.593l-.08-.609h-.625l-.08.609h-.545l.561-3.912h.785Zm-1.218-1.138h.481l-.24-1.956Z" transform="translate(-265.861 -125.788)"/>
    <path id="Path_54951" data-name="Path 54951" d="M328.55,153.716v-3.367h-.529V149.8h1.667v.545h-.529v3.367Z" transform="translate(-275.433 -125.788)"/>
    <rect id="Rectangle_353" data-name="Rectangle 353" width="0.593" height="3.896" transform="translate(54.496 24.032)"/>
    <path id="Path_54952" data-name="Path 54952" d="M346.8,153.6h-.321a.636.636,0,0,1-.721-.545.329.329,0,0,1,0-.176v-2.517a.636.636,0,0,1,.545-.721.328.328,0,0,1,.176,0h.321a.636.636,0,0,1,.721.545.327.327,0,0,1,0,.176v2.517a.636.636,0,0,1-.545.721.327.327,0,0,1-.176,0m-.1-3.447h-.128a.188.188,0,0,0-.224.16v2.533a.188.188,0,0,0,.16.224h.192a.2.2,0,0,0,.224-.224v-2.453c0-.16-.064-.24-.224-.24" transform="translate(-290.316 -125.641)"/>
    <path id="Path_54953" data-name="Path 54953" d="M360.271,149.9h.529v3.9h-.641l-.609-2.629V153.8h-.529v-3.9h.689l.561,2.421Z" transform="translate(-301.463 -125.872)"/>
    <path id="Path_54954" data-name="Path 54954" d="M377.414,153.768h-.593v-3.9h.946a.636.636,0,0,1,.721.545.329.329,0,0,1,0,.176v1.042a.636.636,0,0,1-.545.721.328.328,0,0,1-.176,0h-.337Zm.24-3.367h-.24v1.443h.24a.2.2,0,0,0,.224-.224v-.978c0-.176-.064-.24-.224-.24" transform="translate(-316.409 -125.84)"/>
    <path id="Path_54955" data-name="Path 54955" d="M390.736,152.453v1.331h-.593v-1.315a.223.223,0,0,0-.256-.257h-.273v1.571h-.593v-3.912H390a.636.636,0,0,1,.721.545.327.327,0,0,1,0,.176v.737a.581.581,0,0,1-.337.609c.24.064.353.208.353.513M389.9,150.4h-.289v1.283h.273c.176,0,.24-.08.24-.24v-.818a.2.2,0,0,0-.16-.224Z" transform="translate(-326.654 -125.84)"/>
    <path id="Path_54956" data-name="Path 54956" d="M403.067,149.9v.545h-.737v1.106h.705v.545h-.705v1.17h.737v.545h-1.347V149.9Z" transform="translate(-337.317 -125.872)"/>
    <path id="Path_54957" data-name="Path 54957" d="M413.62,152.254v.641a.636.636,0,0,1-.545.721.328.328,0,0,1-.176,0h-.257a.636.636,0,0,1-.721-.529.39.39,0,0,1,0-.192v-.834h.577v.8a.2.2,0,0,0,.224.224h.08a.2.2,0,0,0,.224-.224v-.529a.338.338,0,0,0-.176-.321l-.609-.433a.726.726,0,0,1-.353-.673v-.545a.636.636,0,0,1,.545-.721.328.328,0,0,1,.176,0h.257a.636.636,0,0,1,.721.545.328.328,0,0,1,0,.176v.705h-.577v-.689a.2.2,0,0,0-.16-.224h-.144a.2.2,0,0,0-.224.16v.5a.313.313,0,0,0,.176.321l.609.433a.751.751,0,0,1,.353.689" transform="translate(-345.85 -125.641)"/>
    <path id="Path_54958" data-name="Path 54958" d="M426.051,149.9v.545h-.737v1.106h.705v.545h-.705v1.17h.737v.545h-1.331V149.9Z" transform="translate(-356.63 -125.872)"/>
    <path id="Path_54959" data-name="Path 54959" d="M436.187,149.9h.529v3.9h-.641l-.609-2.629V153.8h-.545v-3.9h.689l.561,2.421Z" transform="translate(-365.195 -125.872)"/>
    <path id="Path_54960" data-name="Path 54960" d="M448.15,153.716v-3.367h-.529V149.8h1.667v.545h-.529v3.367Z" transform="translate(-375.859 -125.788)"/>
    <path id="Path_54961" data-name="Path 54961" d="M460.72,152.254v.641a.636.636,0,0,1-.545.721.328.328,0,0,1-.176,0h-.257a.636.636,0,0,1-.721-.529.39.39,0,0,1,0-.192v-.834h.577v.8a.2.2,0,0,0,.224.224h.08a.2.2,0,0,0,.224-.224v-.529a.338.338,0,0,0-.176-.321l-.609-.433a.725.725,0,0,1-.353-.673v-.545a.636.636,0,0,1,.545-.721.391.391,0,0,1,.192,0h.257a.636.636,0,0,1,.721.545.329.329,0,0,1,0,.176v.705h-.593v-.689a.2.2,0,0,0-.16-.224h-.144a.2.2,0,0,0-.224.16v.5a.313.313,0,0,0,.176.321l.609.433a.751.751,0,0,1,.353.689" transform="translate(-385.399 -125.641)"/>
    <path id="Path_54962" data-name="Path 54962" d="M3.217,201.251H.155v-.994H7.337v.994H4.291v9.138H3.2v-9.138Z" transform="translate(-0.13 -168.152)"/>
    <path id="Path_54963" data-name="Path 54963" d="M41.171,223.048a2.952,2.952,0,1,1-.016.064c.016-.016.016-.032.016-.064m6.124,0a2.528,2.528,0,1,0-2.533,2.645A2.586,2.586,0,0,0,47.3,223.08Z" transform="translate(-34.557 -184.273)"/>
    <path id="Path_54964" data-name="Path 54964" d="M94.671,219.393h1.058v1.026a2.8,2.8,0,0,1,2.357-1.17,2.889,2.889,0,0,1,3.014,3.222v3.864h-1.09v-3.864a1.977,1.977,0,0,0-2.084-2.244,2.2,2.2,0,0,0-2.2,2.18v3.928H94.655Z" transform="translate(-79.48 -184.098)"/>
    <path id="Path_54965" data-name="Path 54965" d="M141.255,225.147l.85-.689a2.666,2.666,0,0,0,2.1,1.09c1.042,0,1.571-.561,1.571-1.2,0-.737-.914-.882-1.876-1.09-1.106-.257-2.309-.625-2.309-1.988a2.282,2.282,0,0,1,2.533-2.02,3.5,3.5,0,0,1,2.645,1.074l-.786.673a2.388,2.388,0,0,0-1.844-.818c-.962,0-1.475.5-1.475,1.09,0,.705.882.882,1.828,1.09,1.122.257,2.357.609,2.357,2,0,.882-.737,2.148-2.661,2.148a3.787,3.787,0,0,1-2.934-1.363" transform="translate(-118.609 -184.096)"/>
    <path id="Path_54966" data-name="Path 54966" d="M202.971,223.048a2.952,2.952,0,1,1-.016.064c.016-.016.016-.032.016-.064m6.14,0a2.528,2.528,0,1,0-2.533,2.645,2.586,2.586,0,0,0,2.533-2.613Z" transform="translate(-170.417 -184.273)"/>
    <path id="Path_54967" data-name="Path 54967" d="M252.255,203.363h1.2v-.545c0-2.068.593-2.661,2.645-2.661h.1v.994c-1.475,0-1.651.257-1.651,1.683v.529H256.2v.978h-1.651v5.98h-1.09v-5.98h-1.2Z" transform="translate(-211.814 -168.068)"/>
    <path id="Path_54968" data-name="Path 54968" d="M311.3,205.82h-5.355v4.585h-1.09V200.257h1.09v4.521H311.3v-4.521h1.09v10.148H311.3Z" transform="translate(-255.981 -168.152)"/>
    <path id="Path_54969" data-name="Path 54969" d="M358.839,222.928a3.544,3.544,0,0,1,3.4-3.671h.192a3.392,3.392,0,0,1,3.559,3.495v.465h-6.108a2.642,2.642,0,0,0,4.97.882l.93.465a3.486,3.486,0,0,1-3.287,1.924,3.443,3.443,0,0,1-3.655-3.559m1.106-.689H364.9a2.3,2.3,0,0,0-2.453-2.02,2.545,2.545,0,0,0-2.5,2.02" transform="translate(-301.308 -184.106)"/>
    <rect id="Rectangle_354" data-name="Rectangle 354" width="1.09" height="10.148" transform="translate(66.076 32.105)"/>
    <path id="Path_54970" data-name="Path 54970" d="M430.2,225.3v4.248h-1.042V219.4h1.026v1.138a3.274,3.274,0,0,1,2.565-1.283,3.616,3.616,0,0,1,0,7.23A3.085,3.085,0,0,1,430.2,225.3m5.018-2.421a2.631,2.631,0,1,0,0,.032Z" transform="translate(-360.353 -184.106)"/>
  </g>
</svg>
