<svg xmlns="http://www.w3.org/2000/svg" xmlns:xlink="http://www.w3.org/1999/xlink" width="95.224" height="24.239" viewBox="0 0 95.224 24.239">
  <defs>
    <clipPath id="clip-path">
      <rect id="Rectangle_356" data-name="Rectangle 356" width="95.224" height="24.239"/>
    </clipPath>
  </defs>
  <g id="Group_1658" data-name="Group 1658" transform="translate(0)">
    <g id="Group_1657" data-name="Group 1657" transform="translate(0)" clip-path="url(#clip-path)">
      <path id="Path_54971" data-name="Path 54971" d="M7.861.6c.09,0,.147.045.147.124v.441c0,.09-.057.124-.147.124H4.4v9.795a.108.108,0,0,1-.124.124H3.744a.108.108,0,0,1-.124-.124V1.313H.147C.057,1.313,0,1.267,0,1.177V.736C0,.645.057.6.147.6Z" transform="translate(0 -0.532)"/>
      <path id="Path_54972" data-name="Path 54972" d="M92.266.6a.108.108,0,0,1,.124.124V11.1a.108.108,0,0,1-.124.124h-.532a.108.108,0,0,1-.124-.124V6.12H84.88v4.988a.108.108,0,0,1-.124.124h-.532a.108.108,0,0,1-.124-.124V.736a.108.108,0,0,1,.124-.124h.532c.079-.011.124.034.124.124V5.4h6.73V.736a.108.108,0,0,1,.124-.124h.532Z" transform="translate(-74.588 -0.532)"/>
      <path id="Path_54973" data-name="Path 54973" d="M177.2.6a.108.108,0,0,1,.124.124v.441a.108.108,0,0,1-.124.124h-5.7V5.769h5.169c.09,0,.124.057.124.147v.441a.108.108,0,0,1-.124.124H171.5v4.027h5.7a.108.108,0,0,1,.124.124v.441a.108.108,0,0,1-.124.124h-6.289c-.147,0-.215-.068-.215-.2V.815A.187.187,0,0,1,170.915.6Z" transform="translate(-151.393 -0.532)"/>
      <path id="Path_54974" data-name="Path 54974" d="M249.611.6c.09,0,.147.045.147.124v.339a.793.793,0,0,1-.057.2l-4.977,9.863a.171.171,0,0,1-.158.1h-.6c-.1,0-.147-.068-.1-.158l4.92-9.772h-5.938c-.1,0-.147-.045-.147-.124V.736c0-.09.045-.124.147-.124h6.764Z" transform="translate(-215.249 -0.532)"/>
      <path id="Path_54975" data-name="Path 54975" d="M316.179.1c.091,0,.124.045.124.113V.577c0,.09-.045.124-.113.124h-3.11c-1.583,0-2.33.475-2.33,1.595v.192c0,.871.2,1.335,1.267,1.776L315.376,5.7a2.393,2.393,0,0,1,1.493,2.409v.385c0,2.239-1.832,2.285-3.484,2.285-.758,0-2.556-.034-3.472-.1a.11.11,0,0,1-.113-.124v-.362a.116.116,0,0,1,.124-.113h3.642c1.289,0,2.511-.124,2.511-1.595V8.166A1.838,1.838,0,0,0,314.912,6.3L311.44,4.852a2.114,2.114,0,0,1-1.493-2.3V2.285C309.958.464,311.282,0,313.284,0c.746,0,1.991.034,2.9.1" transform="translate(-274.76 0)"/>
      <path id="Path_54976" data-name="Path 54976" d="M388.861.6c.09,0,.147.045.147.124v.441c0,.09-.057.124-.147.124H385.4v9.795a.108.108,0,0,1-.124.124h-.532a.108.108,0,0,1-.124-.124V1.313h-3.472c-.09,0-.147-.045-.147-.124V.736c0-.09.057-.124.147-.124h7.714Z" transform="translate(-337.907 -0.532)"/>
      <path id="Path_54977" data-name="Path 54977" d="M450.436,1.64l2.477,8.924c.034.113,0,.147-.1.147h-.588c-.068,0-.09-.034-.113-.124l-.973-3.461h-4.66l-.973,3.45c-.034.1-.057.124-.124.124h-.588c-.1,0-.124-.034-.113-.147l2.545-8.924C447.609.215,447.767,0,448.808,0c1.1,0,1.244.215,1.629,1.64m-2.466.181L446.681,6.4h4.264l-1.267-4.581C449.407.86,449.35.7,448.808.7c-.509,0-.566.158-.837,1.12" transform="translate(-394.381 0)"/>
      <path id="Path_54978" data-name="Path 54978" d="M536.167,3.412c0,2.387-.633,3.043-2.466,3.224l2.511,3.97c.057.09.034.17-.1.17h-.486a.315.315,0,0,1-.328-.181L532.831,6.7h-2.816V10.65c0,.1-.045.124-.147.124h-.52c-.1,0-.147-.034-.147-.124V.279c0-.1.045-.124.147-.124C530.161.109,531.225.1,531.813.1c3.291-.011,4.355.294,4.355,3.314M530.014.788V6h1.764c2.782,0,3.6-.113,3.6-2.567S534.561.8,531.779.8h-1.764Z" transform="translate(-469.344 -0.086)"/>
      <path id="Path_54979" data-name="Path 54979" d="M607.179.1c.09,0,.124.045.124.113V.577c0,.09-.045.124-.113.124h-3.11c-1.583,0-2.33.475-2.33,1.595v.192c0,.871.2,1.335,1.267,1.776L606.376,5.7a2.393,2.393,0,0,1,1.493,2.409v.385c0,2.239-1.832,2.285-3.484,2.285-.758,0-2.556-.034-3.472-.1a.11.11,0,0,1-.113-.124v-.362a.116.116,0,0,1,.124-.113h3.642c1.289,0,2.511-.124,2.511-1.595V8.166A1.838,1.838,0,0,0,605.912,6.3L602.44,4.852a2.114,2.114,0,0,1-1.493-2.3V2.285C600.958.464,602.282,0,604.284,0c.747,0,2,.034,2.9.1" transform="translate(-532.846 0)"/>
      <path id="Path_54980" data-name="Path 54980" d="M10.737,115.411a.187.187,0,0,1,.215.215v1.538a.187.187,0,0,1-.215.215H5.851v2.726h4.434c.147,0,.226.068.226.215v1.459a.2.2,0,0,1-.226.215H5.851v4.287c0,.158-.068.226-.215.226H3.815c-.147,0-.215-.068-.215-.226V115.615a.187.187,0,0,1,.215-.215h6.922Z" transform="translate(-3.193 -102.348)"/>
      <path id="Path_54981" data-name="Path 54981" d="M88.9,120.355c0,4.332-1,5.61-4.649,5.61s-4.649-1.278-4.649-5.61c0-4.366,1-5.655,4.649-5.655s4.649,1.289,4.649,5.655m-7.013,0c0,2.782.385,3.642,2.364,3.642s2.364-.86,2.364-3.642c0-2.816-.385-3.687-2.364-3.687s-2.364.871-2.364,3.687" transform="translate(-70.597 -101.727)"/>
      <path id="Path_54982" data-name="Path 54982" d="M184.867,115.5c.158,0,.215.057.215.215v5.35c0,4.49-.9,5.61-4.536,5.61s-4.547-1.12-4.547-5.61v-5.35c0-.158.057-.215.215-.215h1.821c.158,0,.215.057.215.215v5.35c0,2.918.464,3.642,2.3,3.642s2.285-.735,2.285-3.642v-5.35c0-.158.057-.215.215-.215Z" transform="translate(-156.093 -102.436)"/>
      <path id="Path_54983" data-name="Path 54983" d="M282.6,115.5c.147,0,.215.068.215.226v10.643c0,.158-.068.226-.215.226h-1.335a.748.748,0,0,1-.713-.362l-4.705-6.9v7.035c0,.158-.068.226-.215.226h-1.821c-.147,0-.215-.068-.215-.226V115.726c0-.158.068-.226.215-.226h1.414a.818.818,0,0,1,.894.475l4.445,6.5v-6.741c0-.158.068-.226.215-.226H282.6Z" transform="translate(-242.654 -102.436)"/>
      <path id="Path_54984" data-name="Path 54984" d="M382.126,120.344c0,3.97-1.278,5.621-4.649,5.621-1.4,0-2.9-.045-4.162-.147-.17-.011-.215-.045-.215-.181V115.062c0-.158.045-.181.215-.2,1.267-.113,2.76-.158,4.162-.158,3.382,0,4.649,1.685,4.649,5.644m-6.764-3.676V124h2.126c1.742,0,2.364-1.086,2.364-3.665,0-2.556-.656-3.676-2.477-3.676h-2.013Z" transform="translate(-330.9 -101.727)"/>
      <path id="Path_54985" data-name="Path 54985" d="M465.412,116.419l2.522,9.241c.034.17-.045.226-.192.226h-1.832c-.124,0-.147-.057-.181-.226l-.814-2.986h-3.846l-.837,2.986c-.045.17-.057.226-.2.226h-1.821c-.158,0-.215-.057-.181-.226l2.567-9.241c.43-1.561.713-1.719,2.387-1.719,1.719,0,1.991.158,2.432,1.719m-2.8.588-1.052,3.8h2.839l-1.029-3.8c-.1-.339-.113-.418-.407-.418-.238.011-.26.079-.351.418" transform="translate(-406.212 -101.727)"/>
      <path id="Path_54986" data-name="Path 54986" d="M548.86,115.5c.147,0,.226.068.226.215v1.538a.2.2,0,0,1-.226.215h-3v8.913c0,.158-.068.226-.215.226h-1.821c-.147,0-.215-.068-.215-.226v-8.913h-3a.187.187,0,0,1-.215-.215v-1.538a.187.187,0,0,1,.215-.215Z" transform="translate(-479.278 -102.436)"/>
      <path id="Path_54987" data-name="Path 54987" d="M630.336,115.5c.147,0,.215.068.215.226v10.643c0,.158-.068.226-.215.226h-1.821c-.147,0-.215-.068-.215-.226V115.726c0-.158.068-.226.215-.226h1.821" transform="translate(-557.236 -102.436)"/>
      <path id="Path_54988" data-name="Path 54988" d="M672.5,120.355c0,4.332-1,5.61-4.649,5.61s-4.649-1.278-4.649-5.61c0-4.366,1-5.655,4.649-5.655s4.649,1.289,4.649,5.655m-7.024,0c0,2.782.385,3.642,2.364,3.642s2.364-.86,2.364-3.642c0-2.816-.385-3.687-2.364-3.687s-2.364.871-2.364,3.687" transform="translate(-588.188 -101.727)"/>
      <path id="Path_54989" data-name="Path 54989" d="M769.4,115.5c.147,0,.215.068.215.226v10.643c0,.158-.068.226-.215.226h-1.335a.748.748,0,0,1-.713-.362l-4.705-6.9v7.035c0,.158-.068.226-.215.226h-1.821c-.147,0-.215-.068-.215-.226V115.726c0-.158.068-.226.215-.226h1.425a.818.818,0,0,1,.893.475l4.445,6.5v-6.741c0-.158.068-.226.215-.226h1.81Z" transform="translate(-674.394 -102.436)"/>
    </g>
  </g>
</svg>
