<svg xmlns="http://www.w3.org/2000/svg" xmlns:xlink="http://www.w3.org/1999/xlink" width="90.217" height="28.489" viewBox="0 0 90.217 28.489">
  <defs>
    <clipPath id="clip-path">
      <rect id="Rectangle_588" data-name="Rectangle 588" width="90.217" height="28.488" fill="none"/>
    </clipPath>
  </defs>
  <g id="Group_2314" data-name="Group 2314" transform="translate(0)">
    <g id="Group_2313" data-name="Group 2313" transform="translate(0)" clip-path="url(#clip-path)">
      <path id="Path_55657" data-name="Path 55657" d="M125.993,54.671l2.884-8.171h-3.654l-.873,2.861a7.877,7.877,0,0,1,1.609,4.8,3.615,3.615,0,0,0,.034.506" transform="translate(-110.06 -41.156)"/>
      <path id="Path_55658" data-name="Path 55658" d="M182.9,50.375a4.457,4.457,0,0,1,4.229-4.723,7.7,7.7,0,0,1,.885.092l.425.069V42.4h-.816a5.611,5.611,0,0,0-3.517,1.241,9.208,9.208,0,0,0-1.207,1.207V42.733H179.65V58.351H182.9Z" transform="translate(-159.005 -37.527)"/>
      <path id="Path_55659" data-name="Path 55659" d="M271.572,51.214a10.1,10.1,0,0,0,.1-1.172,7.4,7.4,0,0,0-7.654-7.642,8.029,8.029,0,0,0-7.975,8.067v.069a8.049,8.049,0,0,0,7.964,8.136h.172a8.828,8.828,0,0,0,5.045-1.459,6.412,6.412,0,0,0,1.632-1.471l-1.954-2.275a5.268,5.268,0,0,1-1.241,1.069,6.012,6.012,0,0,1-3.321,1.046,4.828,4.828,0,0,1-4.884-3.907H271.5Zm-12.1-2.31a4.521,4.521,0,0,1,4.551-3.574,4.181,4.181,0,0,1,4.229,3.574Z" transform="translate(-226.622 -37.527)"/>
      <path id="Path_55660" data-name="Path 55660" d="M400.592,15.939c0,3.413,1.758,5.206,4.884,5.206a6.06,6.06,0,0,0,1.758-.23l.678-.264V17.56l-.517.264a3.67,3.67,0,0,1-1.264.23c-1.528,0-2.275-.816-2.275-2.436V8.3h3.586V5.206h-3.586V0h-2.942V3.413c0,1.287-.46,1.793-1.471,1.793H397.65V8.3h2.93Z" transform="translate(-351.952)"/>
      <path id="Path_55661" data-name="Path 55661" d="M503.306,58.673a8.828,8.828,0,0,0,5.045-1.459,6.129,6.129,0,0,0,1.609-1.471l-1.954-2.275a5.268,5.268,0,0,1-1.241,1.069,6.012,6.012,0,0,1-3.321,1.046,4.8,4.8,0,0,1-4.884-3.907H510.6l.069-.46a8.059,8.059,0,0,0,.092-1.172,7.4,7.4,0,0,0-7.642-7.642,8.021,8.021,0,0,0-7.975,8.067v.057a8.049,8.049,0,0,0,7.964,8.136,1.114,1.114,0,0,0,.2.011m-.161-13.342a4.181,4.181,0,0,1,4.229,3.574h-8.791a4.533,4.533,0,0,1,4.562-3.574" transform="translate(-438.244 -37.527)"/>
      <path id="Path_55662" data-name="Path 55662" d="M15.934,52.591A3.572,3.572,0,0,1,15.9,52.1a7.877,7.877,0,0,0-1.609-4.8,9.527,9.527,0,0,0-.712-.816,7.955,7.955,0,1,0,0,11.251,7.811,7.811,0,0,0,.7-.8,8.041,8.041,0,0,0,4.539,2.93V56.441a4.7,4.7,0,0,1-2.884-3.85m-4.654,2.827A4.7,4.7,0,1,1,12.647,52.1a4.648,4.648,0,0,1-1.368,3.321" transform="translate(0 -39.076)"/>
      <path id="Path_55663" data-name="Path 55663" d="M668.768,62.691l4.137-7.746L668.768,47.2H665.55l4.137,7.746-4.137,7.746Z" transform="translate(-589.066 -41.776)"/>
      <path id="Path_55664" data-name="Path 55664" d="M728.4,54.946,724.279,47.2H721.05l4.137,7.746-4.137,7.746h3.229Z" transform="translate(-638.187 -41.776)"/>
      <path id="Path_55665" data-name="Path 55665" d="M2.731,223.078H1.95V222.4H4.283v.678H3.5v2.137H2.743Z" transform="translate(-1.726 -196.842)"/>
      <path id="Path_55666" data-name="Path 55666" d="M48.45,222.4h.758v1.023h1.023V222.4h.758v2.816h-.758v-1.069H49.208v1.069H48.45Z" transform="translate(-42.882 -196.842)"/>
      <path id="Path_55667" data-name="Path 55667" d="M98.95,222.4h2.16v.678H99.72v.4h1.069v.644H99.72v.4h1.425v.678H98.95Z" transform="translate(-87.579 -196.842)"/>
      <path id="Path_55668" data-name="Path 55668" d="M175.35,222.4h2.126v.724H176.12v.483h1.046v.678H176.12v.919h-.758v-2.8Z" transform="translate(-155.199 -196.842)"/>
      <path id="Path_55669" data-name="Path 55669" d="M220.013,221.612a1.49,1.49,0,1,1-1.563,1.482,1.518,1.518,0,0,1,1.517-1.494.069.069,0,0,0,.046.012m0,2.275a.781.781,0,1,0-.781-.781.782.782,0,0,0,.781.781h0" transform="translate(-193.346 -196.134)"/>
      <path id="Path_55670" data-name="Path 55670" d="M272.362,222.4h.758v1.643a.524.524,0,1,0,1.046.08V222.4h.758v1.643a1.287,1.287,0,0,1-2.574,0Z" transform="translate(-241.052 -196.842)"/>
      <path id="Path_55671" data-name="Path 55671" d="M322.861,222.4h.667l1.2,1.551V222.4h.758v2.816h-.655l-1.218-1.551v1.551h-.758Z" transform="translate(-285.748 -196.842)"/>
      <path id="Path_55672" data-name="Path 55672" d="M374.15,222.371H375.2a1.411,1.411,0,0,1,.2,2.816H374.15ZM375.2,224.5a.724.724,0,1,0,0-1.448h-.276V224.5Z" transform="translate(-331.153 -196.813)"/>
      <path id="Path_55673" data-name="Path 55673" d="M421.007,222.4h.839l1.057,2.816h-.827l-.2-.6h-.908l-.2.6h-.827Zm.678,1.586-.253-.8-.253.8Z" transform="translate(-371.69 -196.842)"/>
      <path id="Path_55674" data-name="Path 55674" d="M467.631,223.078h-.781V222.4h2.333v.678H468.4v2.137h-.758v-2.137Z" transform="translate(-413.2 -196.842)"/>
      <rect id="Rectangle_587" data-name="Rectangle 587" width="0.77" height="2.816" transform="translate(58.994 25.558)"/>
      <path id="Path_55675" data-name="Path 55675" d="M548.513,221.612a1.49,1.49,0,1,1-1.563,1.482,1.521,1.521,0,0,1,1.528-1.494c0,.012.023.012.035.012m0,2.275a.787.787,0,1,0-.781-.793.771.771,0,0,0,.781.793h0" transform="translate(-484.095 -196.134)"/>
      <path id="Path_55676" data-name="Path 55676" d="M601.15,222.4h.667l1.207,1.551V222.4h.758v2.816h-.655l-1.207-1.551v1.551h-.758V222.4Z" transform="translate(-532.066 -196.842)"/>
    </g>
  </g>
</svg>
