<svg id="Group_1665" data-name="Group 1665" xmlns="http://www.w3.org/2000/svg" xmlns:xlink="http://www.w3.org/1999/xlink" width="92.172" height="38.792" viewBox="0 0 92.172 38.792">
  <defs>
    <clipPath id="clip-path">
      <rect id="Rectangle_361" data-name="Rectangle 361" width="92.172" height="38.793" fill="none"/>
    </clipPath>
  </defs>
  <path id="Path_55029" data-name="Path 55029" d="M.1.7V2.329H1.715V12.454H3.507V2.329H5.122V.7Z" transform="translate(-0.086 -0.604)"/>
  <path id="Path_55030" data-name="Path 55030" d="M45.517.7V5.653H43.793V.7H42V12.454h1.793V7.282h1.724v5.172h1.793V.7Z" transform="translate(-36.253 -0.604)"/>
  <path id="Path_55031" data-name="Path 55031" d="M86.2.7V12.454h4.037V10.826h-2.23V7.282h2.107V5.653H88.006V2.328H90.2V.7Z" transform="translate(-74.405 -0.604)"/>
  <g id="Group_1664" data-name="Group 1664">
    <g id="Group_1663" data-name="Group 1663" clip-path="url(#clip-path)">
      <path id="Path_55032" data-name="Path 55032" d="M139.484,10.278a1.931,1.931,0,0,1-2.189,2.189H136.2V10.826h.794a.6.6,0,0,0,.684-.684V.7h1.793v9.578Z" transform="translate(-117.563 -0.604)"/>
      <path id="Path_55033" data-name="Path 55033" d="M167.819,3.049l.725,5.87H167.08ZM166.683.6,165,12.368h1.656l.219-1.847h1.861l.233,1.847h1.779L169.05.6Z" transform="translate(-142.422 -0.518)"/>
      <path id="Path_55034" data-name="Path 55034" d="M216.854,7.033V9.77a1.922,1.922,0,0,1-2.189,2.176h-.889A1.918,1.918,0,0,1,211.6,9.77V2.176A1.918,1.918,0,0,1,213.776,0h.876a1.9,1.9,0,0,1,2.162,2.162V4.557h-1.765V2.271c0-.465-.219-.684-.671-.684h-.3a.6.6,0,0,0-.684.684V9.688a.6.6,0,0,0,.684.684h.342c.452,0,.671-.219.671-.684V7.033Z" transform="translate(-182.646)"/>
      <path id="Path_55035" data-name="Path 55035" d="M261.053.7l-1.861,5.679V.7H257.4V12.454h1.793V6.693l1.752,5.761h1.929l-1.957-5.98L262.942.7Z" transform="translate(-222.179 -0.604)"/>
      <path id="Path_55036" data-name="Path 55036" d="M317.932,3.049l.725,5.87h-1.464ZM316.783.6,315.1,12.368h1.656l.219-1.847h1.861l.233,1.847h1.779L319.15.6Z" transform="translate(-271.984 -0.518)"/>
      <path id="Path_55037" data-name="Path 55037" d="M366.363.7l.014,7.307L364.707.7H362.6V12.454h1.615L364.2,4.531l1.834,7.923h1.943V.7Z" transform="translate(-312.984 -0.604)"/>
      <path id="Path_55038" data-name="Path 55038" d="M411.506,10.88h.657c.712,0,1.026-.342,1.026-1.04V3.327c0-.712-.315-1.04-1.026-1.04h-.657ZM409.7.7h2.709a2.251,2.251,0,0,1,2.572,2.572V9.882a2.256,2.256,0,0,1-2.572,2.572H409.7Z" transform="translate(-353.639 -0.604)"/>
      <path id="Path_55039" data-name="Path 55039" d="M471.819,3.049l.725,5.87H471.08ZM470.683.6,469,12.368h1.656l.219-1.847h1.861l.233,1.847h1.779L473.05.6Z" transform="translate(-404.825 -0.518)"/>
      <path id="Path_55040" data-name="Path 55040" d="M518.206,10.88h.657c.712,0,1.026-.342,1.026-1.04V3.327c0-.712-.315-1.04-1.026-1.04h-.657ZM516.414.7h2.709a2.252,2.252,0,0,1,2.559,2.572V9.882a2.256,2.256,0,0,1-2.572,2.572H516.4V.7Z" transform="translate(-445.739 -0.604)"/>
      <path id="Path_55041" data-name="Path 55041" d="M561.932,3.049l.725,5.87h-1.464ZM560.783.6,559.1,12.368h1.656l.219-1.847h1.861l.233,1.847h1.779L563.15.6Z" transform="translate(-482.596 -0.518)"/>
      <path id="Path_55042" data-name="Path 55042" d="M1.779,118.68h.889a.589.589,0,0,0,.67-.67v-2.23a.643.643,0,0,0-.739-.739H1.779Zm.862-8.593H1.779v3.421h.794a.643.643,0,0,0,.739-.739v-2.011a.589.589,0,0,0-.67-.67M5.118,115.9v2.162a1.932,1.932,0,0,1-2.189,2.189H0V108.5H2.9a1.918,1.918,0,0,1,2.176,2.176V112.4c0,1.04-.356,1.56-1.013,1.793a1.546,1.546,0,0,1,1.054,1.71" transform="translate(0 -93.653)"/>
      <path id="Path_55043" data-name="Path 55043" d="M46.3,108.5v1.628h-2.2v3.325h2.121v1.628H44.093v3.544h2.244v1.628H42.3V108.5Z" transform="translate(-36.512 -93.653)"/>
      <path id="Path_55044" data-name="Path 55044" d="M77.98,116.733h1.464l-.725-5.87Zm3.681,3.435H79.882l-.233-1.847H77.788l-.219,1.847H75.9L77.583,108.4h2.381Z" transform="translate(-65.514 -93.567)"/>
      <path id="Path_55045" data-name="Path 55045" d="M117.415,120.254V110.128H115.8V108.5h5.022v1.628h-1.615v10.126Z" transform="translate(-99.955 -93.653)"/>
      <path id="Path_55046" data-name="Path 55046" d="M157.8,120.254V110.128h-1.6V108.5h5.008v1.628h-1.6v10.126Z" transform="translate(-134.826 -93.653)"/>
      <rect id="Rectangle_359" data-name="Rectangle 359" width="1.793" height="11.754" transform="translate(27.107 14.847)"/>
      <path id="Path_55047" data-name="Path 55047" d="M221.4,108.5v1.628h-2.2v3.325h2.121v1.628h-2.121v3.544h2.23v1.628H217.4V108.5Z" transform="translate(-187.652 -93.653)"/>
      <path id="Path_55048" data-name="Path 55048" d="M273.313,108.5v1.628h-2.121v3.393h2.039v1.628h-2.039v5.1H269.4V108.5Z" transform="translate(-232.537 -93.653)"/>
      <path id="Path_55049" data-name="Path 55049" d="M307.06,109.287h-.369a.6.6,0,0,0-.684.684v7.416a.6.6,0,0,0,.684.684h.369c.452,0,.671-.219.671-.684v-7.416c0-.465-.219-.684-.671-.684m.287,10.372h-.958a1.932,1.932,0,0,1-2.189-2.189v-7.581a1.932,1.932,0,0,1,2.189-2.189h.958a1.931,1.931,0,0,1,2.189,2.189v7.581a1.937,1.937,0,0,1-2.189,2.189" transform="translate(-262.575 -92.963)"/>
      <path id="Path_55050" data-name="Path 55050" d="M355.754,118.174a1.931,1.931,0,0,1-2.189,2.189h-.876a1.932,1.932,0,0,1-2.189-2.189V108.5h1.793v9.578a.6.6,0,0,0,.684.684h.287c.452,0,.671-.219.671-.684V108.5h1.793v9.674Z" transform="translate(-302.54 -93.653)"/>
      <path id="Path_55051" data-name="Path 55051" d="M400.363,108.5h1.615v11.754h-1.957l-1.82-7.923.014,7.923H396.6V108.5h2.094l1.683,7.307Z" transform="translate(-342.332 -93.653)"/>
      <path id="Path_55052" data-name="Path 55052" d="M445.493,118.68h.657c.712,0,1.026-.342,1.026-1.04v-6.513c0-.712-.315-1.04-1.026-1.04h-.657ZM443.7,108.5h2.709a2.251,2.251,0,0,1,2.573,2.572v6.609a2.256,2.256,0,0,1-2.573,2.572H443.7Z" transform="translate(-382.987 -93.653)"/>
      <path id="Path_55053" data-name="Path 55053" d="M488.566,116.733h1.464l-.725-5.87Zm3.681,3.435h-1.779l-.233-1.847h-1.861l-.219,1.847H486.5l1.683-11.768h2.381Z" transform="translate(-419.93 -93.567)"/>
      <path id="Path_55054" data-name="Path 55054" d="M527.915,120.254V110.128H526.3V108.5h5.022v1.628h-1.615v10.126Z" transform="translate(-454.284 -93.653)"/>
      <rect id="Rectangle_360" data-name="Rectangle 360" width="1.793" height="11.754" transform="translate(77.749 14.847)"/>
      <path id="Path_55055" data-name="Path 55055" d="M590.746,109.287h-.369a.6.6,0,0,0-.684.684v7.416a.6.6,0,0,0,.684.684h.369c.452,0,.671-.219.671-.684v-7.416c0-.465-.219-.684-.671-.684m.287,10.372h-.958a1.922,1.922,0,0,1-2.176-2.189v-7.581a1.927,1.927,0,0,1,2.176-2.189h.958a1.931,1.931,0,0,1,2.189,2.189v7.581a1.926,1.926,0,0,1-2.189,2.189" transform="translate(-507.455 -92.963)"/>
      <path id="Path_55056" data-name="Path 55056" d="M638.149,108.5l.027,7.307-1.683-7.307H634.4v11.754H636l-.014-7.923,1.834,7.923h1.943V108.5Z" transform="translate(-547.592 -93.653)"/>
      <path id="Path_55057" data-name="Path 55057" d="M.1,229.9v5.487H.688V232.91H3.206v-.547H.688v-1.916H3.206V229.9Z" transform="translate(-0.086 -198.442)"/>
      <path id="Path_55058" data-name="Path 55058" d="M29.8,235.3h.588v-3.763H29.8Zm0-4.42h.588V229.8H29.8Z" transform="translate(-25.722 -198.355)"/>
      <path id="Path_55059" data-name="Path 55059" d="M43.766,243.957a1.413,1.413,0,0,0-1.409-1.437,1.438,1.438,0,0,0,0,2.874,1.413,1.413,0,0,0,1.409-1.437m-3.366,0A1.908,1.908,0,0,1,42.329,242a1.763,1.763,0,0,1,1.382.7v-.616h.575v3.695a1.92,1.92,0,0,1-3.626.862l.575-.192a1.188,1.188,0,0,0,1.2.712,1.248,1.248,0,0,0,1.286-1.382V245.2a1.769,1.769,0,0,1-1.4.7,1.9,1.9,0,0,1-1.929-1.943" transform="translate(-34.872 -208.886)"/>
      <path id="Path_55060" data-name="Path 55060" d="M76.3,229.9h.575v2.285a1.5,1.5,0,0,1,1.286-.629,1.56,1.56,0,0,1,1.628,1.751v2.08H79.2v-2.094a1.08,1.08,0,0,0-1.136-1.218,1.192,1.192,0,0,0-1.19,1.232v2.08H76.3Z" transform="translate(-65.86 -198.442)"/>
      <path id="Path_55061" data-name="Path 55061" d="M105.9,234.818h.643v-.889l.588-.328v1.218h.889v.534h-.876v1.793c0,.766.137.889.889.889v.547h-.082c-1.095,0-1.4-.315-1.4-1.437v-1.793h-.643v-.534Z" transform="translate(-91.409 -201.636)"/>
      <path id="Path_55062" data-name="Path 55062" d="M127.7,235.3h.588v-3.763H127.7Zm0-4.42h.588V229.8H127.7Z" transform="translate(-110.226 -198.355)"/>
      <path id="Path_55063" data-name="Path 55063" d="M139.4,242.068h.575v.561a1.5,1.5,0,0,1,1.286-.629,1.56,1.56,0,0,1,1.628,1.751v2.08H142.3v-2.094a1.08,1.08,0,0,0-1.136-1.218,1.192,1.192,0,0,0-1.19,1.232v2.08H139.4Z" transform="translate(-120.325 -208.886)"/>
      <path id="Path_55064" data-name="Path 55064" d="M174.466,243.957a1.413,1.413,0,0,0-1.409-1.437,1.438,1.438,0,0,0,0,2.874,1.413,1.413,0,0,0,1.409-1.437m-3.366,0A1.908,1.908,0,0,1,173.029,242a1.763,1.763,0,0,1,1.382.7v-.616h.575v3.695a1.92,1.92,0,0,1-3.626.862l.575-.192a1.188,1.188,0,0,0,1.2.712,1.248,1.248,0,0,0,1.286-1.382V245.2a1.769,1.769,0,0,1-1.4.7,1.9,1.9,0,0,1-1.929-1.943" transform="translate(-147.688 -208.886)"/>
      <path id="Path_55065" data-name="Path 55065" d="M219.8,232.219a2.815,2.815,0,0,1,2.819-2.819,2.858,2.858,0,0,1,2.449,1.409l-.506.3a2.24,2.24,0,1,0-1.943,3.393,2.139,2.139,0,0,0,2-1.231l.52.274a2.8,2.8,0,0,1-2.518,1.519,2.865,2.865,0,0,1-2.819-2.846" transform="translate(-189.724 -198.01)"/>
      <path id="Path_55066" data-name="Path 55066" d="M267.111,243.957a1.37,1.37,0,1,0-1.368,1.437,1.4,1.4,0,0,0,1.368-1.437m-3.311,0a1.95,1.95,0,1,1,1.943,1.957,1.928,1.928,0,0,1-1.943-1.957" transform="translate(-227.703 -208.886)"/>
      <path id="Path_55067" data-name="Path 55067" d="M298.514,242.5h.575v.547a1.148,1.148,0,0,1,1.04-.547h.465v.547h-.465c-.766,0-1.04.4-1.04,1.273v1.943H298.5V242.5Z" transform="translate(-257.655 -209.318)"/>
      <path id="Path_55068" data-name="Path 55068" d="M320,242.068h.575v.561a1.5,1.5,0,0,1,1.286-.629,1.56,1.56,0,0,1,1.628,1.751v2.08H322.9v-2.094a1.08,1.08,0,0,0-1.136-1.218,1.192,1.192,0,0,0-1.191,1.232v2.08H320Z" transform="translate(-276.213 -208.886)"/>
      <path id="Path_55069" data-name="Path 55069" d="M352.3,243.615h2.682a1.255,1.255,0,0,0-1.327-1.095,1.367,1.367,0,0,0-1.355,1.095m-.6.369A1.91,1.91,0,0,1,353.643,242a1.839,1.839,0,0,1,1.929,1.9v.246h-3.311a1.423,1.423,0,0,0,2.682.465l.506.246a1.993,1.993,0,0,1-3.749-.876" transform="translate(-303.575 -208.886)"/>
      <path id="Path_55070" data-name="Path 55070" d="M386.314,242.5h.575v.547a1.148,1.148,0,0,1,1.04-.547h.465v.547h-.465c-.766,0-1.04.4-1.04,1.273v1.943H386.3V242.5Z" transform="translate(-333.441 -209.318)"/>
      <path id="Path_55071" data-name="Path 55071" d="M405.3,245.1l.465-.383a1.444,1.444,0,0,0,1.136.588c.561,0,.848-.3.848-.643,0-.4-.493-.479-1.013-.588-.6-.137-1.245-.342-1.245-1.081a1.234,1.234,0,0,1,1.368-1.095,1.937,1.937,0,0,1,1.437.575l-.424.356a1.266,1.266,0,0,0-1-.438c-.52,0-.794.274-.794.588,0,.383.479.479.985.588.616.151,1.273.328,1.273,1.081,0,.479-.4,1.163-1.45,1.163a1.942,1.942,0,0,1-1.587-.712" transform="translate(-349.841 -208.8)"/>
    </g>
  </g>
</svg>
