<svg xmlns="http://www.w3.org/2000/svg" xmlns:xlink="http://www.w3.org/1999/xlink" width="76.742" height="28.607" viewBox="0 0 76.742 28.607">
  <defs>
    <clipPath id="clip-path">
      <rect id="Rectangle_589" data-name="Rectangle 589" width="76.742" height="28.607" fill="none"/>
    </clipPath>
  </defs>
  <g id="Group_2316" data-name="Group 2316" transform="translate(0)">
    <g id="Group_2315" data-name="Group 2315" transform="translate(0)" clip-path="url(#clip-path)">
      <path id="Path_55677" data-name="Path 55677" d="M33.739,86.284c-.547-.049-1.1-.066-1.645-.161a5.371,5.371,0,0,1-1.555-.476,2.385,2.385,0,0,1-1.328-1.88,4.48,4.48,0,0,1-.041-.522c0-.079.028-.11.107-.1h2.888c.115,0,.182.015.2.151a.458.458,0,0,0,.312.317,2.285,2.285,0,0,0,.724.171,15.94,15.94,0,0,0,2.86.005,1.439,1.439,0,0,0,.43-.1.289.289,0,0,0,.2-.294.284.284,0,0,0-.212-.284,1.868,1.868,0,0,0-.473-.092c-.576-.051-1.154-.064-1.732-.084a16.425,16.425,0,0,1-2.765-.279,4.774,4.774,0,0,1-1.294-.437A2.014,2.014,0,0,1,29.3,80.426a2.77,2.77,0,0,1,.059-.821,2.076,2.076,0,0,1,.934-1.266,4.3,4.3,0,0,1,1.415-.565,11.43,11.43,0,0,1,2.341-.258,15.753,15.753,0,0,1,2.277.095,6.141,6.141,0,0,1,1.844.483,2.535,2.535,0,0,1,1.289,1.2,2.784,2.784,0,0,1,.248,1.033c.013.177.008.182-.169.182H37.681c-.3,0-.591,0-.888,0-.143,0-.269.02-.315-.179-.028-.12-.169-.166-.284-.207A2.325,2.325,0,0,0,35.563,80a16.634,16.634,0,0,0-2.5-.005,1.288,1.288,0,0,0-.394.082.277.277,0,0,0-.2.292c.008.13.064.192.23.24a1.979,1.979,0,0,0,.458.067c.6.031,1.195.056,1.793.082a21.956,21.956,0,0,1,2.492.207,5.586,5.586,0,0,1,1.3.343A1.956,1.956,0,0,1,40.06,83.03a3.158,3.158,0,0,1-.164,1.389,2.206,2.206,0,0,1-1,1.151,4.537,4.537,0,0,1-1.479.512,10.118,10.118,0,0,1-1.522.171c-.141.005-.281.02-.422.033H33.741Z" transform="translate(-21.708 -57.682)" fill="#333"/>
      <path id="Path_55678" data-name="Path 55678" d="M268.946,47.424a.4.4,0,0,0-.2-.018h-1.392c-.266,0-.2.028-.258-.223-.066-.315-.12-.634-.179-.946a.056.056,0,0,0-.074.015,3.755,3.755,0,0,1-2.19,1.154,7.683,7.683,0,0,1-3.63-.189,3.735,3.735,0,0,1-2-1.389,3.946,3.946,0,0,1-.68-1.75,5.962,5.962,0,0,1,.082-2.3,3.56,3.56,0,0,1,2.33-2.579,6.944,6.944,0,0,1,1.865-.4,11.924,11.924,0,0,1,2.116,0,6.672,6.672,0,0,1,2.3.563,3.157,3.157,0,0,1,1.847,2.251c.026.11-.008.23.061.33v.322a3.847,3.847,0,0,1-.542.01q-1.239,0-2.481,0c-.123,0-.21-.01-.266-.148a.769.769,0,0,0-.335-.34,1.789,1.789,0,0,0-.5-.212,4.959,4.959,0,0,0-1.821-.1,2.407,2.407,0,0,0-.627.148,1.293,1.293,0,0,0-.865,1.005,3.18,3.18,0,0,0,.005,1.282,1.437,1.437,0,0,0,1,1.138,2.694,2.694,0,0,0,.547.125,6.376,6.376,0,0,0,1.53-.013,2.054,2.054,0,0,0,.734-.2.69.69,0,0,0,.389-.46.4.4,0,0,0-.2-.02h-1.975c-.069,0-.1-.031-.1-.1V42.9c0-.143.005-.143.146-.148h5.142c.074,0,.146-.008.22-.01v4.684Z" transform="translate(-192.203 -28.835)" fill="#333"/>
      <path id="Path_55679" data-name="Path 55679" d="M165.041,86.269c-.015-.072-.074-.038-.115-.043a7.435,7.435,0,0,1-1.809-.389,3.4,3.4,0,0,1-2.284-2.625,6.374,6.374,0,0,1,.02-2.781,3.4,3.4,0,0,1,2.392-2.556,7.2,7.2,0,0,1,1.816-.348,11.083,11.083,0,0,1,3.249.189,5.213,5.213,0,0,1,.954.315,3.3,3.3,0,0,1,1.97,2.282,6.069,6.069,0,0,1-.01,3.152,3.4,3.4,0,0,1-2.318,2.4,7.374,7.374,0,0,1-1.773.361l-.44.041h-1.655Zm1.062-2.683c.141-.008.315-.01.489-.028a2.791,2.791,0,0,0,.8-.189,1.286,1.286,0,0,0,.808-.959,2.537,2.537,0,0,0-.008-1.118,1.232,1.232,0,0,0-.645-.834,1.844,1.844,0,0,0-.432-.166,4.558,4.558,0,0,0-1.5-.1,2.806,2.806,0,0,0-.936.215,1.258,1.258,0,0,0-.752.911,2.442,2.442,0,0,0-.038.862,1.381,1.381,0,0,0,1.179,1.3,4.948,4.948,0,0,0,1.033.1Z" transform="translate(-119.584 -57.667)" fill="#333"/>
      <path id="Path_55680" data-name="Path 55680" d="M208.319,86.272a10.254,10.254,0,0,1-1.87-.281,5.117,5.117,0,0,1-.9-.34,3.279,3.279,0,0,1-1.773-2.136,6.054,6.054,0,0,1,0-3.267A3.3,3.3,0,0,1,205.8,78a6.537,6.537,0,0,1,1.857-.44,12.518,12.518,0,0,1,2.054-.038,7.086,7.086,0,0,1,2.3.468,3.365,3.365,0,0,1,2.128,2.479,6.2,6.2,0,0,1-.026,2.937,3.388,3.388,0,0,1-2.215,2.428,7.11,7.11,0,0,1-1.885.4l-.481.043h-1.21Zm.637-2.683c.143-.008.327-.01.507-.028a2.58,2.58,0,0,0,.89-.235,1.266,1.266,0,0,0,.7-.862,2.638,2.638,0,0,0,.026-1.059,1.366,1.366,0,0,0-.12-.384,1.388,1.388,0,0,0-.967-.721,4.465,4.465,0,0,0-1.52-.1,2.893,2.893,0,0,0-.844.179,1.279,1.279,0,0,0-.852,1.036,3.218,3.218,0,0,0-.028.683,1.368,1.368,0,0,0,1.059,1.353,4.29,4.29,0,0,0,1.151.141Z" transform="translate(-151.478 -57.67)" fill="#333"/>
      <path id="Path_55681" data-name="Path 55681" d="M76.932,86.266c-.44-.051-.883-.072-1.32-.161a6.261,6.261,0,0,1-1.215-.361,3.316,3.316,0,0,1-2.011-2.318,6.143,6.143,0,0,1,0-3.113,3.333,3.333,0,0,1,2.149-2.364,6.7,6.7,0,0,1,1.742-.4,12.457,12.457,0,0,1,2.1-.038,6.946,6.946,0,0,1,2.353.5,3.372,3.372,0,0,1,2.1,2.75c.026.171.038.348.061.519.008.069-.015.1-.084.1H79.838c-.179,0-.182,0-.225-.166a1.2,1.2,0,0,0-.75-.839,2.727,2.727,0,0,0-.844-.184,4.557,4.557,0,0,0-1.5.1,2.151,2.151,0,0,0-.248.079,1.262,1.262,0,0,0-.854,1.013,2.562,2.562,0,0,0,.023,1.062,1.262,1.262,0,0,0,.706.88,2.277,2.277,0,0,0,.773.215,4.757,4.757,0,0,0,1.6-.056c.059-.013.118-.028.174-.046a1.265,1.265,0,0,0,.931-.967c.02-.087.046-.123.141-.123,1.023.005,2.044,0,3.067.005a.209.209,0,0,1,.054.018,3.735,3.735,0,0,1-.059.627,3.492,3.492,0,0,1-1.072,2.1,4.07,4.07,0,0,1-1.7.885,7.7,7.7,0,0,1-1.53.253c-.113.008-.228.023-.34.036H76.932Z" transform="translate(-53.72 -57.664)" fill="#333"/>
      <path id="Path_55682" data-name="Path 55682" d="M0,39.215H8.818c.263,0,.238-.038.238.233v2.341c.005.074-.02.115-.1.11-.054,0-.107,0-.161,0H3.387c-.174,0-.174,0-.177.177,0,.2,0,.4,0,.606,0,.092.023.141.125.13.059-.005.12,0,.182,0H8.058a1.29,1.29,0,0,0,.141,0c.092-.01.136.02.13.123-.008.12,0,.243,0,.363v2c0,.23.015.207-.2.207H3.484c-.046,0-.095,0-.141,0-.095-.01-.13.028-.13.125.005.248,0,.5,0,.747v1.23c0,.146-.005.148-.143.148H.123a.934.934,0,0,1-.118-.018V39.215Z" transform="translate(0 -29.182)" fill="#333"/>
      <path id="Path_55683" data-name="Path 55683" d="M12.411,4.754V.7c0-.251-.028-.223.228-.223H19.86a3.913,3.913,0,0,1,1.251.174,1.747,1.747,0,0,1,1.241,1.535A2.462,2.462,0,0,1,21.82,4.11c-.1.133-.1.133.033.24a2.8,2.8,0,0,1,1.031,1.458A2.392,2.392,0,0,1,20.8,8.975a5.262,5.262,0,0,1-.724.041H12.636c-.248,0-.228.036-.228-.223V4.759ZM17.5,6.693H19.1a1.643,1.643,0,0,0,.42-.036.375.375,0,0,0,.3-.42.374.374,0,0,0-.31-.409,1.72,1.72,0,0,0-.381-.036H15.793c-.033,0-.067,0-.1,0-.084-.008-.12.026-.118.115.005.207,0,.417,0,.624,0,.159,0,.161.169.164H17.5Zm-.3-4.139h-1.55a.067.067,0,0,0-.077.072v.765c0,.059.028.084.087.084h2.9a1.525,1.525,0,0,0,.34-.038.368.368,0,0,0,.287-.279.439.439,0,0,0-.376-.591,1.516,1.516,0,0,0-.24-.013Z" transform="translate(-9.234 -0.354)" fill="#333"/>
      <path id="Path_55684" data-name="Path 55684" d="M252.137,5.452a.572.572,0,0,0,.023-.246V.687c0-.215-.046-.22.212-.22H255.2c.1-.008.156.02.141.133a.648.648,0,0,0,0,.1V8.852c0,.151,0,.153-.159.153q-1.926,0-3.855.005a.268.268,0,0,1-.24-.143q-1.481-2.03-2.965-4.055c-.189-.261-.381-.519-.583-.8a.41.41,0,0,0-.028.223V8.78c0,.253.028.228-.223.228h-2.865c-.059,0-.087-.023-.087-.084V.692c0-.22-.036-.223.212-.223q1.876,0,3.753,0a.327.327,0,0,1,.3.148q1.684,2.318,3.379,4.625c.046.064.095.128.159.215Z" transform="translate(-181.831 -0.346)" fill="#333"/>
      <path id="Path_55685" data-name="Path 55685" d="M217.536,42.769v4.761c0,.238.041.228-.228.228h-2.845c-.077,0-.11-.031-.1-.107,0-.041,0-.082,0-.12V39.438c0-.24-.02-.217.215-.217q1.876,0,3.753,0a.327.327,0,0,1,.3.153q1.7,2.333,3.4,4.658c.038.054.079.107.13.171.051-.064.028-.133.028-.194V39.446c0-.251-.028-.228.225-.228h2.845c.074-.005.115.02.11.1,0,.041,0,.082,0,.12v8.091c0,.233.044.225-.228.225-1.238,0-2.476,0-3.712.005a.382.382,0,0,1-.345-.182q-1.685-2.318-3.379-4.625a.614.614,0,0,0-.164-.184Z" transform="translate(-159.523 -29.185)" fill="#333"/>
      <path id="Path_55686" data-name="Path 55686" d="M54.288,42.761v4.812c0,.174,0,.177-.179.177H51.344c-.261,0-.228.023-.228-.223V39.353c0-.136.005-.141.148-.141q1.938,0,3.875,0a.249.249,0,0,1,.223.136q1.351,1.849,2.7,3.7l.75,1.026a.34.34,0,0,0,.128.13V39.366c0-.151,0-.153.156-.153h2.806c.217,0,.207-.028.207.2V47.59c0,.156,0,.159-.151.159q-1.926,0-3.855,0a.279.279,0,0,1-.243-.141q-1.7-2.329-3.4-4.658a.69.69,0,0,0-.169-.192Z" transform="translate(-38.039 -29.18)" fill="#333"/>
      <path id="Path_55687" data-name="Path 55687" d="M118.76,41.739h-1.433c-.084,0-.143,0-.171-.113-.036-.148-.171-.215-.31-.263A2.833,2.833,0,0,0,116,41.22c-.706-.036-1.412-.036-2.118-.005a2.09,2.09,0,0,0-.517.079.327.327,0,0,0-.22.164.266.266,0,0,0,.2.386,3.386,3.386,0,0,0,.7.082c.678.033,1.358.056,2.036.087a14.885,14.885,0,0,1,2.543.287,4.478,4.478,0,0,1,.88.287,1.939,1.939,0,0,1,1.215,1.716,3.261,3.261,0,0,1-.115,1.2,2.2,2.2,0,0,1-1,1.274,4.457,4.457,0,0,1-1.45.53,13.15,13.15,0,0,1-2.307.217,21.491,21.491,0,0,1-2.3-.056,7.23,7.23,0,0,1-1.949-.391,3.717,3.717,0,0,1-.512-.238,2.377,2.377,0,0,1-1.223-1.821,3.989,3.989,0,0,1-.043-.522c0-.067.018-.1.09-.1.041,0,.082,0,.12,0h2.745c.182,0,.182,0,.246.166a.514.514,0,0,0,.281.276,2.213,2.213,0,0,0,.64.171,12.726,12.726,0,0,0,1.873.077,9.267,9.267,0,0,0,1.248-.077,1.187,1.187,0,0,0,.31-.087.28.28,0,0,0,.171-.292.269.269,0,0,0-.182-.263,2.029,2.029,0,0,0-.652-.12c-.611-.033-1.223-.056-1.834-.082a15.11,15.11,0,0,1-2.6-.287,4.787,4.787,0,0,1-1.161-.394,2.015,2.015,0,0,1-1.161-1.763,2.817,2.817,0,0,1,.049-.842,2.065,2.065,0,0,1,.883-1.256A4.376,4.376,0,0,1,112.442,39a11.674,11.674,0,0,1,2.4-.243,14.7,14.7,0,0,1,2.274.12,5.907,5.907,0,0,1,1.742.483,2.508,2.508,0,0,1,1.238,1.166,2.729,2.729,0,0,1,.251,1.072c.008.143,0,.146-.141.146h-1.453Z" transform="translate(-81.727 -28.838)" fill="#333"/>
      <path id="Path_55688" data-name="Path 55688" d="M65.145,9H63.891c-.767,0-1.535,0-2.3,0a.268.268,0,0,1-.271-.151c-.327-.57-.67-1.136-1-1.7A.253.253,0,0,0,60.067,7c-.512.008-1.023,0-1.535,0-.164,0-.166,0-.166.166V8.828c0,.174,0,.177-.174.177H55.406c-.223,0-.207.031-.207-.2V.647c0-.187-.015-.182.169-.182,2.2,0,4.4-.005,6.6,0a3.135,3.135,0,0,1,2.254.877,3.09,3.09,0,0,1,.9,1.786,3.63,3.63,0,0,1-.2,1.924A2.945,2.945,0,0,1,63.8,6.464c-.133.09-.133.092-.051.228q.645,1.048,1.292,2.1a.508.508,0,0,1,.1.217ZM59.99,3.151H58.537c-.166,0-.169,0-.171.161v.826c0,.177,0,.177.177.177h2.845a1.258,1.258,0,0,0,.24-.026.42.42,0,0,0,.343-.33.925.925,0,0,0,0-.458.416.416,0,0,0-.325-.322,1.356,1.356,0,0,0-.32-.031H59.993Z" transform="translate(-41.078 -0.345)" fill="#333"/>
      <path id="Path_55689" data-name="Path 55689" d="M153.833,43.464V39.287c0-.059.028-.084.087-.082H156.9c.066,0,.1.023.1.092v2.722c-.005.074.023.115.1.11h4.661c.033,0,.067,0,.1,0,.095.01.136-.023.13-.123-.008-.115,0-.228,0-.343V39.4c0-.21-.02-.2.189-.2h2.8c.182,0,.184,0,.184.189v8.252c0,.069-.031.1-.1.095h-2.906c-.174,0-.177,0-.177-.179V44.894c0-.059-.023-.087-.084-.084h-4.8c-.077-.005-.11.028-.107.1,0,.061,0,.12,0,.182v2.543c0,.069-.028.1-.1.1h-2.965c-.072,0-.118-.018-.11-.1a1.292,1.292,0,0,0,0-.141V43.457Z" transform="translate(-114.477 -29.172)" fill="#333"/>
      <path id="Path_55690" data-name="Path 55690" d="M126.81,82.219v4.037c0,.284.026.24-.251.243h-2.845a.065.065,0,0,1-.074-.074V83.662c0-.059-.026-.087-.084-.087h-4.722c-.187,0-.189,0-.189.184v2.6c0,.136-.005.136-.148.141h-2.926c-.072.005-.095-.033-.092-.1V78.19c0-.251-.028-.225.228-.225h2.865c.051,0,.072.026.072.074V80.8c0,.059.026.087.084.084h4.8c.074.005.113-.023.107-.1s0-.174,0-.263V78.139c0-.177,0-.179.171-.179h2.827c.171,0,.174,0,.174.182v4.078Z" transform="translate(-85.937 -58.017)" fill="#333"/>
      <path id="Path_55691" data-name="Path 55691" d="M211.506,2.8A3.246,3.246,0,0,0,209.971.762,4.668,4.668,0,0,0,208.879.3a9.309,9.309,0,0,0-2.535-.3,10.851,10.851,0,0,0-1.63.1,5.974,5.974,0,0,0-1.7.483,3.281,3.281,0,0,0-1.834,2.154,6.221,6.221,0,0,0-.084,2.934,3.4,3.4,0,0,0,2.289,2.666,7.113,7.113,0,0,0,1.888.394,12.173,12.173,0,0,0,2.116,0,7.034,7.034,0,0,0,1.906-.4A3.376,3.376,0,0,0,211.5,5.971a6.082,6.082,0,0,0,0-3.169ZM208.47,4.929a1.283,1.283,0,0,1-.8.944,2.751,2.751,0,0,1-.88.2c-.153.01-.31,0-.463,0a3.281,3.281,0,0,1-1.115-.12A1.357,1.357,0,0,1,204.162,4.7a2.717,2.717,0,0,1,.051-.921,1.218,1.218,0,0,1,.655-.824,2.658,2.658,0,0,1,.987-.253,4.523,4.523,0,0,1,1.54.1,1.883,1.883,0,0,1,.448.179,1.208,1.208,0,0,1,.606.77,2.41,2.41,0,0,1,.018,1.177Z" transform="translate(-149.555)" fill="#333"/>
      <path id="Path_55692" data-name="Path 55692" d="M113.419,4.732c-1.335-1.412-2.663-2.816-4-4.236a.4.4,0,0,1,.22-.033q1.857,0,3.714,0a.391.391,0,0,1,.325.153c.617.711,1.241,1.417,1.865,2.123.043.049.074.113.146.136a.635.635,0,0,0,.153-.156c.627-.711,1.256-1.422,1.88-2.136a.29.29,0,0,1,.238-.118c1.292,0,2.584,0,3.875,0,.026,0,.054.005.087.008,0,.09-.074.125-.12.174q-1.85,1.961-3.7,3.916c-.013.015-.028.028-.041.043-.115.125-.115.125,0,.251q1.873,1.98,3.742,3.96a.487.487,0,0,1,.125.153c-.043.051-.1.028-.151.028q-1.9,0-3.794,0a.332.332,0,0,1-.274-.125c-.624-.716-1.251-1.425-1.878-2.139-.043-.051-.09-.1-.136-.151-.079.013-.107.079-.148.128-.627.711-1.256,1.422-1.878,2.136a.388.388,0,0,1-.325.151C112.1,9,110.856,9,109.61,9h-.23l4.037-4.269Z" transform="translate(-81.4 -0.342)" fill="#333"/>
      <path id="Path_55693" data-name="Path 55693" d="M164.831.47h5.045c.174,0,.176,0,.176.179V2.99c0,.161,0,.164-.166.164h-3.249c-.046,0-.095,0-.141,0-.077-.005-.11.028-.1.1,0,.054,0,.107,0,.161V8.786c0,.246.023.22-.212.22h-2.886c-.049,0-.072-.028-.072-.077V3.381c0-.266.013-.225-.228-.225h-3.328c-.066,0-.1-.02-.1-.092V.664c0-.189,0-.189.182-.189h5.085Z" transform="translate(-118.749 -0.35)" fill="#333"/>
      <path id="Path_55694" data-name="Path 55694" d="M251.35,86.5h-4.136c-.274,0-.24.033-.24-.23V78.2a.648.648,0,0,0,0-.1c-.015-.113.041-.136.141-.136H250c.148,0,.151.005.151.164v5.469c0,.235-.026.22.212.22h5.147c.266,0,.24-.028.243.233v2.341c0,.074-.02.115-.1.11-.046,0-.095,0-.141,0h-4.157Z" transform="translate(-183.793 -58.017)" fill="#333"/>
      <path id="Path_55695" data-name="Path 55695" d="M39.993,43.469v4.057c0,.223.043.223-.21.223H36.936c-.082.005-.13-.02-.12-.113,0-.041,0-.082,0-.12V39.381c0-.169,0-.171.161-.171h2.847c.166,0,.169,0,.169.161v4.1Z" transform="translate(-27.397 -29.18)" fill="#333"/>
      <path id="Path_55696" data-name="Path 55696" d="M99.173,43.469v4.057c0,.223.043.223-.21.223H96.116c-.082.005-.13-.02-.12-.113,0-.041,0-.082,0-.12V39.381c0-.169,0-.171.161-.171H99c.166,0,.169,0,.169.161v4.1Z" transform="translate(-71.439 -29.18)" fill="#333"/>
      <path id="Path_55697" data-name="Path 55697" d="M98.777,4.741V8.775c0,.258.02.223-.228.223H95.786c-.182,0-.177.015-.177-.174V.633c0-.171,0-.174.177-.174H98.57c.228,0,.207-.02.207.2V4.741Z" transform="translate(-71.152 -0.341)" fill="#333"/>
      <path id="Path_55698" data-name="Path 55698" d="M200.075,43.478V39.485a1.288,1.288,0,0,0,0-.141c-.01-.095.023-.136.123-.128s.215,0,.322,0h2.522c.207,0,.2-.028.2.189v8.25c0,.067-.023.1-.095.1h-2.962c-.072.005-.118-.015-.11-.1a1.288,1.288,0,0,0,0-.141Z" transform="translate(-148.893 -29.184)" fill="#333"/>
    </g>
  </g>
</svg>
