<svg xmlns="http://www.w3.org/2000/svg" xmlns:xlink="http://www.w3.org/1999/xlink" width="75.035" height="31.105" viewBox="0 0 75.035 31.105">
  <defs>
    <clipPath id="clip-path">
      <rect id="Rectangle_376" data-name="Rectangle 376" width="75.035" height="31.105" fill="none"/>
    </clipPath>
  </defs>
  <g id="Group_1681" data-name="Group 1681" transform="translate(0)">
    <g id="Group_1680" data-name="Group 1680" transform="translate(0 0)" clip-path="url(#clip-path)">
      <path id="Path_55204" data-name="Path 55204" d="M33.823,8.049l3.593,1.091a6.037,6.037,0,0,1-1.137,2.5,5.106,5.106,0,0,1-1.91,1.5,7.686,7.686,0,0,1-2.956.5,8.893,8.893,0,0,1-3.547-.591A5.491,5.491,0,0,1,25.5,10.823a7.842,7.842,0,0,1-1-4.047,6.81,6.81,0,0,1,1.728-5.048A6.91,6.91,0,0,1,31.23,0a6.649,6.649,0,0,1,3.911,1,5.91,5.91,0,0,1,2.137,3.092l-3.638.819A3.705,3.705,0,0,0,33.277,4a2.248,2.248,0,0,0-.864-.728,2.427,2.427,0,0,0-1.137-.227,2.348,2.348,0,0,0-2.137,1.137,4.781,4.781,0,0,0-.546,2.592,5.24,5.24,0,0,0,.637,3,2.258,2.258,0,0,0,1.865.819,2.41,2.41,0,0,0,1.774-.637,3.318,3.318,0,0,0,.955-1.91" transform="translate(-13.358 0)"/>
      <path id="Path_55205" data-name="Path 55205" d="M63.813,11.551H59.175l-.591,2.183H54.4L59.4.5h4.457l5,13.233H64.587Zm-.864-2.865L61.494,3.956,60.039,8.686Z" transform="translate(-29.661 -0.273)"/>
      <path id="Path_55206" data-name="Path 55206" d="M88.9.5H99V3.32h-6V5.639h5.139V8.322H92.993v5.412H88.9Z" transform="translate(-48.472 -0.273)"/>
      <path id="Path_55207" data-name="Path 55207" d="M115.9.5h10.96V3.32h-6.867V5.457h6.367V8.14h-6.367v2.592h7.049v3H115.9V.5" transform="translate(-63.194 -0.273)"/>
      <path id="Path_55208" data-name="Path 55208" d="M0,38.9H6.048a7.514,7.514,0,0,1,2.91.455,4.373,4.373,0,0,1,1.819,1.41A5.531,5.531,0,0,1,11.824,42.9a9.309,9.309,0,0,1,.318,2.547,8.959,8.959,0,0,1-.455,3.274,5.5,5.5,0,0,1-1.319,1.955,4.131,4.131,0,0,1-1.819,1.046,10.037,10.037,0,0,1-2.456.364H0Zm4.047,3v7.231h1a4.328,4.328,0,0,0,1.819-.273,1.916,1.916,0,0,0,.864-1,6.643,6.643,0,0,0,.318-2.319,4.1,4.1,0,0,0-.728-2.865A2.979,2.979,0,0,0,5.048,41.9Z" transform="translate(0 -21.21)"/>
      <rect id="Rectangle_375" data-name="Rectangle 375" width="4.093" height="13.233" transform="translate(14.461 17.69)"/>
      <path id="Path_55209" data-name="Path 55209" d="M47.4,52.133V38.9h6.821a9.7,9.7,0,0,1,2.91.318,2.837,2.837,0,0,1,1.592,1.228,3.639,3.639,0,0,1,.591,2.183,3.336,3.336,0,0,1-.455,1.865,5.006,5.006,0,0,1-1.273,1.319,6.233,6.233,0,0,1-1.41.5,5.252,5.252,0,0,1,1.091.455,2.746,2.746,0,0,1,.637.728,4.164,4.164,0,0,1,.546.819l1.865,3.82H55.768l-2.183-4.047a2.952,2.952,0,0,0-.773-1.046,1.747,1.747,0,0,0-1-.318h-.364v5.412Zm4.093-7.867h1.728a5.11,5.11,0,0,0,1.091-.182.982.982,0,0,0,.637-.409,1.118,1.118,0,0,0,.227-.773,1.27,1.27,0,0,0-.409-1,2.537,2.537,0,0,0-1.5-.318H51.493v2.683" transform="translate(-25.845 -21.21)"/>
      <path id="Path_55210" data-name="Path 55210" d="M78.8,38.9H89.714V41.72H82.893v2.137h6.367V46.54H82.893v2.592h7.049v3H78.8Z" transform="translate(-42.965 -21.21)"/>
      <path id="Path_55211" data-name="Path 55211" d="M116.277,46.449l3.593,1.091a6.037,6.037,0,0,1-1.137,2.5,5.106,5.106,0,0,1-1.91,1.5,7.6,7.6,0,0,1-2.91.5,8.893,8.893,0,0,1-3.547-.591A5.491,5.491,0,0,1,108,49.223a7.842,7.842,0,0,1-1-4.047,6.81,6.81,0,0,1,1.728-5.048A8.046,8.046,0,0,1,117.6,39.4a5.911,5.911,0,0,1,2.137,3.092l-3.638.819a3.706,3.706,0,0,0-.364-.91,2.248,2.248,0,0,0-.864-.728,2.318,2.318,0,0,0-1.137-.227,2.348,2.348,0,0,0-2.137,1.137,4.781,4.781,0,0,0-.546,2.592,5.24,5.24,0,0,0,.637,3,2.258,2.258,0,0,0,1.865.819,2.339,2.339,0,0,0,1.774-.637,3.2,3.2,0,0,0,.955-1.91" transform="translate(-58.341 -20.937)"/>
      <path id="Path_55212" data-name="Path 55212" d="M137.645,38.9H150.06v3.229h-4.184v10h-4.093v-10H137.6V38.9Z" transform="translate(-75.025 -21.21)"/>
    </g>
  </g>
</svg>
