<svg xmlns="http://www.w3.org/2000/svg" xmlns:xlink="http://www.w3.org/1999/xlink" width="99.403" height="59.81" viewBox="0 0 99.403 59.81">
  <defs>
    <clipPath id="clip-path">
      <rect id="Rectangle_371" data-name="Rectangle 371" width="99.403" height="59.81" fill="none"/>
    </clipPath>
  </defs>
  <g id="Group_1676" data-name="Group 1676" transform="translate(0)">
    <path id="Path_55165" data-name="Path 55165" d="M470.946,396.674h2.7v-2.689h1.877v7.193h-1.877v-2.911h-2.7v2.911H469.08v-7.193h1.867Z" transform="translate(-419.606 -352.431)"/>
    <g id="Group_1675" data-name="Group 1675" transform="translate(0)">
      <g id="Group_1674" data-name="Group 1674" clip-path="url(#clip-path)">
        <path id="Path_55166" data-name="Path 55166" d="M548.224,398.916a4.3,4.3,0,0,1-5.674,0,3.766,3.766,0,0,1-.063-5.326l.063-.063a4.3,4.3,0,0,1,5.674,0,3.765,3.765,0,0,1,.063,5.326l-.063.063m-4.293-4.071a1.976,1.976,0,0,0-.57,1.413,1.834,1.834,0,0,0,.57,1.339,2.03,2.03,0,0,0,1.456.57,1.955,1.955,0,0,0,2.025-1.877v-.063a1.957,1.957,0,0,0-.58-1.382,2.1,2.1,0,0,0-1.445-.57,2.03,2.03,0,0,0-1.456.57" transform="translate(-484.312 -351.067)"/>
        <path id="Path_55167" data-name="Path 55167" d="M629.826,393.895v4.261a1.424,1.424,0,0,0,.369,1.107,1.332,1.332,0,0,0,1.751.032,1.611,1.611,0,0,0,.422-1.308v-4.1h1.867v4.134a2.942,2.942,0,0,1-.812,2.331,3.111,3.111,0,0,1-2.373.9,3.219,3.219,0,0,1-2.384-.865,3.355,3.355,0,0,1-.7-2.363v-4.134h1.856Z" transform="translate(-561.727 -352.341)"/>
        <path id="Path_55168" data-name="Path 55168" d="M699.482,397.66a2.552,2.552,0,0,0,1.645.738.982.982,0,0,0,.728-.253.647.647,0,0,0,.179-.454.562.562,0,0,0-.2-.432,2.543,2.543,0,0,0-.928-.38l-.485-.148a2.392,2.392,0,0,1-1.034-.58,1.809,1.809,0,0,1-.411-1.276,2.366,2.366,0,0,1,.654-1.74,2.525,2.525,0,0,1,1.846-.675,5.1,5.1,0,0,1,2.225.58l-.749,1.455a1.885,1.885,0,0,0-1.234-.485.92.92,0,0,0-.612.211.506.506,0,0,0-.179.39.517.517,0,0,0,.1.327,1.19,1.19,0,0,0,.622.327l.57.169a2.714,2.714,0,0,1,1.308.717,1.711,1.711,0,0,1,.464,1.287,2.452,2.452,0,0,1-.675,1.814,2.82,2.82,0,0,1-2.13.738,3.8,3.8,0,0,1-1.413-.243,5.076,5.076,0,0,1-1.086-.57Z" transform="translate(-624.991 -351.066)"/>
        <rect id="Rectangle_369" data-name="Rectangle 369" width="1.867" height="7.193" transform="translate(80.176 41.553)"/>
        <path id="Path_55169" data-name="Path 55169" d="M792.18,401.277v-7.193h1.867l3.438,4.4v-4.4h1.867v7.193h-1.867l-3.438-4.4v4.4Z" transform="translate(-708.629 -352.52)"/>
        <path id="Path_55170" data-name="Path 55170" d="M875.338,395.731h3.713a4.059,4.059,0,0,1-1.15,3.238,3.556,3.556,0,0,1-2.531.907,3.741,3.741,0,0,1-2.763-1.065,3.64,3.64,0,0,1-1.034-2.605,3.733,3.733,0,0,1,1.076-2.7,4.173,4.173,0,0,1,4.736-.57,3.561,3.561,0,0,1,1.287,1.477l-1.782.738a1.775,1.775,0,0,0-.517-.728,1.575,1.575,0,0,0-1-.359,1.794,1.794,0,0,0-1.234.5,2.392,2.392,0,0,0-.622,1.645,2.258,2.258,0,0,0,.57,1.55,1.693,1.693,0,0,0,1.318.548,1.527,1.527,0,0,0,1.034-.337,1.251,1.251,0,0,0,.443-.8h-1.529Z" transform="translate(-779.648 -351.056)"/>
        <path id="Path_55171" data-name="Path 55171" d="M466.939,489.263v4.957a2.107,2.107,0,0,1-.612,1.73,2.334,2.334,0,0,1-1.761.675,1.862,1.862,0,0,1-1.129-.327,2.521,2.521,0,0,1-.717-.738l1.223-1.255a.984.984,0,0,0,.264.57.643.643,0,0,0,.359.126.538.538,0,0,0,.327-.116,1.1,1.1,0,0,0,.19-.728v-4.915h1.856Z" transform="translate(-413.917 -437.642)"/>
        <path id="Path_55172" data-name="Path 55172" d="M518.866,489.353v4.261a1.425,1.425,0,0,0,.369,1.107,1.332,1.332,0,0,0,1.751.032,1.611,1.611,0,0,0,.422-1.308v-4.1h1.867v4.134a2.942,2.942,0,0,1-.812,2.331,3.11,3.11,0,0,1-2.373.9,3.219,3.219,0,0,1-2.384-.865,3.355,3.355,0,0,1-.7-2.362v-4.134h1.856Z" transform="translate(-462.47 -437.731)"/>
        <path id="Path_55173" data-name="Path 55173" d="M588.422,493.118a2.551,2.551,0,0,0,1.645.738.981.981,0,0,0,.728-.253.646.646,0,0,0,.179-.453.562.562,0,0,0-.2-.432,2.544,2.544,0,0,0-.928-.38l-.485-.148a2.393,2.393,0,0,1-1.034-.58,1.809,1.809,0,0,1-.411-1.276,2.366,2.366,0,0,1,.654-1.74,2.525,2.525,0,0,1,1.846-.675,5.1,5.1,0,0,1,2.225.58l-.749,1.456a1.885,1.885,0,0,0-1.234-.485.92.92,0,0,0-.612.211.506.506,0,0,0-.179.39.518.518,0,0,0,.095.327,1.19,1.19,0,0,0,.622.327l.57.169a2.714,2.714,0,0,1,1.308.717,1.712,1.712,0,0,1,.464,1.287,2.452,2.452,0,0,1-.675,1.814,2.82,2.82,0,0,1-2.131.738,3.8,3.8,0,0,1-1.413-.243,5.074,5.074,0,0,1-1.086-.57Z" transform="translate(-525.644 -436.456)"/>
        <path id="Path_55174" data-name="Path 55174" d="M646.116,491.124v5.611h-1.867v-5.611H642.72v-1.582h4.936v1.582Z" transform="translate(-574.932 -437.911)"/>
        <rect id="Rectangle_370" data-name="Rectangle 370" width="1.867" height="7.193" transform="translate(73.556 51.621)"/>
        <path id="Path_55175" data-name="Path 55175" d="M731.9,495.461a4.536,4.536,0,0,1-1.614.359,3.947,3.947,0,0,1-2.784-1.076,3.759,3.759,0,0,1,2.689-6.4h.032a4.457,4.457,0,0,1,1.688.369v2.236a2.013,2.013,0,0,0-1.624-.791,1.85,1.85,0,0,0-1.3.475,1.917,1.917,0,0,0,1.3,3.375,2.094,2.094,0,0,0,1.624-.759Z" transform="translate(-649.805 -436.837)"/>
        <path id="Path_55176" data-name="Path 55176" d="M793.712,491.035h-2.225v1.2H793.6v1.582h-2.109v1.245h2.225v1.582H789.62v-7.2h4.092Z" transform="translate(-706.339 -437.821)"/>
        <path id="Path_55177" data-name="Path 55177" d="M32.84,151.113a13.5,13.5,0,0,0-14.47,3.175c-.221.2-.454.4-.686.58q-3.8,2.943-7.615,5.885c-1.93,1.5-3.871,2.974-5.78,4.482a2.831,2.831,0,0,0-.728,3.776A2.663,2.663,0,0,0,7.137,170a8.906,8.906,0,0,0,1.666-.939c1.234-.854,2.426-1.751,3.639-2.626,2.109-1.529,4.219-3.048,6.349-4.577.285.253.506.432.738.633a8.925,8.925,0,0,0,8.216,2.173,8.665,8.665,0,0,0,4.134-2.194c.285-.264.506-.506.77.053a8.9,8.9,0,0,1-5.305,2.858,9.9,9.9,0,0,1-8.7-2.837,3.187,3.187,0,0,1-.338.686q-3.117,3.306-6.265,6.6-5.316,5.553-10.663,11.1A6.376,6.376,0,0,0,.25,182.458a2.8,2.8,0,0,0,1.023,3.5,2.561,2.561,0,0,0,3.375-.432c.253-.243.485-.485.717-.738l11.644-12.277a3.127,3.127,0,0,1,.643-.4c.074.074.137.158.211.243-.253.306-.475.633-.738.928q-4.809,5.078-9.619,10.136c-1.825,1.92-3.67,3.829-5.463,5.769a2.961,2.961,0,0,0-.084,4.177l.074.074c1.15,1.076,2.795.907,4.071-.454,2.827-3.027,5.643-6.064,8.49-9.081q3.417-3.639,6.887-7.246c.19-.2.369-.654.939-.179-.327.369-.643.738-.981,1.086q-5.426,5.711-10.863,11.422a4.539,4.539,0,0,0-.717.9,2.9,2.9,0,0,0,.158,3.259,2.367,2.367,0,0,0,2.721.949,3.963,3.963,0,0,0,1.666-1.107c3.67-3.818,7.309-7.668,10.958-11.507.253-.264.517-.5.791-.738.095.084.2.169.3.253a7.5,7.5,0,0,1-.527.759c-.875.939-1.772,1.856-2.647,2.784-1.266,1.329-2.563,2.637-3.8,4a2.947,2.947,0,0,0,.042,4.166.527.527,0,0,0,.084.074,3.023,3.023,0,0,0,4.008-.475q7.151-7.72,14.47-15.251c4.061-4.166,5.78-9.028,4.6-14.734a14.209,14.209,0,0,0-9.84-11.2" transform="translate(0 -134.402)"/>
        <path id="Path_55178" data-name="Path 55178" d="M240.866,5.679l1.118-1.044-1.445-.517-.211-.78A2.321,2.321,0,0,0,240,2.515c-.095-.137-.38-.137-.717-.243.179.6.3,1.023.464,1.6a6.254,6.254,0,0,1-2.637-1.519,16.21,16.21,0,0,0-1.466-1.234,5.238,5.238,0,0,0-7.2.686c-.506.517-.991,1.055-1.508,1.571q-6.138,6.091-12.287,12.192c-.211.211-.39.454-.58.664,1.487-.306,2.89-.7,4.314-.865a15.765,15.765,0,0,1,8.554,1.73,14.672,14.672,0,0,0,2.637.981,4.173,4.173,0,0,0,5.337-2.552,20.366,20.366,0,0,0,1-2.89,14.1,14.1,0,0,1,4.261-6.56,8.918,8.918,0,0,1,.053.918,8.579,8.579,0,0,1-1.2,3.871c-.243.369-.39.664.264.886a11.046,11.046,0,0,0,1.55-5.389c.021-.169.032-.686.032-.686m-8.174.264a1.753,1.753,0,0,1-1.761-1.772V4.16a1.693,1.693,0,1,1,3.386,0,1.751,1.751,0,0,1-1.624,1.782" transform="translate(-191.489 0)"/>
        <path id="Path_55179" data-name="Path 55179" d="M381.522,29.841a1.018,1.018,0,0,0-.97,1.076v.032a.95.95,0,0,0,.939.949h.032a.924.924,0,0,0,1.023-.812.64.64,0,0,0,0-.2,1.009,1.009,0,0,0-.96-1.044h-.063Z" transform="translate(-340.414 -26.694)"/>
        <path id="Path_55180" data-name="Path 55180" d="M471,67.341a.833.833,0,1,1-.833.833.833.833,0,0,1,.833-.833" transform="translate(-420.578 -60.239)"/>
        <path id="Path_55181" data-name="Path 55181" d="M468.4,86.141a.833.833,0,1,1-.833.833.833.833,0,0,1,.833-.833" transform="translate(-418.252 -77.056)"/>
        <path id="Path_55182" data-name="Path 55182" d="M460.2,102.041a.833.833,0,1,1-.833.833.833.833,0,0,1,.833-.833" transform="translate(-410.917 -91.279)"/>
      </g>
    </g>
  </g>
</svg>
