<svg id="Group_1670" data-name="Group 1670" xmlns="http://www.w3.org/2000/svg" xmlns:xlink="http://www.w3.org/1999/xlink" width="75.382" height="39.651" viewBox="0 0 75.382 39.651">
  <defs>
    <clipPath id="clip-path">
      <rect id="Rectangle_366" data-name="Rectangle 366" width="75.382" height="39.651"/>
    </clipPath>
  </defs>
  <path id="Path_55089" data-name="Path 55089" d="M7.434,31.6v5.677H2.7V31.6H0V45.523H2.7V39.71H7.434v5.813h2.7V31.6Z" transform="translate(0 -17.362)"/>
  <g id="Group_1669" data-name="Group 1669" transform="translate(0)">
    <g id="Group_1668" data-name="Group 1668" clip-path="url(#clip-path)">
      <path id="Path_55090" data-name="Path 55090" d="M36.773,38.374c0-2.388,0-4.145-1.4-5.542a4.988,4.988,0,0,0-3.74-1.532,5.09,5.09,0,0,0-3.785,1.532c-1.4,1.4-1.352,3.154-1.352,5.542s-.045,4.145,1.352,5.542a5.09,5.09,0,0,0,3.785,1.532,4.918,4.918,0,0,0,3.74-1.532c1.442-1.4,1.4-3.109,1.4-5.542m-2.7,0c0,2.7-.135,3.334-.676,3.92a2.268,2.268,0,0,1-1.757.721,2.434,2.434,0,0,1-1.757-.721c-.541-.586-.676-1.217-.676-3.92,0-2.658.135-3.334.676-3.92a2.337,2.337,0,0,1,1.757-.721,2.516,2.516,0,0,1,1.757.721c.541.586.676,1.262.676,3.92" transform="translate(-14.56 -17.197)"/>
      <path id="Path_55091" data-name="Path 55091" d="M63.328,40.747V31.6h-2.7v9.057a2.311,2.311,0,0,1-2.433,2.568A2.279,2.279,0,0,1,55.8,40.657V31.6H53.1v9.147a5.118,5.118,0,0,0,10.228,0" transform="translate(-29.174 -17.362)"/>
      <path id="Path_55092" data-name="Path 55092" d="M88.228,41.258a3.912,3.912,0,0,0-1.081-2.974A4.7,4.7,0,0,0,84.488,37.2l-1.667-.225a2.719,2.719,0,0,1-1.307-.541,1.233,1.233,0,0,1-.406-.991c0-.946.721-1.757,2.163-1.757a3.945,3.945,0,0,1,2.839.946l1.712-1.712A5.856,5.856,0,0,0,83.317,31.3c-3.019,0-4.866,1.757-4.866,4.235a3.678,3.678,0,0,0,.991,2.749,4.855,4.855,0,0,0,2.7,1.171l1.667.225a1.915,1.915,0,0,1,1.217.5,1.466,1.466,0,0,1,.451,1.172c0,1.126-.856,1.712-2.478,1.712a4.7,4.7,0,0,1-3.379-1.171L78,43.646a6.5,6.5,0,0,0,5.092,1.847c2.884,0,5.137-1.532,5.137-4.235" transform="translate(-42.855 -17.197)"/>
      <rect id="Rectangle_363" data-name="Rectangle 363" width="2.703" height="13.923" transform="translate(47.266 14.238)"/>
      <path id="Path_55093" data-name="Path 55093" d="M126.634,45.523V31.6h-2.7v8.516l-5.5-8.516H116V45.523h2.7V36.962l5.542,8.561Z" transform="translate(-63.733 -17.362)"/>
      <path id="Path_55094" data-name="Path 55094" d="M153.818,39.581V37.553h-5.272v2.253h2.568v.541a2.637,2.637,0,0,1-.631,1.847,2.543,2.543,0,0,1-1.937.766,2.268,2.268,0,0,1-1.757-.721c-.541-.586-.676-1.262-.676-3.92s.135-3.334.676-3.92a2.3,2.3,0,0,1,1.757-.766,2.377,2.377,0,0,1,2.523,2.028h2.749a5.006,5.006,0,0,0-5.227-4.461,4.918,4.918,0,0,0-3.74,1.532c-1.4,1.4-1.352,3.154-1.352,5.542s-.045,4.145,1.352,5.542a5.132,5.132,0,0,0,3.74,1.532,5.265,5.265,0,0,0,3.92-1.577c.946-.946,1.307-2.163,1.307-4.19" transform="translate(-78.842 -17.142)"/>
      <path id="Path_55095" data-name="Path 55095" d="M6.939.2V7.68L2.118.2H0V12.411H2.388V4.931l4.821,7.48H9.327V.2Z" transform="translate(0 -0.11)"/>
      <path id="Path_55096" data-name="Path 55096" d="M28.652,3.8l1.487,4.461H27.12ZM27.661.2,23.2,12.411h2.478l.721-2.163h4.326l.721,2.163h2.478L29.553.2Z" transform="translate(-12.747 -0.11)"/>
      <path id="Path_55097" data-name="Path 55097" d="M43.9.2V2.318h3.2V12.411h2.388V2.318h3.2V.2Z" transform="translate(-24.12 -0.11)"/>
      <rect id="Rectangle_364" data-name="Rectangle 364" width="2.388" height="12.211" transform="translate(30.144 0.09)"/>
      <path id="Path_55098" data-name="Path 55098" d="M85.511,6.218c0-2.118,0-3.65-1.217-4.866a4.678,4.678,0,0,0-6.578,0C76.5,2.568,76.5,4.1,76.5,6.218s-.045,3.65,1.217,4.866a4.481,4.481,0,0,0,3.289,1.352,4.408,4.408,0,0,0,3.289-1.352c1.217-1.262,1.217-2.794,1.217-4.866m-2.388,0c0,2.343-.135,2.929-.586,3.424a1.934,1.934,0,0,1-1.532.631,2.094,2.094,0,0,1-1.532-.631c-.451-.5-.586-1.081-.586-3.424s.135-2.929.586-3.424a2,2,0,0,1,1.532-.631,2.174,2.174,0,0,1,1.532.631c.451.5.586,1.081.586,3.424" transform="translate(-42.031 0)"/>
      <path id="Path_55099" data-name="Path 55099" d="M107.739.2V7.68L102.918.2H100.8V12.411h2.388V4.931l4.821,7.48h2.118V.2Z" transform="translate(-55.382 -0.11)"/>
      <path id="Path_55100" data-name="Path 55100" d="M129.452,3.8l1.487,4.461H127.92ZM128.461.2,124,12.411h2.478l.721-2.163h4.326l.721,2.163h2.478L130.263.2Z" transform="translate(-68.128 -0.11)"/>
      <path id="Path_55101" data-name="Path 55101" d="M149.7.2V12.411h7.93V10.293h-5.542V.2Z" transform="translate(-82.249 -0.11)"/>
      <path id="Path_55102" data-name="Path 55102" d="M0,66.2v9.732H1.892V71.967H5.767V70.3H1.892V67.912H6.4V66.2Z" transform="translate(0 -36.372)"/>
      <path id="Path_55103" data-name="Path 55103" d="M17,66.2v9.732h6.4V74.265H18.892V71.877h3.83V70.165h-3.83V67.912H23.4V66.2Z" transform="translate(-9.34 -36.372)"/>
      <path id="Path_55104" data-name="Path 55104" d="M40.774,70.966c0-1.442.09-2.794-.991-3.92a3.616,3.616,0,0,0-2.568-.946H33.7v9.732h3.514a3.431,3.431,0,0,0,2.568-.946c1.081-1.036.991-2.433.991-3.92m-1.892,0c0,1.487-.045,2.163-.406,2.613a1.664,1.664,0,0,1-1.442.586H35.592V67.857h1.442a1.859,1.859,0,0,1,1.442.586c.315.451.406,1.036.406,2.523" transform="translate(-18.516 -36.317)"/>
      <path id="Path_55105" data-name="Path 55105" d="M51.7,66.2v9.732h6.4V74.265H53.592V71.877h3.875V70.165H53.592V67.912H58.1V66.2Z" transform="translate(-28.405 -36.372)"/>
      <path id="Path_55106" data-name="Path 55106" d="M75.689,75.932l-2.163-4.19a2.608,2.608,0,0,0,1.757-2.568A2.937,2.937,0,0,0,72.13,66.2H68.3v9.732h1.892V72.058h1.352l1.892,3.875Zm-2.3-6.759a1.279,1.279,0,0,1-1.4,1.307h-1.8V67.912h1.8a1.27,1.27,0,0,1,1.4,1.262" transform="translate(-37.526 -36.372)"/>
      <path id="Path_55107" data-name="Path 55107" d="M90.626,69.084l1.171,3.56H89.364ZM89.86,66.2,86.3,75.932h1.983l.586-1.712h3.469l.586,1.712h1.983L91.346,66.2H89.86" transform="translate(-47.415 -36.372)"/>
      <path id="Path_55108" data-name="Path 55108" d="M104.3,66.2v1.712h2.568v8.02h1.892v-8.02h2.523V66.2Z" transform="translate(-57.305 -36.372)"/>
      <rect id="Rectangle_365" data-name="Rectangle 365" width="1.892" height="9.732" transform="translate(55.196 29.828)"/>
      <path id="Path_55109" data-name="Path 55109" d="M137.209,70.956c0-1.667,0-2.884-.991-3.875A3.564,3.564,0,0,0,133.6,66a3.5,3.5,0,0,0-2.658,1.081c-.991.991-.946,2.208-.946,3.875s-.045,2.884.946,3.875a3.593,3.593,0,0,0,2.658,1.081,3.333,3.333,0,0,0,2.613-1.081c.991-.991.991-2.208.991-3.875m-1.892,0c0,1.892-.09,2.343-.5,2.749a1.639,1.639,0,0,1-2.433,0c-.36-.406-.451-.856-.451-2.749s.09-2.343.451-2.749a1.624,1.624,0,0,1,1.217-.541,1.553,1.553,0,0,1,1.217.541c.36.406.5.9.5,2.749" transform="translate(-71.425 -36.262)"/>
      <path id="Path_55110" data-name="Path 55110" d="M153.942,66.2v5.948L150.067,66.2H148.4v9.732h1.892V69.985l3.83,5.948h1.712V66.2Z" transform="translate(-81.534 -36.372)"/>
    </g>
  </g>
</svg>
