<svg id="Group_1667" data-name="Group 1667" xmlns="http://www.w3.org/2000/svg" xmlns:xlink="http://www.w3.org/1999/xlink" width="87.797" height="28.446" viewBox="0 0 87.797 28.446">
  <defs>
    <clipPath id="clip-path">
      <rect id="Rectangle_362" data-name="Rectangle 362" width="87.797" height="28.446" fill="none"/>
    </clipPath>
  </defs>
  <g id="Group_1666" data-name="Group 1666" clip-path="url(#clip-path)">
    <path id="Path_55072" data-name="Path 55072" d="M7.375,15.6a6.56,6.56,0,0,0-4.412,1.975V15.929H0V34.784H3.183V27.233a6.2,6.2,0,0,0,4.17,1.624A6.339,6.339,0,0,0,13.5,22.229,6.322,6.322,0,0,0,7.375,15.6m-.79,10.272a3.644,3.644,0,1,1,3.644-3.644,3.635,3.635,0,0,1-3.644,3.644" transform="translate(0 -12.176)"/>
    <path id="Path_55073" data-name="Path 55073" d="M73.241,16l-.285,2.941a2.994,2.994,0,0,0-1.668-.461,3.194,3.194,0,0,0-3.2,3.2V28.6H64.9V16h3.029v1.844a4.115,4.115,0,0,1,3.424-2.151A4.945,4.945,0,0,1,73.241,16" transform="translate(-50.655 -12.244)"/>
    <path id="Path_55074" data-name="Path 55074" d="M103.76,14.488a8.729,8.729,0,0,0-3.907.549L99.568,18a8.03,8.03,0,0,1,4.061-.593c1.119.11,2.722.7,2.722,2.349v.724a6.1,6.1,0,0,0-3.512-.9c-2.744,0-4.939,1.756-4.939,4.17a4.255,4.255,0,0,0,4.543,4.236,5.088,5.088,0,0,0,4.148-1.91v1.6h2.941V19.427c0-2.875-2.173-4.631-5.773-4.939m-2.634,9.2c0-1.361,1.361-1.778,2.349-1.778a6.252,6.252,0,0,1,2.875.637v.11a2.69,2.69,0,0,1-2.919,2.656c-1.01,0-2.3-.307-2.3-1.624" transform="translate(-76.412 -11.283)"/>
    <path id="Path_55075" data-name="Path 55075" d="M167.287,22.263a6.348,6.348,0,1,0-12.687.066,6.6,6.6,0,0,0,6.782,6.607,8.108,8.108,0,0,0,5.048-1.8l-1.6-2.392a5.133,5.133,0,0,1-3.468,1.273,3.585,3.585,0,0,1-3.534-2.546h9.416c.044-.5.044-.988.044-1.207m-9.438-1.119a3.194,3.194,0,0,1,6.256,0Z" transform="translate(-120.667 -12.254)"/>
    <path id="Path_55076" data-name="Path 55076" d="M211.1,3.753h2.48V0h3.183V11.7c0,1.536.79,2,1.646,2a3.245,3.245,0,0,0,1.734-.746,5.571,5.571,0,0,0,1.141,2.634,5.705,5.705,0,0,1-3.38,1.1,4.221,4.221,0,0,1-4.3-4.478V6.629h-2.48Z" transform="translate(-164.765)"/>
    <path id="Path_55077" data-name="Path 55077" d="M256.4,25.265V17.1h3.183v7.441a2.5,2.5,0,1,0,5,0V17.1h3.183V29.7h-2.985V27.855a4.533,4.533,0,0,1-8.385-2.59" transform="translate(-200.122 -13.347)"/>
    <path id="Path_55078" data-name="Path 55078" d="M320.941,16l-.285,2.941a2.994,2.994,0,0,0-1.668-.461,3.194,3.194,0,0,0-3.2,3.2V28.6H312.6V16h3.029v1.844a4.115,4.115,0,0,1,3.424-2.151,4.945,4.945,0,0,1,1.888.307" transform="translate(-243.987 -12.244)"/>
    <path id="Path_55079" data-name="Path 55079" d="M351.382,14.488a8.869,8.869,0,0,0-3.929.549L347.168,18a8.029,8.029,0,0,1,4.061-.593c1.119.11,2.722.7,2.722,2.349v.724a6.189,6.189,0,0,0-3.512-.9c-2.744,0-4.939,1.756-4.939,4.17a4.268,4.268,0,0,0,4.544,4.236,5.088,5.088,0,0,0,4.148-1.91v1.6h2.963V19.427c-.022-2.875-2.173-4.631-5.773-4.939m-2.634,9.2c0-1.361,1.361-1.778,2.349-1.778a6.1,6.1,0,0,1,2.853.637v.11a2.69,2.69,0,0,1-2.919,2.656c-.988,0-2.283-.307-2.283-1.624" transform="translate(-269.665 -11.283)"/>
    <path id="Path_55080" data-name="Path 55080" d="M239.936,17.3a1.536,1.536,0,1,1-1.536,1.536,1.536,1.536,0,0,1,1.536-1.536" transform="translate(-186.073 -13.503)"/>
    <path id="Path_55081" data-name="Path 55081" d="M145.158,95.6l-2.9,7.353H140.2L137.3,95.6h2.063l1.888,4.763,1.888-4.763h2.019" transform="translate(-107.164 -74.617)"/>
    <path id="Path_55082" data-name="Path 55082" d="M178.422,97.246v1.141h3.6v1.624h-3.6v1.3h3.951v1.646H176.6V95.6h5.773v1.624Z" transform="translate(-137.838 -74.617)"/>
    <path id="Path_55083" data-name="Path 55083" d="M207.2,95.6h1.822l3.2,4.346V95.6h1.822v7.353h-1.822l-3.2-4.346v4.346H207.2Z" transform="translate(-161.721 -74.617)"/>
    <path id="Path_55084" data-name="Path 55084" d="M244.239,97.246H242V95.6h6.277v1.624h-2.217v5.707h-1.822Z" transform="translate(-188.883 -74.617)"/>
    <path id="Path_55085" data-name="Path 55085" d="M274.4,99.726V95.6h1.822v4.039a1.591,1.591,0,1,0,3.161,0V95.6H281.2v4.126a3.4,3.4,0,0,1-6.8,0" transform="translate(-214.171 -74.617)"/>
    <path id="Path_55086" data-name="Path 55086" d="M313.924,102.953l-1.6-2.3h-.9v2.3H309.6V95.6H313a2.556,2.556,0,0,1,2.788,2.524,2.447,2.447,0,0,1-1.558,2.3l1.778,2.524Zm-2.5-3.973h1.4c.637,0,1.076-.351,1.076-.856s-.439-.856-1.076-.856h-1.4Z" transform="translate(-241.645 -74.617)"/>
    <path id="Path_55087" data-name="Path 55087" d="M343.922,97.246v1.141h3.6v1.624h-3.6v1.3h3.951v1.646H342.1V95.6h5.773v1.624Z" transform="translate(-267.012 -74.617)"/>
    <path id="Path_55088" data-name="Path 55088" d="M371.2,101.275l1.032-1.229a3.6,3.6,0,0,0,2.414.922c.68,0,1.032-.285,1.032-.68,0-.439-.351-.527-1.4-.79-1.58-.351-2.744-.79-2.744-2.261,0-1.4,1.141-2.349,2.81-2.349A4.421,4.421,0,0,1,377.3,95.9l-.922,1.3a3.48,3.48,0,0,0-2.085-.768c-.593,0-.922.285-.922.637,0,.439.351.593,1.449.834,1.646.351,2.7.834,2.7,2.195,0,1.471-1.119,2.392-2.941,2.392a4.929,4.929,0,0,1-3.38-1.207" transform="translate(-289.725 -74.058)"/>
  </g>
</svg>
