<svg xmlns="http://www.w3.org/2000/svg" xmlns:xlink="http://www.w3.org/1999/xlink" width="62.444" height="54.98" viewBox="0 0 62.444 54.98">
  <defs>
    <clipPath id="clip-path">
      <rect id="Rectangle_351" data-name="Rectangle 351" width="62.444" height="54.98"/>
    </clipPath>
  </defs>
  <g id="Group_1654" data-name="Group 1654" transform="translate(0)">
    <g id="Group_1653" data-name="Group 1653" transform="translate(0)" clip-path="url(#clip-path)">
      <path id="Path_54916" data-name="Path 54916" d="M711.389,391.425l-.163-.137a2.188,2.188,0,0,0-.914-.072q-1.352.118-1.273,1.019c.039.451.366.725,1.117.66s1.313-.568,1.26-1.169Z" transform="translate(-662.731 -365.656)"/>
      <path id="Path_54917" data-name="Path 54917" d="M469.141,372.686c-1.051.091-1.587.895-1.469,2.246s.784,2.051,1.835,1.959,1.587-.895,1.469-2.246-.784-2.051-1.835-1.959" transform="translate(-437.115 -348.341)"/>
      <path id="Path_54918" data-name="Path 54918" d="M418.937,164.4l-4.826-11.977-1.319,4.375c-.47,1.554-.993,2.508-3.1,2.7l-.751.065-.163-.137-.131-1.5.137-.163.751-.065c.751-.065.888-.229,1-.692l-.013-.15-2.919-5.649-.131-1.5.137-.163,1.352-.118.163.137,2.253,4.95.15-.013,1.332-5.179L408.109,137.5l-17.116,5.473-4.467,1.43-4.238,13.845-.888,2.893,25.038,1.8-1.123,2.913Zm-29.9-5.518a3.926,3.926,0,1,1,3.415-4.238,3.609,3.609,0,0,1-3.415,4.238m11.115-1.123-.9.078-.313-.124-2.3-2.07-.15.013-.823.98-.124.313.091,1.051-.137.163-1.8.157-.163-.137-.895-10.22.137-.163,1.8-.157.163.137.529,6.015.15-.013,2.743-3.272.287-.176.9-.078.163.137.131,1.5L398,153.852l.013.15,2.148,2.083.131,1.5Zm5.557-.49-.163-.137-.176-.287-.15.013a2.462,2.462,0,0,1-1.6.744c-1.652.144-2.782-.666-2.919-2.168-.2-2.253,1.881-2.743,3.082-2.847a3.682,3.682,0,0,1,1.064.059l.137-.163-.013-.15c-.065-.751-.228-.888-1.13-.81-.451.039-.9.078-1.012.542l-.137.163-1.8.157-.163-.137c-.078-.9.555-2.318,2.958-2.534s3.259.927,3.461,3.18l.353,4.055-.137.176Z" transform="translate(-356.493 -128.521)"/>
      <path id="Path_54919" data-name="Path 54919" d="M333.306,636.986c-1.051-.091-1.717.607-1.835,1.959s.418,2.155,1.469,2.247,1.717-.607,1.835-1.959-.418-2.155-1.469-2.246" transform="translate(-309.81 -595.38)"/>
      <path id="Path_54920" data-name="Path 54920" d="M208.165,628.224c.1-1.2-.268-2.142-1.469-2.246s-1.731.757-1.835,1.959.268,2.142,1.469,2.246,1.731-.758,1.835-1.959" transform="translate(-191.466 -585.09)"/>
      <path id="Path_54921" data-name="Path 54921" d="M147.7,504.3l2.024,8.2A3.229,3.229,0,0,1,153,510.413a2.536,2.536,0,0,1,1.887.921l.15.013.3-3.455.163-.137,1.8.157.137.163-.895,10.22-.163.137-1.652-.144-.137-.163-.111-.464-.15-.013a2.537,2.537,0,0,1-2.018.581,3.156,3.156,0,0,1-1.273-.392l2.1,8.509,26.866-3.481,6.086-15.8Zm17.423,11.108a3.776,3.776,0,1,1-3.415-4.238,3.609,3.609,0,0,1,3.415,4.238m7.771-.536-1.8-.157-.137-.163c-.111-.464-.536-.8-1.286-.869-1.051-.091-1.718.607-1.835,1.959s.418,2.155,1.469,2.247a1.275,1.275,0,0,0,1.417-.634l.163-.137,1.8.157.137.163c-.457,1.776-2.024,2.4-3.683,2.253a3.927,3.927,0,0,1,.686-7.817c1.652.144,3.089,1.025,3.233,2.86Zm5.139,5.3-.163.137-2.1-.183-.137-.163.17-1.953.163-.137,2.1.183.137.163Zm3.213-7.288a3.108,3.108,0,0,1-1.887,2.56c-.953.523-1.13.81-1.182,1.411l-.163.137-1.8-.157-.137-.163a2.717,2.717,0,0,1,1.561-2.286c.953-.522,1.443-.934,1.509-1.685.052-.6-.346-1.241-1.4-1.332s-1.541.32-1.646,1.522l-.163.137-1.8-.157L174,512.7c.17-1.953,1.352-3.363,3.912-3.141s3.487,1.659,3.337,3.318" transform="translate(-138.055 -471.367)"/>
      <path id="Path_54922" data-name="Path 54922" d="M9.587,0,5.368,10.253l1.946,3.879.3.02,2.691-3.9.313-.131,1.051.072.137.163-.1,1.5L8.346,16.613l-.261,3.762-.163.137-1.809-.124-.137-.163.261-3.762L4.33,12.754,0,23.307l24.522,5.146L28.76,14.6l4.467-1.43Zm7.784,17.4a3.605,3.605,0,0,1-4.036,3.651,3.6,3.6,0,0,1-3.487-4.179,3.605,3.605,0,0,1,4.036-3.651A3.611,3.611,0,0,1,17.371,17.4m7.268,4.14-.163.137-1.659-.118L22.68,21.4l-.118-.464-.15-.013a2.053,2.053,0,0,1-1.861.627A2.737,2.737,0,0,1,17.9,18.338l.313-4.513.163-.137,1.809.124.137.163-.307,4.362c-.052.751.209,1.378,1.11,1.437,1.051.072,1.561-.647,1.633-1.7l.274-3.912.163-.137,1.809.124.137.163Z"/>
      <path id="Path_54923" data-name="Path 54923" d="M184.644,230.129c-1.051-.072-1.711.64-1.8,1.992s.457,2.148,1.509,2.22,1.711-.64,1.8-1.992-.451-2.149-1.509-2.22" transform="translate(-170.891 -215.096)"/>
    </g>
  </g>
</svg>
