<svg xmlns="http://www.w3.org/2000/svg" width="88.699" height="32.037" viewBox="0 0 88.699 32.037">
  <g id="Page-1" transform="translate(0 -0.264)">
    <g id="Cabrito" transform="translate(0 0.264)">
      <g id="Group-15" transform="translate(0 0)">
        <g id="Group-3" transform="translate(0 0)">
          <path id="Fill-1" d="M7.038,21.734a.536.536,0,0,1,.607-.607H8.939a.536.536,0,0,1,.607.607v3.9c0,5.218-2.023,6.472-4.773,6.472S0,30.853,0,25.635V6.542C0,1.325,2.022.07,4.773.07S9.546,1.325,9.546,6.542v4.306a.536.536,0,0,1-.607.607H7.645a.536.536,0,0,1-.607-.607V5.45c0-2.144-1.011-3.074-2.265-3.074s-2.265.93-2.265,3.074V26.727c0,2.144,1.011,3.075,2.265,3.075s2.265-.93,2.265-3.075Z" transform="translate(0 -0.07)" fill="#fff" fill-rule="evenodd"/>
        </g>
        <path id="Fill-4" d="M44.583,31.841a.589.589,0,0,1-.647-.526l-5.3-21.156.081,21.075a.536.536,0,0,1-.607.607H36.816a.536.536,0,0,1-.607-.607V1.463a.537.537,0,0,1,.607-.607H38.07a.589.589,0,0,1,.647.526l5.5,21.479-.081-21.4a.537.537,0,0,1,.607-.607h1.295a.537.537,0,0,1,.607.607V31.235a.536.536,0,0,1-.607.607Z" transform="translate(-4.055 -0.33)" fill="#fff" fill-rule="evenodd"/>
        <path id="Fill-6" d="M58.966,31.841a.6.6,0,0,1-.647-.567L54.678,1.5a.523.523,0,0,1,.566-.647h1.295a.563.563,0,0,1,.607.567l2.629,26.455,2.67-26.455a.563.563,0,0,1,.607-.567h1.294a.523.523,0,0,1,.566.647l-3.6,29.771a.6.6,0,0,1-.647.567Z" transform="translate(-6.123 -0.33)" fill="#fff" fill-rule="evenodd"/>
        <g id="Group-10" transform="translate(79.153 0)">
          <path id="Fill-8" d="M7.256,22.561c0-4.247-7.038-6.472-7.038-12.54V6.057C.218.677,3.171.07,4.991.07S9.764.677,9.764,6.138v4.75a.536.536,0,0,1-.607.606H7.863a.536.536,0,0,1-.607-.606V5.451c0-2.265-1.132-3.074-2.265-3.074s-2.265.809-2.265,3.074V9.657c0,5.5,7.038,6.675,7.038,12.459v3.115c0,4.49-1.011,6.876-4.773,6.876S.218,29.64.218,25.231v-3.5a.536.536,0,0,1,.607-.607H2.119a.536.536,0,0,1,.607.607v4.993c0,2.266,1.133,3.075,2.265,3.075s2.265-.809,2.265-3.075Z" transform="translate(-0.218 -0.07)" fill="#fff" fill-rule="evenodd"/>
        </g>
        <path id="Fill-11" d="M75.826,24.129a2.189,2.189,0,0,1-1.97-1.97L75.838,4.828,77.8,22.137a2.195,2.195,0,0,1-1.975,1.992M81.347,31.2,77.3,1.388a.6.6,0,0,0-.647-.566h-1.7a.6.6,0,0,0-.647.566L70.3,31.2a.523.523,0,0,0,.566.647h1.294a.6.6,0,0,0,.647-.567l.666-5.825a3.784,3.784,0,0,0,4.7,0l.662,5.828a.6.6,0,0,0,.647.567h1.294a.522.522,0,0,0,.566-.647" transform="translate(-7.873 -0.326)" fill="#fff" fill-rule="evenodd"/>
        <path id="Fill-13" d="M22.8,24.129a2.189,2.189,0,0,1-1.97-1.97L22.808,4.828l1.963,17.309A2.195,2.195,0,0,1,22.8,24.129M28.318,31.2,24.273,1.388a.6.6,0,0,0-.647-.566h-1.7a.6.6,0,0,0-.647.566l-4,29.812a.523.523,0,0,0,.566.647h1.294a.6.6,0,0,0,.647-.567l.666-5.825a3.784,3.784,0,0,0,4.7,0l.662,5.828a.6.6,0,0,0,.647.567h1.294a.522.522,0,0,0,.566-.647" transform="translate(-1.934 -0.326)" fill="#fff" fill-rule="evenodd"/>
      </g>
    </g>
  </g>
</svg>
